<?xml version="1.0" encoding="utf-8"?>
<!-- Generator: Adobe Illustrator 15.1.0, SVG Export Plug-In . SVG Version: 6.00 Build 0)  -->
<!DOCTYPE svg PUBLIC "-//W3C//DTD SVG 1.1//EN" "http://www.w3.org/Graphics/SVG/1.1/DTD/svg11.dtd">
<svg version="1.1" id="Layer_1" xmlns="http://www.w3.org/2000/svg" x="0px" y="0px"
	 width="100px" height="300px" viewBox="0 -100 100 300" enable-background="new 0 -100 100 300" xml:space="preserve">
<g>
	<g>
		<g opacity="0.5">
			<path fill="#1D1E1C" d="M17.021,61.812C15.814-14.777,28.572-96.484,45.887-96.754c17.318-0.273,32.641,80.986,33.848,157.577
				c0.522,33.213-1.59,74.903-5.613,98.852c-5.26,31.275-13.752,40.166-23.559,40.323c-9.666,0.148-18.564-7.887-24.797-38.196
				C20.834,137.799,17.555,95.663,17.021,61.812z"/>
		</g>
		<g>
			
				<linearGradient id="SVGID_1_" gradientUnits="userSpaceOnUse" x1="-801.25" y1="-5344.1128" x2="-738.5332" y2="-5344.1128" gradientTransform="matrix(-0.9999 0.0157 -0.0157 -0.9999 -802.2459 -5283.1143)">
				<stop  offset="0" style="stop-color:#B5B5B5"/>
				<stop  offset="1" style="stop-color:#575655"/>
			</linearGradient>
			<path fill="url(#SVGID_1_)" d="M20.268,58.566C19.061-18.021,31.816-99.729,49.132-99.999
				c17.318-0.274,32.64,80.985,33.847,157.578c0.524,33.212-1.588,74.903-5.61,98.851c-5.261,31.275-13.752,40.168-23.56,40.323
				c-9.666,0.147-18.563-7.886-24.797-38.196C24.079,134.555,20.799,92.418,20.268,58.566z"/>
		</g>
	</g>
	<g>
		<g>
			<path fill="#221E20" d="M52.959,128.383l-2.307,0.036c-0.502,0.008-0.905,0.427-0.897,0.927l0.042,2.532
				c0.005,0.5,0.426,0.907,0.926,0.897l2.307-0.035c0.503-0.008,0.906-0.43,0.896-0.93l-0.037-2.529
				C53.88,128.777,53.462,128.374,52.959,128.383z"/>
		</g>
		<g>
			
				<linearGradient id="SVGID_2_" gradientUnits="userSpaceOnUse" x1="-771.0391" y1="-5426.3091" x2="-766.9048" y2="-5426.3091" gradientTransform="matrix(-0.9999 0.0157 -0.0157 -0.9999 -802.2459 -5283.1143)">
				<stop  offset="0" style="stop-color:#808084"/>
				<stop  offset="1" style="stop-color:#FFFFFF"/>
			</linearGradient>
			<path fill="url(#SVGID_2_)" d="M52.959,128.383l-2.307,0.036c-0.502,0.008-0.905,0.427-0.897,0.927l0.042,2.532
				c0.005,0.5,0.426,0.907,0.926,0.897l2.307-0.035c0.503-0.008,0.906-0.43,0.896-0.93l-0.037-2.529
				C53.88,128.777,53.462,128.374,52.959,128.383z"/>
			
				<linearGradient id="SVGID_3_" gradientUnits="userSpaceOnUse" x1="-770.6191" y1="-5426.3086" x2="-767.3228" y2="-5426.3086" gradientTransform="matrix(-0.9999 0.0157 -0.0157 -0.9999 -802.2459 -5283.1143)">
				<stop  offset="0" style="stop-color:#BABBBE"/>
				<stop  offset="1" style="stop-color:#FFFFFF"/>
			</linearGradient>
			<path fill="url(#SVGID_3_)" d="M52.73,128.827l-1.834,0.028c-0.402,0.006-0.726,0.34-0.72,0.742l0.033,2.016
				c0.005,0.402,0.338,0.724,0.739,0.718l1.835-0.03c0.399-0.006,0.726-0.338,0.717-0.738l-0.028-2.021
				C53.465,129.145,53.133,128.818,52.73,128.827z"/>
		</g>
	</g>
	<g>
		<g>
			<g>
				<circle fill="#010101" cx="52.395" cy="143.036" r="4.345"/>
			</g>
		</g>
		
			<linearGradient id="SVGID_4_" gradientUnits="userSpaceOnUse" x1="-773.6748" y1="-5438.7725" x2="-764.9849" y2="-5438.7725" gradientTransform="matrix(-0.9999 0.0157 -0.0157 -0.9999 -802.2459 -5283.1143)">
			<stop  offset="0" style="stop-color:#000000"/>
			<stop  offset="1" style="stop-color:#C9C8C8"/>
		</linearGradient>
		<circle fill="url(#SVGID_4_)" cx="52.395" cy="143.036" r="4.345"/>
		<path fill="#FFFFFF" d="M49.055,143.088c-0.027-1.841,1.443-3.359,3.286-3.391c1.845-0.027,3.36,1.441,3.392,3.285
			c0.031,1.845-1.441,3.357-3.282,3.392C50.602,146.4,49.085,144.932,49.055,143.088z"/>
		<g>
			<path fill="none" d="M50.318,140.439c-0.2,0.164-0.383,0.352-0.539,0.555l2.636,2.017L50.318,140.439z"/>
			<path fill="none" d="M51.885,139.734c-0.261,0.045-0.509,0.117-0.744,0.216l1.274,3.062L51.885,139.734z"/>
			<path fill="none" d="M52.404,143.033l-1.168,3.076c0.238,0.089,0.488,0.154,0.753,0.188l0.423-3.264H52.404L52.404,143.033z"/>
			<path fill="none" d="M52.379,143.038l-2.531,2.065c0.16,0.201,0.348,0.379,0.553,0.539l1.994-2.607L52.379,143.038z"/>
			<path fill="none" d="M54.984,140.911c-0.166-0.197-0.354-0.378-0.561-0.537l-2.011,2.637L54.984,140.911z"/>
			<path fill="none" d="M55.514,144.188c0.092-0.235,0.154-0.485,0.188-0.754l-3.286-0.422L55.514,144.188z"/>
			<path fill="none" d="M52.941,146.279c0.263-0.043,0.512-0.109,0.748-0.207l-1.274-3.062L52.941,146.279z"/>
			<path fill="none" d="M53.591,139.906c-0.235-0.088-0.489-0.148-0.75-0.188l-0.426,3.291L53.591,139.906z"/>
			<path fill="none" d="M54.509,145.577c0.2-0.165,0.382-0.349,0.538-0.556l-2.632-2.015L54.509,145.577z"/>
			<path fill="none" d="M55.686,142.479c-0.043-0.258-0.108-0.508-0.209-0.742l-3.062,1.275L55.686,142.479z"/>
			<path fill="none" d="M52.32,143.047l-3.178,0.488c0.041,0.262,0.111,0.515,0.211,0.748L52.32,143.047z"/>
			<path fill="none" d="M52.415,143.012l-3.101-1.182c-0.09,0.238-0.152,0.488-0.188,0.75l3.242,0.447L52.415,143.012z"/>
			<polygon fill="none" points="52.412,143.033 52.415,143.012 52.404,143.033 			"/>
			<polygon fill="none" points="52.398,143.029 52.415,143.012 52.391,143.027 			"/>
			
				<linearGradient id="SVGID_5_" gradientUnits="userSpaceOnUse" x1="6041.9258" y1="-284.8276" x2="6038.0142" y2="-281.0171" gradientTransform="matrix(0.0079 1 -1 0.0079 -280.2339 -5896.7056)">
				<stop  offset="0" style="stop-color:#FFFFFF"/>
				<stop  offset="1" style="stop-color:#D42717"/>
			</linearGradient>
			<polygon fill="url(#SVGID_5_)" points="52.391,143.027 52.379,143.038 52.395,143.035 52.398,143.029 			"/>
			
				<linearGradient id="SVGID_6_" gradientUnits="userSpaceOnUse" x1="6041.9219" y1="-284.8433" x2="6038.2314" y2="-281.248" gradientTransform="matrix(0.0079 1 -1 0.0079 -280.2339 -5896.7056)">
				<stop  offset="0" style="stop-color:#FFFFFF"/>
				<stop  offset="1" style="stop-color:#D42717"/>
			</linearGradient>
			<rect x="52.408" y="143.029" fill="url(#SVGID_6_)" width="0" height="0.008"/>
			
				<linearGradient id="SVGID_7_" gradientUnits="userSpaceOnUse" x1="830.4258" y1="6564.1973" x2="827.4079" y2="6567.1372" gradientTransform="matrix(0.9999 -0.0157 0.0157 0.9999 -881.0373 -6407.4229)">
				<stop  offset="0" style="stop-color:#FFFFFF"/>
				<stop  offset="1" style="stop-color:#D42717"/>
			</linearGradient>
			<polygon fill="url(#SVGID_7_)" points="52.415,143.033 52.412,143.033 52.412,143.033 			"/>
			
				<linearGradient id="SVGID_8_" gradientUnits="userSpaceOnUse" x1="6041.9551" y1="-284.8828" x2="6040.2515" y2="-283.2234" gradientTransform="matrix(0.0079 1 -1 0.0079 -280.2339 -5896.7056)">
				<stop  offset="0" style="stop-color:#FFFFFF"/>
				<stop  offset="1" style="stop-color:#D42717"/>
			</linearGradient>
			<polygon fill="url(#SVGID_8_)" points="52.415,143.033 52.412,143.033 52.412,143.033 			"/>
			
				<linearGradient id="SVGID_9_" gradientUnits="userSpaceOnUse" x1="5639.373" y1="2874.793" x2="5635.686" y2="2878.3848" gradientTransform="matrix(0.5136 0.858 -0.858 0.5136 -377.4946 -6172.0791)">
				<stop  offset="0" style="stop-color:#FFFFFF"/>
				<stop  offset="1" style="stop-color:#D42717"/>
			</linearGradient>
			<polygon fill="url(#SVGID_9_)" points="52.415,143.012 52.371,143.027 52.391,143.027 			"/>
			
				<linearGradient id="SVGID_10_" gradientUnits="userSpaceOnUse" x1="6041.9521" y1="-284.8164" x2="6038.5405" y2="-281.4928" gradientTransform="matrix(0.0079 1 -1 0.0079 -280.2339 -5896.7056)">
				<stop  offset="0" style="stop-color:#FFFFFF"/>
				<stop  offset="1" style="stop-color:#D42717"/>
			</linearGradient>
			<polygon fill="url(#SVGID_10_)" points="52.391,143.027 52.371,143.027 52.32,143.047 52.379,143.038 			"/>
			
				<linearGradient id="SVGID_11_" gradientUnits="userSpaceOnUse" x1="5639.3936" y1="2874.8105" x2="5635.7207" y2="2878.3879" gradientTransform="matrix(0.5136 0.858 -0.858 0.5136 -377.4946 -6172.0791)">
				<stop  offset="0" style="stop-color:#FFFFFF"/>
				<stop  offset="1" style="stop-color:#D42717"/>
			</linearGradient>
			<polygon fill="url(#SVGID_11_)" points="52.391,143.027 52.371,143.027 52.32,143.047 52.379,143.038 			"/>
			
				<linearGradient id="SVGID_12_" gradientUnits="userSpaceOnUse" x1="3729.0889" y1="5363.75" x2="3726.0674" y2="5366.6938" gradientTransform="matrix(0.8738 0.4863 -0.4863 0.8738 -597.7537 -6357.2573)">
				<stop  offset="0" style="stop-color:#FFFFFF"/>
				<stop  offset="1" style="stop-color:#D42717"/>
			</linearGradient>
			<polygon fill="url(#SVGID_12_)" points="52.404,143.033 52.415,143.012 52.398,143.029 			"/>
			
				<linearGradient id="SVGID_13_" gradientUnits="userSpaceOnUse" x1="6041.9424" y1="-284.8584" x2="6039.312" y2="-282.2961" gradientTransform="matrix(0.0079 1 -1 0.0079 -280.2339 -5896.7056)">
				<stop  offset="0" style="stop-color:#FFFFFF"/>
				<stop  offset="1" style="stop-color:#D42717"/>
			</linearGradient>
			<rect x="52.396" y="143.027" fill="url(#SVGID_13_)" width="0.011" height="0.008"/>
			
				<linearGradient id="SVGID_14_" gradientUnits="userSpaceOnUse" x1="3729.1016" y1="5363.7451" x2="3726.5837" y2="5366.1978" gradientTransform="matrix(0.8738 0.4863 -0.4863 0.8738 -597.7537 -6357.2573)">
				<stop  offset="0" style="stop-color:#FFFFFF"/>
				<stop  offset="1" style="stop-color:#D42717"/>
			</linearGradient>
			<rect x="52.396" y="143.027" fill="url(#SVGID_14_)" width="0.011" height="0.008"/>
		</g>
	</g>
	<g>
		<g>
			<g>
				<path fill="#010101" d="M45.26-52.609c-0.037-2.396,1.877-4.373,4.276-4.412c2.401-0.039,4.377,1.879,4.412,4.274
					c0.038,2.401-1.876,4.381-4.275,4.413C47.271-48.295,45.296-50.208,45.26-52.609z"/>
			</g>
		</g>
		
			<linearGradient id="SVGID_15_" gradientUnits="userSpaceOnUse" x1="-773.9565" y1="-5243.0435" x2="-765.2671" y2="-5243.0435" gradientTransform="matrix(-0.9999 0.0157 -0.0157 -0.9999 -802.2459 -5283.1143)">
			<stop  offset="0" style="stop-color:#000000"/>
			<stop  offset="1" style="stop-color:#C9C8C8"/>
		</linearGradient>
		<path fill="url(#SVGID_15_)" d="M45.26-52.609c-0.037-2.396,1.877-4.373,4.276-4.412c2.401-0.039,4.377,1.879,4.412,4.274
			c0.038,2.401-1.876,4.381-4.275,4.413C47.271-48.295,45.296-50.208,45.26-52.609z"/>
		<path fill="#FFFFFF" d="M46.268-52.626c-0.025-1.841,1.44-3.356,3.288-3.392c1.843-0.025,3.359,1.447,3.39,3.287
			c0.027,1.847-1.441,3.362-3.285,3.391C47.812-49.312,46.297-50.779,46.268-52.626z"/>
		<g>
			<path fill="none" d="M47.529-55.273c-0.2,0.164-0.381,0.353-0.541,0.555l2.636,2.018L47.529-55.273z"/>
			<path fill="none" d="M49.096-55.979c-0.261,0.045-0.511,0.115-0.744,0.215l1.272,3.062L49.096-55.979z"/>
			<path fill="none" d="M49.615-52.682l-1.168,3.078c0.238,0.088,0.492,0.153,0.75,0.188l0.424-3.266H49.615z"/>
			<path fill="none" d="M49.588-52.675l-2.529,2.065c0.162,0.203,0.352,0.385,0.558,0.539l1.992-2.604H49.588z"/>
			<path fill="none" d="M52.191-54.796c-0.162-0.203-0.35-0.386-0.556-0.539l-2.014,2.633L52.191-54.796z"/>
			<path fill="none" d="M52.727-51.525c0.09-0.236,0.15-0.49,0.188-0.754l-3.288-0.423L52.727-51.525z"/>
			<path fill="none" d="M50.152-49.434c0.263-0.045,0.513-0.109,0.747-0.209l-1.274-3.061L50.152-49.434z"/>
			<path fill="none" d="M50.803-55.802c-0.238-0.095-0.49-0.153-0.75-0.187l-0.429,3.285L50.803-55.802z"/>
			<path fill="none" d="M51.721-50.137c0.199-0.159,0.381-0.346,0.538-0.555l-2.635-2.012L51.721-50.137z"/>
			<path fill="none" d="M52.896-53.234c-0.041-0.26-0.112-0.507-0.209-0.742l-3.062,1.274L52.896-53.234z"/>
			<path fill="none" d="M49.532-52.664l-3.181,0.489c0.043,0.258,0.111,0.511,0.211,0.747L49.532-52.664z"/>
			<path fill="none" d="M49.624-52.702l-3.101-1.177c-0.09,0.236-0.15,0.484-0.188,0.748l3.244,0.445L49.624-52.702z"/>
			<polygon fill="none" points="49.621,-52.682 49.624,-52.702 49.615,-52.682 			"/>
			<polygon fill="none" points="49.609,-52.682 49.624,-52.702 49.6,-52.686 			"/>
			
				<linearGradient id="SVGID_16_" gradientUnits="userSpaceOnUse" x1="5846.2041" y1="-283.5859" x2="5842.2939" y2="-279.7771" gradientTransform="matrix(0.0079 1 -1 0.0079 -280.2339 -5896.7056)">
				<stop  offset="0" style="stop-color:#FFFFFF"/>
				<stop  offset="1" style="stop-color:#D42717"/>
			</linearGradient>
			<polygon fill="url(#SVGID_16_)" points="49.6,-52.686 49.588,-52.675 49.604,-52.675 49.609,-52.682 			"/>
			
				<linearGradient id="SVGID_17_" gradientUnits="userSpaceOnUse" x1="5846.2129" y1="-283.6157" x2="5843.5288" y2="-281.0013" gradientTransform="matrix(0.0079 1 -1 0.0079 -280.2339 -5896.7056)">
				<stop  offset="0" style="stop-color:#FFFFFF"/>
				<stop  offset="1" style="stop-color:#D42717"/>
			</linearGradient>
			<rect x="49.618" y="-52.685" fill="url(#SVGID_17_)" width="0" height="0.006"/>
			
				<linearGradient id="SVGID_18_" gradientUnits="userSpaceOnUse" x1="830.7266" y1="6368.4512" x2="828.7147" y2="6370.4111" gradientTransform="matrix(0.9999 -0.0157 0.0157 0.9999 -881.0373 -6407.4229)">
				<stop  offset="0" style="stop-color:#FFFFFF"/>
				<stop  offset="1" style="stop-color:#D42717"/>
			</linearGradient>
			<polygon fill="url(#SVGID_18_)" points="49.624,-52.682 49.621,-52.682 49.621,-52.682 			"/>
			
				<linearGradient id="SVGID_19_" gradientUnits="userSpaceOnUse" x1="5846.1475" y1="-283.5566" x2="5840.1577" y2="-277.7228" gradientTransform="matrix(0.0079 1 -1 0.0079 -280.2339 -5896.7056)">
				<stop  offset="0" style="stop-color:#FFFFFF"/>
				<stop  offset="1" style="stop-color:#D42717"/>
			</linearGradient>
			<polygon fill="url(#SVGID_19_)" points="49.624,-52.682 49.621,-52.682 49.621,-52.682 			"/>
			
				<linearGradient id="SVGID_20_" gradientUnits="userSpaceOnUse" x1="5470.0088" y1="2776.666" x2="5466.2622" y2="2780.3157" gradientTransform="matrix(0.5136 0.858 -0.858 0.5136 -377.4946 -6172.0791)">
				<stop  offset="0" style="stop-color:#FFFFFF"/>
				<stop  offset="1" style="stop-color:#D42717"/>
			</linearGradient>
			<polygon fill="url(#SVGID_20_)" points="49.624,-52.702 49.582,-52.686 49.6,-52.686 			"/>
			
				<linearGradient id="SVGID_21_" gradientUnits="userSpaceOnUse" x1="5846.2285" y1="-283.5747" x2="5842.8267" y2="-280.2611" gradientTransform="matrix(0.0079 1 -1 0.0079 -280.2339 -5896.7056)">
				<stop  offset="0" style="stop-color:#FFFFFF"/>
				<stop  offset="1" style="stop-color:#D42717"/>
			</linearGradient>
			<polygon fill="url(#SVGID_21_)" points="49.6,-52.686 49.582,-52.686 49.532,-52.664 49.588,-52.675 			"/>
			
				<linearGradient id="SVGID_22_" gradientUnits="userSpaceOnUse" x1="5470.0332" y1="2776.6787" x2="5466.6729" y2="2779.9524" gradientTransform="matrix(0.5136 0.858 -0.858 0.5136 -377.4946 -6172.0791)">
				<stop  offset="0" style="stop-color:#FFFFFF"/>
				<stop  offset="1" style="stop-color:#D42717"/>
			</linearGradient>
			<polygon fill="url(#SVGID_22_)" points="49.6,-52.686 49.582,-52.686 49.532,-52.664 49.588,-52.675 			"/>
			
				<linearGradient id="SVGID_23_" gradientUnits="userSpaceOnUse" x1="3631.4717" y1="5194.0996" x2="3628.0649" y2="5197.4185" gradientTransform="matrix(0.8738 0.4863 -0.4863 0.8738 -597.7537 -6357.2573)">
				<stop  offset="0" style="stop-color:#FFFFFF"/>
				<stop  offset="1" style="stop-color:#D42717"/>
			</linearGradient>
			<polygon fill="url(#SVGID_23_)" points="49.615,-52.682 49.624,-52.702 49.609,-52.682 			"/>
			
				<linearGradient id="SVGID_24_" gradientUnits="userSpaceOnUse" x1="5846.2422" y1="-283.6357" x2="5844.9565" y2="-282.3834" gradientTransform="matrix(0.0079 1 -1 0.0079 -280.2339 -5896.7056)">
				<stop  offset="0" style="stop-color:#FFFFFF"/>
				<stop  offset="1" style="stop-color:#D42717"/>
			</linearGradient>
			<polygon fill="url(#SVGID_24_)" points="49.609,-52.682 49.604,-52.675 49.615,-52.682 49.615,-52.682 			"/>
			
				<linearGradient id="SVGID_25_" gradientUnits="userSpaceOnUse" x1="3631.4775" y1="5194.1045" x2="3628.2922" y2="5197.207" gradientTransform="matrix(0.8738 0.4863 -0.4863 0.8738 -597.7537 -6357.2573)">
				<stop  offset="0" style="stop-color:#FFFFFF"/>
				<stop  offset="1" style="stop-color:#D42717"/>
			</linearGradient>
			<polygon fill="url(#SVGID_25_)" points="49.609,-52.682 49.604,-52.675 49.615,-52.682 49.615,-52.682 			"/>
		</g>
	</g>
	<g>
		<g>
			<g opacity="0.5">
				<path fill="#1D1E1C" d="M38.734,56.562c-0.344-21.77,4.582-45.004,11.111-45.109c6.527-0.104,12.182,22.971,12.527,44.736
					c0.147,9.438-0.708,21.293-2.263,28.104c-2.025,8.896-5.24,11.438-8.938,11.495c-3.646,0.058-6.983-2.214-9.286-10.815
					C40.059,78.154,38.886,66.184,38.734,56.562z"/>
			</g>
			<g>
				
					<linearGradient id="SVGID_26_" gradientUnits="userSpaceOnUse" x1="693.6211" y1="653.2822" x2="693.6211" y2="629.6113" gradientTransform="matrix(-1.346898e-10 1 -1 -1.346898e-10 694 -642)">
					<stop  offset="0" style="stop-color:#5E5F5F"/>
					<stop  offset="1" style="stop-color:#8B8B8B"/>
				</linearGradient>
				<path fill="url(#SVGID_26_)" d="M40.734,54.562c-0.344-21.77,4.582-45.004,11.111-45.109
					c6.526-0.104,12.182,22.971,12.526,44.736c0.147,9.438-0.708,21.293-2.263,28.104c-2.025,8.896-5.24,11.438-8.938,11.495
					c-3.645,0.058-6.983-2.214-9.286-10.815C42.059,76.154,40.886,64.184,40.734,54.562z"/>
			</g>
		</g>
		<g>
			<path fill="#434344" d="M50.475,42.18c-0.017-1.055,0.826-1.924,1.882-1.939c1.056-0.016,1.922,0.826,1.938,1.883
				c0.019,1.055-0.823,1.926-1.879,1.941C51.357,44.078,50.49,43.234,50.475,42.18z"/>
		</g>
		<g>
			<path fill="#434344" d="M50.489,34.26c-0.013-1.055,0.827-1.924,1.883-1.939c1.058-0.016,1.926,0.824,1.942,1.88
				c0.016,1.055-0.828,1.923-1.883,1.942C51.377,36.161,50.509,35.316,50.489,34.26z"/>
		</g>
		<g>
			<path fill="#434344" d="M49.964,24.701c-0.021-1.319,1.033-2.406,2.353-2.43c1.317-0.021,2.406,1.033,2.431,2.353
				c0.021,1.319-1.033,2.407-2.354,2.431C51.07,27.072,49.986,26.021,49.964,24.701z"/>
		</g>
		<g>
			<g>
				<path fill="#221E20" d="M58.833,53.205l-2.304,0.038c-0.502,0.005-0.906,0.423-0.9,0.928l0.041,2.528
					c0.01,0.503,0.426,0.906,0.93,0.9l2.303-0.037c0.502-0.006,0.906-0.424,0.9-0.933l-0.042-2.524
					C59.753,53.602,59.336,53.199,58.833,53.205z"/>
			</g>
			<g>
				
					<linearGradient id="SVGID_27_" gradientUnits="userSpaceOnUse" x1="-778.0928" y1="-5351.2349" x2="-773.958" y2="-5351.2349" gradientTransform="matrix(-0.9999 0.0157 -0.0157 -0.9999 -802.2459 -5283.1143)">
					<stop  offset="0" style="stop-color:#808084"/>
					<stop  offset="1" style="stop-color:#FFFFFF"/>
				</linearGradient>
				<path fill="url(#SVGID_27_)" d="M58.833,53.205l-2.304,0.038c-0.502,0.005-0.906,0.423-0.9,0.928l0.041,2.528
					c0.01,0.503,0.426,0.906,0.93,0.9l2.303-0.037c0.502-0.006,0.906-0.424,0.9-0.933l-0.042-2.524
					C59.753,53.602,59.336,53.199,58.833,53.205z"/>
				
					<linearGradient id="SVGID_28_" gradientUnits="userSpaceOnUse" x1="-777.6714" y1="-5351.2349" x2="-774.3765" y2="-5351.2349" gradientTransform="matrix(-0.9999 0.0157 -0.0157 -0.9999 -802.2459 -5283.1143)">
					<stop  offset="0" style="stop-color:#BABBBE"/>
					<stop  offset="1" style="stop-color:#FFFFFF"/>
				</linearGradient>
				<path fill="url(#SVGID_28_)" d="M58.607,53.648L56.77,53.68c-0.398,0.008-0.725,0.338-0.715,0.735l0.028,2.021
					c0.006,0.397,0.341,0.726,0.739,0.719l1.838-0.028c0.4-0.006,0.723-0.339,0.715-0.739l-0.029-2.02
					C59.341,53.969,59.009,53.645,58.607,53.648z"/>
			</g>
		</g>
		<g>
			<g>
				<path fill="#221E20" d="M49.02,53.484l-2.303,0.035c-0.506,0.01-0.906,0.426-0.902,0.926l0.041,2.533
					c0.013,0.5,0.431,0.903,0.933,0.896l2.304-0.035c0.502-0.009,0.906-0.427,0.898-0.929l-0.039-2.531
					C49.939,53.881,49.521,53.475,49.02,53.484z"/>
			</g>
			<g>
				
					<linearGradient id="SVGID_29_" gradientUnits="userSpaceOnUse" x1="-768.2778" y1="-5351.3584" x2="-764.1406" y2="-5351.3584" gradientTransform="matrix(-0.9999 0.0157 -0.0157 -0.9999 -802.2459 -5283.1143)">
					<stop  offset="0" style="stop-color:#808084"/>
					<stop  offset="1" style="stop-color:#FFFFFF"/>
				</linearGradient>
				<path fill="url(#SVGID_29_)" d="M49.02,53.484l-2.303,0.035c-0.506,0.01-0.906,0.426-0.902,0.926l0.041,2.533
					c0.013,0.5,0.431,0.903,0.933,0.896l2.304-0.035c0.502-0.009,0.906-0.427,0.898-0.929l-0.039-2.531
					C49.939,53.881,49.521,53.475,49.02,53.484z"/>
				
					<linearGradient id="SVGID_30_" gradientUnits="userSpaceOnUse" x1="-767.8516" y1="-5351.3589" x2="-764.5605" y2="-5351.3589" gradientTransform="matrix(-0.9999 0.0157 -0.0157 -0.9999 -802.2459 -5283.1143)">
					<stop  offset="0" style="stop-color:#BABBBE"/>
					<stop  offset="1" style="stop-color:#FFFFFF"/>
				</linearGradient>
				<path fill="url(#SVGID_30_)" d="M48.793,53.93l-1.838,0.027c-0.398,0.006-0.723,0.341-0.717,0.742l0.033,2.017
					c0.004,0.401,0.34,0.726,0.734,0.716l1.842-0.027c0.396-0.006,0.72-0.34,0.712-0.734l-0.031-2.021
					C49.527,54.243,49.191,53.924,48.793,53.93z"/>
			</g>
		</g>
		<g>
			<g opacity="0.5">
				
					<rect x="48.358" y="62.08" transform="matrix(-0.0157 -0.9999 0.9999 -0.0157 -14.7294 120.6755)" fill="#1D1E1C" width="7.352" height="11.016"/>
			</g>
			<g>
				<g>
					
						<rect x="49.369" y="61.083" transform="matrix(-0.0157 -0.9999 0.9999 -0.0157 -12.7068 120.6744)" fill="#808084" width="7.352" height="11.018"/>
				</g>
			</g>
		</g>
		<g>
			<g>
				<g>
					<path fill="#221E20" d="M50.766,73.08l3.992-0.061c0.354-0.006,0.648,0.336,0.654,0.758l0.035,2.291
						c0.009,0.43-0.273,0.771-0.629,0.781l-3.992,0.062c-0.354,0.005-0.646-0.336-0.653-0.768l-0.032-2.291
						C50.132,73.438,50.414,73.086,50.766,73.08z"/>
				</g>
			</g>
			<g>
				<g opacity="0.5">
					<path fill="#1D1E1C" d="M49.766,74.08l3.992-0.061c0.354-0.006,0.648,0.336,0.654,0.758l0.035,2.291
						c0.009,0.43-0.273,0.771-0.629,0.781l-3.992,0.062c-0.354,0.005-0.646-0.336-0.653-0.768l-0.032-2.291
						C49.132,74.438,49.414,74.086,49.766,74.08z"/>
				</g>
				<g>
					<path fill="#808084" d="M50.766,73.08l3.992-0.061c0.354-0.006,0.648,0.336,0.654,0.758l0.035,2.291
						c0.009,0.43-0.273,0.771-0.629,0.781l-3.992,0.062c-0.354,0.005-0.646-0.336-0.653-0.768l-0.032-2.291
						C50.132,73.438,50.414,73.086,50.766,73.08z"/>
				</g>
			</g>
			<g>
				<g>
					
						<rect x="52.226" y="73.25" transform="matrix(-0.9999 0.0164 -0.0164 -0.9999 106.8386 145.9212)" fill="#221E20" width="1.192" height="0.297"/>
				</g>
			</g>
			<g>
				<path fill="#221E20" d="M54.156,76.602l0.377-0.006c0.104-0.004,0.189,0.098,0.191,0.223l0,0
					c0.004,0.125-0.082,0.229-0.186,0.229l-0.379,0.007c-0.104,0-0.188-0.101-0.192-0.227l0,0
					C53.971,76.707,54.053,76.604,54.156,76.602z"/>
				<path fill="#221E20" d="M51.244,76.646l0.376-0.006c0.104-0.004,0.19,0.1,0.192,0.219l0,0c0.002,0.127-0.08,0.229-0.186,0.229
					L51.251,77.1c-0.104,0.002-0.19-0.104-0.19-0.227l0,0C51.057,76.751,51.141,76.646,51.244,76.646z"/>
			</g>
		</g>
	</g>
	<g>
		<g>
			<g>
				
					<rect x="39.941" y="-54.206" transform="matrix(-0.9999 0.0139 -0.0139 -0.9999 80.3161 -108.6738)" fill="#FFFFFF" width="1.192" height="0.297"/>
			</g>
		</g>
	</g>
	<path fill="#585756" d="M37.634-54.678l3.992-0.065c0.354-0.006,0.646,0.335,0.653,0.759l0.033,2.291
		c0.01,0.43-0.271,0.78-0.625,0.786l-3.994,0.062c-0.354,0.005-0.646-0.336-0.652-0.76l-0.036-2.291
		C36.996-54.326,37.279-54.672,37.634-54.678z"/>
	<path fill="#585756" d="M57.527-54.934l3.99-0.065c0.354-0.006,0.646,0.335,0.652,0.765l0.035,2.284
		c0.006,0.429-0.273,0.775-0.629,0.786l-3.992,0.061c-0.354,0.006-0.646-0.334-0.65-0.764l-0.037-2.291
		C56.891-54.582,57.171-54.934,57.527-54.934z"/>
</g>
</svg>
