<?xml version="1.0" encoding="utf-8"?>
<!-- Generator: Adobe Illustrator 15.1.0, SVG Export Plug-In . SVG Version: 6.00 Build 0)  -->
<!DOCTYPE svg PUBLIC "-//W3C//DTD SVG 1.1//EN" "http://www.w3.org/Graphics/SVG/1.1/DTD/svg11.dtd">
<svg version="1.1" id="Layer_1" xmlns="http://www.w3.org/2000/svg" x="0px" y="0px"
	 width="100px" height="100px" viewBox="0 0 100 100" enable-background="new 0 0 100 100" xml:space="preserve">
<g>
	<g opacity="0.5">
		<path d="M69.312,51.834L33.576,71.693c-0.412,0.232-0.768,0.261-1.063,0.08c-0.297-0.178-0.443-0.502-0.443-0.967V31.194
			c0-0.465,0.146-0.789,0.443-0.969c0.296-0.179,0.651-0.151,1.063,0.082l35.736,19.859C69.725,50.4,69.93,50.677,69.93,51
			C69.932,51.322,69.725,51.602,69.312,51.834z"/>
	</g>
	<g>
		<g>
			<path fill="#FFFFFF" d="M68.312,50.834L32.576,70.693c-0.412,0.232-0.768,0.261-1.063,0.08c-0.297-0.178-0.443-0.502-0.443-0.967
				V30.194c0-0.465,0.146-0.789,0.443-0.969c0.296-0.179,0.651-0.151,1.063,0.082l35.736,19.859C68.725,49.4,68.93,49.677,68.93,50
				C68.932,50.322,68.725,50.602,68.312,50.834z"/>
		</g>
	</g>
</g>
</svg>
