<?xml version="1.0" encoding="utf-8"?>
<!-- Generator: Adobe Illustrator 15.1.0, SVG Export Plug-In . SVG Version: 6.00 Build 0)  -->
<!DOCTYPE svg PUBLIC "-//W3C//DTD SVG 1.1//EN" "http://www.w3.org/Graphics/SVG/1.1/DTD/svg11.dtd">
<svg version="1.1" id="Layer_1" xmlns="http://www.w3.org/2000/svg" x="0px" y="0px"
	 width="100px" height="300px" viewBox="0 -100 100 300" enable-background="new 0 -100 100 300" xml:space="preserve">
<g>
	<g>
		<g>
			<g>
				<path fill="#010202" d="M51.905-99.76c0,0-46.762,68.421-45.072,143.958l2.925,130.601c0.136,6.02,2.287,11.682,5.929,15.582
					l0.57,0.615c3.042,3.262,6.905,5.055,10.896,5.055h50.068c4.276,0,8.393-2.055,11.51-5.744l0,0
					c3.274-3.873,5.187-9.232,5.312-14.895l2.939-131.214C98.673-31.338,51.905-99.76,51.905-99.76z"/>
			</g>
		</g>
		<g>
			<g>
				<g opacity="0.5">
					<path d="M47.956-95.811c0,0-46.764,68.421-45.072,143.958l2.926,130.601c0.135,6.02,2.287,11.682,5.928,15.582l0.57,0.613
						C15.35,198.207,19.212,200,23.205,200h50.067c4.276,0,8.393-2.055,11.511-5.744l0,0c3.274-3.873,5.186-9.232,5.312-14.896
						l2.939-131.212C94.725-27.389,47.956-95.811,47.956-95.811z"/>
				</g>
				<g>
					
						<linearGradient id="SVGID_1_" gradientUnits="userSpaceOnUse" x1="-500.9624" y1="-406.3252" x2="-410.7222" y2="-406.3252" gradientTransform="matrix(1 0 0 -1 507.75 -358.1797)">
						<stop  offset="0" style="stop-color:#707070"/>
						<stop  offset="1" style="stop-color:#FFFFFF"/>
					</linearGradient>
					<path fill="url(#SVGID_1_)" d="M51.905-99.76c0,0-46.762,68.421-45.072,143.958l2.925,130.601
						c0.136,6.02,2.287,11.682,5.929,15.582l0.57,0.615c3.042,3.262,6.905,5.055,10.896,5.055h50.068
						c4.276,0,8.393-2.055,11.51-5.744l0,0c3.274-3.873,5.187-9.232,5.312-14.895l2.939-131.214
						C98.673-31.338,51.905-99.76,51.905-99.76z"/>
				</g>
			</g>
			<path fill="#A7A9AC" d="M6.653,40.184c0-38.213,12.273-74.249,22.57-97.75C40.379-83.025,51.68-99.671,51.792-99.838L51.905-100
				l0.111,0.162c0.114,0.167,11.418,16.81,22.574,42.271c10.299,23.498,22.571,59.533,22.571,97.75c0,1.339-0.015,2.691-0.043,4.019
				l-2.94,131.214c-0.127,5.652-2.074,11.109-5.343,14.979c-3.158,3.734-7.28,5.791-11.614,5.791H27.153
				c-4.024,0-7.932-1.811-10.995-5.098l-0.571-0.615c-3.652-3.914-5.827-9.625-5.963-15.67L6.698,44.201
				C6.668,42.872,6.653,41.521,6.653,40.184z M51.905-99.521c-1.201,1.796-11.885,17.982-22.437,42.069
				C19.184-33.978,6.923,2.021,6.921,40.184c0,1.336,0.017,2.687,0.046,4.014l2.926,130.6c0.135,5.98,2.282,11.627,5.892,15.494
				l0.571,0.613c3.014,3.232,6.849,5.014,10.799,5.014h50.066c4.25,0,8.303-2.023,11.407-5.699c3.231-3.82,5.154-9.215,5.279-14.809
				l2.94-131.214c0.03-1.327,0.045-2.675,0.045-4.014c0-38.169-12.264-74.166-22.549-97.644
				C63.791-81.542,53.108-97.725,51.905-99.521z"/>
		</g>
		
			<linearGradient id="SVGID_2_" gradientUnits="userSpaceOnUse" x1="-497.3511" y1="-406.3262" x2="-414.3325" y2="-406.3262" gradientTransform="matrix(1 0 0 -1 507.75 -358.1797)">
			<stop  offset="0" style="stop-color:#FFFFFF"/>
			<stop  offset="1" style="stop-color:#707070"/>
		</linearGradient>
		<path fill="url(#SVGID_2_)" d="M51.905-87.924c0,0-43.021,62.947-41.465,132.438l2.691,120.154
			c0.122,5.537,2.104,10.746,5.451,14.334l0.527,0.566c2.799,3.002,6.351,4.648,10.026,4.648h46.06
			c3.934,0,7.724-1.889,10.591-5.287l0,0c3.008-3.561,4.771-8.49,4.883-13.697l2.707-120.721
			C94.932-24.977,51.905-87.924,51.905-87.924z"/>
		<path fill="#A7A9AC" d="M51.905-52.481c-5.883,0-37.144,38.267-35.797,104.183l2.32,113.971c0.109,5.252,1.817,10.197,4.708,13.6
			l0.455,0.535c2.418,2.848,5.482,4.41,8.656,4.41h39.767c3.396,0,6.663-1.791,9.144-5.01l0,0c2.598-3.381,4.12-8.061,4.22-12.994
			L87.71,51.701C89.051-14.215,57.792-52.481,51.905-52.481z"/>
		<g>
			<g>
				<g>
					<g>
						<g>
							<g opacity="0.5">
								<rect x="25.069" y="5.462" width="2.322" height="28.516"/>
							</g>
							<g>
								
									<linearGradient id="SVGID_3_" gradientUnits="userSpaceOnUse" x1="-480.6812" y1="-375.8994" x2="-478.3589" y2="-375.8994" gradientTransform="matrix(1 0 0 -1 507.75 -358.1797)">
									<stop  offset="0" style="stop-color:#707070"/>
									<stop  offset="1" style="stop-color:#F1F2F2"/>
								</linearGradient>
								<rect x="27.069" y="3.462" fill="url(#SVGID_3_)" width="2.322" height="28.516"/>
							</g>
						</g>
						<path fill="#939599" d="M27.024,32.023V3.414h2.412v28.609H27.024z M27.115,3.509V31.93h2.229V3.509H27.115z"/>
					</g>
					<g>
						<g>
							<g opacity="0.5">
								<rect x="31.748" y="5.462" width="2.328" height="28.516"/>
							</g>
							<g>
								
									<linearGradient id="SVGID_4_" gradientUnits="userSpaceOnUse" x1="-474.0024" y1="-375.8994" x2="-471.6743" y2="-375.8994" gradientTransform="matrix(1 0 0 -1 507.75 -358.1797)">
									<stop  offset="0" style="stop-color:#707070"/>
									<stop  offset="1" style="stop-color:#F1F2F2"/>
								</linearGradient>
								<rect x="33.748" y="3.462" fill="url(#SVGID_4_)" width="2.328" height="28.516"/>
							</g>
						</g>
						<path fill="#939599" d="M33.704,32.023V3.414h2.418v28.609H33.704z M33.794,3.509V31.93h2.235V3.509H33.794z"/>
					</g>
					<g>
						<g>
							<g opacity="0.5">
								<path d="M36.835,57.367H22.309c-2.877,0-5.229-2.354-5.229-5.229V36.882c0-2.873,2.352-5.229,5.229-5.229h14.526
									c2.877,0,5.229,2.354,5.229,5.229v15.257C42.063,55.016,39.712,57.367,36.835,57.367z"/>
							</g>
							<g>
								
									<linearGradient id="SVGID_5_" gradientUnits="userSpaceOnUse" x1="-488.6694" y1="-400.6899" x2="-463.6851" y2="-400.6899" gradientTransform="matrix(1 0 0 -1 507.75 -358.1797)">
									<stop  offset="0" style="stop-color:#707070"/>
									<stop  offset="1" style="stop-color:#BCBEC0"/>
								</linearGradient>
								<path fill="url(#SVGID_5_)" d="M38.835,55.367H24.309c-2.877,0-5.229-2.354-5.229-5.229V34.882
									c0-2.873,2.352-5.229,5.229-5.229h14.526c2.877,0,5.229,2.354,5.229,5.229v15.257
									C44.063,53.016,41.712,55.367,38.835,55.367z"/>
							</g>
						</g>
						<path fill="#939599" d="M19.035,50.14V34.883c0-2.908,2.366-5.274,5.274-5.274h14.526c2.909,0,5.274,2.366,5.274,5.274V50.14
							c0,2.909-2.365,5.276-5.274,5.276H24.309C21.401,55.416,19.035,53.049,19.035,50.14z M44.02,34.883
							c0-2.855-2.324-5.182-5.185-5.182H24.309c-2.858,0-5.184,2.325-5.184,5.182V50.14c0,2.856,2.324,5.181,5.184,5.181h14.526
							c2.858,0,5.185-2.324,5.185-5.181V34.883z"/>
					</g>
					<g>
						
							<linearGradient id="SVGID_6_" gradientUnits="userSpaceOnUse" x1="-487.0356" y1="-400.6899" x2="-465.3198" y2="-400.6899" gradientTransform="matrix(1 0 0 -1 507.75 -358.1797)">
							<stop  offset="0" style="stop-color:#BCBEC0"/>
							<stop  offset="1" style="stop-color:#707070"/>
						</linearGradient>
						<path fill="url(#SVGID_6_)" d="M37.885,53.682H25.259c-2.498,0-4.545-2.043-4.545-4.543V35.881
							c0-2.498,2.047-4.542,4.545-4.542h12.626c2.498,0,4.545,2.044,4.545,4.542v13.258C42.43,51.639,40.383,53.682,37.885,53.682z"
							/>
						<path fill="#939599" d="M20.67,49.139V35.881c0-2.527,2.059-4.588,4.589-4.588h12.626c2.531,0,4.59,2.061,4.59,4.588v13.258
							c0,2.531-2.059,4.592-4.59,4.592H25.259C22.729,53.729,20.67,51.67,20.67,49.139z M42.383,35.881
							c0-2.479-2.018-4.494-4.498-4.494H25.259c-2.479,0-4.498,2.017-4.498,4.494v13.258c0,2.482,2.019,4.498,4.498,4.498h12.626
							c2.48,0,4.498-2.016,4.498-4.498V35.881z"/>
					</g>
				</g>
			</g>
			<g>
				<g>
					<g>
						<path fill="#010202" d="M27.916,46.487h-3.89c-0.77,0-1.396-0.628-1.396-1.396v-4.084c0-0.77,0.628-1.4,1.396-1.4h3.89
							c0.771,0,1.401,0.632,1.401,1.4v4.084C29.317,45.859,28.686,46.487,27.916,46.487z"/>
					</g>
					<path fill="#595A5C" d="M27.916,46.487h-3.89c-0.77,0-1.396-0.628-1.396-1.396v-4.084c0-0.77,0.628-1.4,1.396-1.4h3.89
						c0.771,0,1.401,0.632,1.401,1.4v4.084C29.317,45.859,28.686,46.487,27.916,46.487z"/>
				</g>
				<g>
					<g>
						<path fill="#010202" d="M38.576,46.487h-3.884c-0.771,0-1.401-0.628-1.401-1.396v-4.084c0-0.77,0.631-1.4,1.401-1.4h3.884
							c0.772,0,1.401,0.632,1.401,1.4v4.084C39.979,45.859,39.35,46.487,38.576,46.487z"/>
					</g>
					<path fill="#595A5C" d="M38.576,46.487h-3.884c-0.771,0-1.401-0.628-1.401-1.396v-4.084c0-0.77,0.631-1.4,1.401-1.4h3.884
						c0.772,0,1.401,0.632,1.401,1.4v4.084C39.979,45.859,39.35,46.487,38.576,46.487z"/>
				</g>
			</g>
		</g>
		<g>
			<g>
				<g>
					<g>
						<g>
							<g opacity="0.5">
								<rect x="66.436" y="4.489" width="2.32" height="28.517"/>
							</g>
							<g>
								
									<linearGradient id="SVGID_7_" gradientUnits="userSpaceOnUse" x1="-439.314" y1="-374.9272" x2="-436.9937" y2="-374.9272" gradientTransform="matrix(1 0 0 -1 507.75 -358.1797)">
									<stop  offset="0" style="stop-color:#707070"/>
									<stop  offset="1" style="stop-color:#F1F2F2"/>
								</linearGradient>
								<rect x="68.436" y="2.489" fill="url(#SVGID_7_)" width="2.32" height="28.517"/>
							</g>
						</g>
						<path fill="#939599" d="M68.391,31.054V2.442h2.411v28.611H68.391z M68.481,2.535v28.424h2.23V2.535H68.481z"/>
					</g>
					<g>
						<g>
							<g opacity="0.5">
								<rect x="73.118" y="4.489" width="2.324" height="28.517"/>
							</g>
							<g>
								
									<linearGradient id="SVGID_8_" gradientUnits="userSpaceOnUse" x1="-432.6323" y1="-374.9272" x2="-430.3081" y2="-374.9272" gradientTransform="matrix(1 0 0 -1 507.75 -358.1797)">
									<stop  offset="0" style="stop-color:#707070"/>
									<stop  offset="1" style="stop-color:#F1F2F2"/>
								</linearGradient>
								<rect x="75.118" y="2.489" fill="url(#SVGID_8_)" width="2.324" height="28.517"/>
							</g>
						</g>
						<path fill="#939599" d="M75.071,31.054V2.442h2.418v28.611H75.071z M75.164,2.535v28.424h2.233V2.535H75.164z"/>
					</g>
					<g>
						<g>
							<g opacity="0.5">
								<path d="M78.204,56.396H63.672c-2.874,0-5.227-2.354-5.227-5.232V35.912c0-2.879,2.353-5.23,5.227-5.23h14.531
									c2.875,0,5.229,2.353,5.229,5.23v15.252C83.432,54.043,81.079,56.396,78.204,56.396z"/>
							</g>
							<g>
								
									<linearGradient id="SVGID_9_" gradientUnits="userSpaceOnUse" x1="-447.3042" y1="-399.7188" x2="-422.3179" y2="-399.7188" gradientTransform="matrix(1 0 0 -1 507.75 -358.1797)">
									<stop  offset="0" style="stop-color:#707070"/>
									<stop  offset="1" style="stop-color:#BCBEC0"/>
								</linearGradient>
								<path fill="url(#SVGID_9_)" d="M80.204,54.396H65.672c-2.874,0-5.227-2.354-5.227-5.233V33.912
									c0-2.879,2.353-5.23,5.227-5.23h14.531c2.875,0,5.229,2.353,5.229,5.23v15.251C85.432,52.043,83.079,54.396,80.204,54.396z"
									/>
							</g>
						</g>
						<path fill="#939599" d="M60.401,49.163V33.912c0-2.909,2.365-5.277,5.271-5.277h14.531c2.906,0,5.273,2.368,5.273,5.277
							v15.251c0,2.913-2.367,5.28-5.273,5.28H65.672C62.766,54.443,60.401,52.076,60.401,49.163z M85.385,33.912
							c0-2.858-2.324-5.184-5.183-5.184H65.671c-2.854,0-5.18,2.323-5.18,5.184v15.251c0,2.858,2.325,5.187,5.18,5.187h14.532
							c2.857,0,5.183-2.328,5.183-5.187L85.385,33.912L85.385,33.912z"/>
					</g>
					<g>
						
							<linearGradient id="SVGID_10_" gradientUnits="userSpaceOnUse" x1="-445.6704" y1="-399.7173" x2="-423.9556" y2="-399.7173" gradientTransform="matrix(1 0 0 -1 507.75 -358.1797)">
							<stop  offset="0" style="stop-color:#BCBEC0"/>
							<stop  offset="1" style="stop-color:#707070"/>
						</linearGradient>
						<path fill="url(#SVGID_10_)" d="M79.25,52.709H66.626c-2.502,0-4.547-2.047-4.547-4.545V34.91
							c0-2.498,2.045-4.544,4.547-4.544H79.25c2.498,0,4.544,2.046,4.544,4.544v13.254C83.794,50.662,81.75,52.709,79.25,52.709z"/>
						<path fill="#939599" d="M62.037,48.164V34.91c0-2.531,2.06-4.591,4.591-4.591H79.25c2.531,0,4.591,2.06,4.591,4.591v13.254
							c0,2.531-2.06,4.594-4.591,4.594H66.626C64.094,52.758,62.037,50.695,62.037,48.164z M83.75,34.91
							c0-2.48-2.02-4.497-4.5-4.497H66.626c-2.481,0-4.5,2.017-4.5,4.497v13.254c0,2.482,2.019,4.498,4.5,4.498H79.25
							c2.48,0,4.5-2.016,4.5-4.498V34.91z"/>
					</g>
				</g>
			</g>
			<g>
				<g>
					<g>
						<path fill="#010202" d="M69.284,45.518h-3.887c-0.772,0-1.401-0.629-1.401-1.4v-4.082c0-0.771,0.629-1.396,1.401-1.396h3.887
							c0.77,0,1.398,0.626,1.398,1.396v4.082C70.682,44.889,70.052,45.518,69.284,45.518z"/>
					</g>
					<path fill="#595A5C" d="M69.284,45.518h-3.887c-0.772,0-1.401-0.629-1.401-1.4v-4.082c0-0.771,0.629-1.396,1.401-1.396h3.887
						c0.77,0,1.398,0.626,1.398,1.396v4.082C70.682,44.889,70.052,45.518,69.284,45.518z"/>
				</g>
				<g>
					<g>
						<path fill="#010202" d="M79.946,45.518h-3.889c-0.769,0-1.399-0.629-1.399-1.4v-4.082c0-0.771,0.632-1.396,1.399-1.396h3.889
							c0.771,0,1.397,0.626,1.397,1.396v4.082C81.343,44.889,80.715,45.518,79.946,45.518z"/>
					</g>
					<path fill="#595A5C" d="M79.946,45.518h-3.889c-0.769,0-1.399-0.629-1.399-1.4v-4.082c0-0.771,0.632-1.396,1.399-1.396h3.889
						c0.771,0,1.397,0.626,1.397,1.396v4.082C81.343,44.889,80.715,45.518,79.946,45.518z"/>
				</g>
			</g>
		</g>
		<g>
			<g>
				<g>
					<g>
						<g>
							<g opacity="0.5">
								<rect x="52.653" y="162.658" width="2.324" height="28.518"/>
							</g>
							<g>
								
									<linearGradient id="SVGID_11_" gradientUnits="userSpaceOnUse" x1="-175.2163" y1="-2521.4468" x2="-172.8921" y2="-2521.4468" gradientTransform="matrix(-1 0 0 1 -118.2393 2696.3638)">
									<stop  offset="0" style="stop-color:#707070"/>
									<stop  offset="1" style="stop-color:#F1F2F2"/>
								</linearGradient>
								<rect x="54.653" y="160.658" fill="url(#SVGID_11_)" width="2.324" height="28.518"/>
							</g>
						</g>
						<path fill="#939599" d="M54.606,189.223v-28.613h2.416v28.613H54.606z M54.698,160.705v28.424h2.234v-28.424H54.698z"/>
					</g>
					<g>
						<g>
							<g opacity="0.5">
								<rect x="45.967" y="162.658" width="2.328" height="28.518"/>
							</g>
							<g>
								
									<linearGradient id="SVGID_12_" gradientUnits="userSpaceOnUse" x1="-168.5337" y1="-2521.4468" x2="-166.2056" y2="-2521.4468" gradientTransform="matrix(-1 0 0 1 -118.2393 2696.3638)">
									<stop  offset="0" style="stop-color:#707070"/>
									<stop  offset="1" style="stop-color:#F1F2F2"/>
								</linearGradient>
								<rect x="47.966" y="160.658" fill="url(#SVGID_12_)" width="2.328" height="28.518"/>
							</g>
						</g>
						<path fill="#939599" d="M47.92,189.223v-28.613h2.421v28.613H47.92z M48.014,160.705v28.424h2.234v-28.424H48.014z"/>
					</g>
					<g>
						<g>
							<g opacity="0.5">
								<path d="M43.209,139.268h14.525c2.877,0,5.231,2.354,5.231,5.232v15.254c0,2.877-2.354,5.227-5.231,5.227H43.209
									c-2.877,0-5.23-2.35-5.23-5.227V144.5C37.979,141.621,40.333,139.268,43.209,139.268z"/>
							</g>
							<g>
								
									<linearGradient id="SVGID_13_" gradientUnits="userSpaceOnUse" x1="-183.2056" y1="-2546.2397" x2="-158.2183" y2="-2546.2397" gradientTransform="matrix(-1 0 0 1 -118.2393 2696.3638)">
									<stop  offset="0" style="stop-color:#707070"/>
									<stop  offset="1" style="stop-color:#BCBEC0"/>
								</linearGradient>
								<path fill="url(#SVGID_13_)" d="M45.209,137.268h14.525c2.877,0,5.231,2.354,5.231,5.232v15.254
									c0,2.877-2.354,5.227-5.231,5.227H45.209c-2.877,0-5.23-2.35-5.23-5.227V142.5
									C39.979,139.621,42.333,137.268,45.209,137.268z"/>
							</g>
						</g>
						<path fill="#939599" d="M39.932,157.754V142.5c0-2.91,2.368-5.279,5.277-5.279h14.525c2.908,0,5.276,2.369,5.276,5.279v15.254
							c0,2.906-2.368,5.273-5.276,5.273H45.209C42.3,163.027,39.932,160.66,39.932,157.754z M64.92,142.5
							c0-2.857-2.327-5.186-5.188-5.186H45.208c-2.858,0-5.187,2.326-5.187,5.186v15.254c0,2.855,2.326,5.18,5.187,5.18h14.526
							c2.858,0,5.187-2.324,5.187-5.18L64.92,142.5L64.92,142.5z"/>
					</g>
					<g>
						
							<linearGradient id="SVGID_14_" gradientUnits="userSpaceOnUse" x1="-181.5679" y1="-2546.2378" x2="-159.854" y2="-2546.2378" gradientTransform="matrix(-1 0 0 1 -118.2393 2696.3638)">
							<stop  offset="0" style="stop-color:#BCBEC0"/>
							<stop  offset="1" style="stop-color:#707070"/>
						</linearGradient>
						<path fill="url(#SVGID_14_)" d="M46.16,138.955h12.624c2.499,0,4.545,2.047,4.545,4.545v13.254
							c0,2.498-2.046,4.543-4.545,4.543H46.16c-2.496,0-4.545-2.045-4.545-4.543V143.5C41.615,141.002,43.664,138.955,46.16,138.955
							z"/>
						<path fill="#939599" d="M41.571,156.754V143.5c0-2.533,2.059-4.592,4.589-4.592h12.624c2.531,0,4.59,2.059,4.59,4.592v13.254
							c0,2.531-2.059,4.592-4.59,4.592H46.16C43.629,161.346,41.571,159.285,41.571,156.754z M63.284,143.5
							c0-2.482-2.02-4.498-4.5-4.498H46.16c-2.479,0-4.498,2.016-4.498,4.498v13.254c0,2.48,2.019,4.496,4.498,4.496h12.624
							c2.48,0,4.5-2.016,4.5-4.496V143.5z"/>
					</g>
				</g>
			</g>
			<g>
				<g>
					<g>
						<path fill="#010202" d="M56.127,146.146h3.889c0.77,0,1.4,0.631,1.4,1.4v4.082c0,0.77-0.632,1.396-1.4,1.396h-3.889
							c-0.77,0-1.398-0.629-1.398-1.396v-4.082C54.729,146.777,55.358,146.146,56.127,146.146z"/>
					</g>
					<path fill="#595A5C" d="M56.127,146.146h3.889c0.77,0,1.4,0.631,1.4,1.4v4.082c0,0.77-0.632,1.396-1.4,1.396h-3.889
						c-0.77,0-1.398-0.629-1.398-1.396v-4.082C54.729,146.777,55.358,146.146,56.127,146.146z"/>
				</g>
				<g>
					<g>
						<path fill="#010202" d="M45.466,146.146h3.886c0.77,0,1.399,0.631,1.399,1.4v4.082c0,0.77-0.631,1.396-1.399,1.396h-3.886
							c-0.771,0-1.401-0.629-1.401-1.396v-4.082C44.063,146.777,44.696,146.146,45.466,146.146z"/>
					</g>
					<path fill="#595A5C" d="M45.466,146.146h3.886c0.77,0,1.399,0.631,1.399,1.4v4.082c0,0.77-0.631,1.396-1.399,1.396h-3.886
						c-0.771,0-1.401-0.629-1.401-1.396v-4.082C44.063,146.777,44.696,146.146,45.466,146.146z"/>
				</g>
			</g>
		</g>
		<g>
			<g>
				<path fill="#A7A9AC" d="M45.696-54.617L45.696-54.617c-1.883,0-3.424-1.542-3.424-3.422v-7.951c0-1.88,1.541-3.419,3.424-3.419
					l0,0c1.88,0,3.416,1.539,3.416,3.419v7.951C49.112-56.158,47.576-54.617,45.696-54.617z"/>
				<g>
					<g opacity="0.5">
						<path d="M43.786-61.143c0,0.436-0.236,0.889-0.729,1.376c-0.473,0.475-0.734,1.103-0.734,1.775c0,1.386,1.127,2.51,2.514,2.51
							c1.382,0,2.51-1.124,2.51-2.51c0-0.673-0.264-1.301-0.736-1.775c-0.49-0.488-0.729-0.941-0.729-1.376
							c0-0.438,0.237-0.887,0.729-1.379c0.474-0.475,0.736-1.104,0.736-1.775c0-1.385-1.128-2.51-2.51-2.51
							c-1.387,0-2.514,1.125-2.514,2.51c0,0.672,0.263,1.301,0.734,1.775C43.549-62.029,43.786-61.581,43.786-61.143z"/>
					</g>
					<g>
						<g>
							<g>
								<path fill="#E6E7E9" d="M44.786-62.143c0,0.436-0.236,0.889-0.729,1.376c-0.473,0.475-0.734,1.103-0.734,1.775
									c0,1.386,1.127,2.51,2.514,2.51c1.382,0,2.51-1.124,2.51-2.51c0-0.673-0.264-1.301-0.736-1.775
									c-0.49-0.488-0.729-0.941-0.729-1.376c0-0.438,0.237-0.887,0.729-1.379c0.474-0.475,0.736-1.104,0.736-1.775
									c0-1.385-1.128-2.51-2.51-2.51c-1.387,0-2.514,1.125-2.514,2.51c0,0.672,0.263,1.301,0.734,1.775
									C44.549-63.029,44.786-62.581,44.786-62.143z"/>
							</g>
						</g>
					</g>
				</g>
			</g>
			<g>
				<path fill="#A7A9AC" d="M58.123-54.749L58.123-54.749c-1.882,0-3.417-1.539-3.417-3.42v-7.953c0-1.881,1.535-3.42,3.417-3.42
					l0,0c1.883,0,3.422,1.54,3.422,3.42v7.953C61.543-56.288,60.004-54.749,58.123-54.749z"/>
				<g>
					<g opacity="0.5">
						<path d="M54.669-58.12c0-0.688,0.271-1.339,0.763-1.836c0.473-0.471,0.7-0.9,0.7-1.317c0-0.414-0.229-0.846-0.7-1.316
							c-0.492-0.494-0.763-1.145-0.763-1.837c0-1.429,1.162-2.591,2.593-2.591c1.432,0,2.596,1.163,2.596,2.591
							c0,0.698-0.271,1.349-0.76,1.837c-0.473,0.471-0.701,0.902-0.701,1.316c0,0.417,0.229,0.847,0.701,1.317
							c0.489,0.491,0.76,1.142,0.76,1.836c0,1.43-1.164,2.593-2.596,2.593C55.832-55.527,54.669-56.69,54.669-58.12z"/>
					</g>
					<g>
						<g>
							<g>
								<path fill="#E6E7E9" d="M55.669-59.12c0-0.688,0.271-1.339,0.763-1.836c0.473-0.471,0.7-0.9,0.7-1.317
									c0-0.414-0.229-0.846-0.7-1.316c-0.492-0.494-0.763-1.145-0.763-1.837c0-1.429,1.162-2.591,2.593-2.591
									c1.432,0,2.596,1.163,2.596,2.591c0,0.698-0.271,1.349-0.76,1.837c-0.473,0.471-0.701,0.902-0.701,1.316
									c0,0.417,0.229,0.847,0.701,1.317c0.489,0.491,0.76,1.142,0.76,1.836c0,1.43-1.164,2.593-2.596,2.593
									C56.832-56.527,55.669-57.69,55.669-59.12z"/>
							</g>
						</g>
					</g>
				</g>
			</g>
		</g>
		<g>
			<g>
				<path fill="#010202" d="M53.625,56.82c-15.417,0-28.484,12.631-33.085,30.135l10.058,41.348h46.061L86.71,86.955
					C82.112,69.451,69.042,56.82,53.625,56.82z"/>
			</g>
			<g>
				<g opacity="0.5">
					<path d="M51.625,58.82c-15.417,0-28.484,12.631-33.085,30.135l10.058,41.348h46.061L84.71,88.955
						C80.112,71.451,67.042,58.82,51.625,58.82z"/>
				</g>
				<g>
					<path fill="#808386" d="M53.625,56.82c-15.417,0-28.484,12.631-33.085,30.135l10.058,41.348h46.061L86.71,86.955
						C82.112,69.451,69.042,56.82,53.625,56.82z"/>
				</g>
			</g>
		</g>
		<g>
			<g>
				<g>
					<path fill="#231F20" d="M65.583,113.82H40.516c-2.227,0-4.033-3.816-4.033-8.527V79.955c0-4.709,1.808-8.527,4.033-8.527
						h25.067c2.226,0,4.032,3.818,4.032,8.527v25.338C69.617,110.004,67.809,113.82,65.583,113.82z"/>
				</g>
			</g>
			<g>
				<g opacity="0.5">
					<path d="M63.583,115.82H38.516c-2.227,0-4.033-3.816-4.033-8.527V81.955c0-4.709,1.808-8.527,4.033-8.527h25.067
						c2.226,0,4.032,3.818,4.032,8.527v25.338C67.617,112.004,65.809,115.82,63.583,115.82z"/>
				</g>
				<g>
					<path fill="#5F5F5E" d="M65.583,113.82H40.516c-2.227,0-4.033-3.816-4.033-8.527V79.955c0-4.709,1.808-8.527,4.033-8.527
						h25.067c2.226,0,4.032,3.818,4.032,8.527v25.338C69.617,110.004,67.809,113.82,65.583,113.82z"/>
				</g>
			</g>
		</g>
	</g>
	<g>
		<g opacity="0.5">
			<rect x="45.342" y="-48.618" width="2.322" height="28.52"/>
		</g>
		<g>
			
				<linearGradient id="SVGID_15_" gradientUnits="userSpaceOnUse" x1="-460.4077" y1="-321.8213" x2="-458.0854" y2="-321.8213" gradientTransform="matrix(1 0 0 -1 507.75 -358.1797)">
				<stop  offset="0" style="stop-color:#707070"/>
				<stop  offset="1" style="stop-color:#F1F2F2"/>
			</linearGradient>
			<rect x="47.342" y="-50.618" fill="url(#SVGID_15_)" width="2.322" height="28.52"/>
		</g>
	</g>
	<g>
		<g opacity="0.5">
			<rect x="52.024" y="-48.618" width="2.326" height="28.52"/>
		</g>
		<g>
			
				<linearGradient id="SVGID_16_" gradientUnits="userSpaceOnUse" x1="-453.7261" y1="-321.8213" x2="-451.3999" y2="-321.8213" gradientTransform="matrix(1 0 0 -1 507.75 -358.1797)">
				<stop  offset="0" style="stop-color:#707070"/>
				<stop  offset="1" style="stop-color:#F1F2F2"/>
			</linearGradient>
			<rect x="54.024" y="-50.618" fill="url(#SVGID_16_)" width="2.326" height="28.52"/>
		</g>
	</g>
	<g>
		<g opacity="0.5">
			<path d="M57.112,3.29H42.579c-2.873,0-5.227-2.354-5.227-5.233v-15.25c0-2.88,2.354-5.231,5.227-5.231h14.533
				c2.875,0,5.228,2.354,5.228,5.231v15.25C62.338,0.937,59.987,3.29,57.112,3.29z"/>
		</g>
		<g>
			
				<linearGradient id="SVGID_17_" gradientUnits="userSpaceOnUse" x1="-468.3979" y1="-346.6123" x2="-443.4106" y2="-346.6123" gradientTransform="matrix(1 0 0 -1 507.75 -358.1797)">
				<stop  offset="0" style="stop-color:#707070"/>
				<stop  offset="1" style="stop-color:#BCBEC0"/>
			</linearGradient>
			<path fill="url(#SVGID_17_)" d="M59.112,1.29H44.579c-2.873,0-5.227-2.354-5.227-5.233v-15.25c0-2.88,2.354-5.231,5.227-5.231
				h14.533c2.875,0,5.228,2.354,5.228,5.231v15.25C64.338-1.063,61.987,1.29,59.112,1.29z"/>
		</g>
	</g>
	
		<linearGradient id="SVGID_18_" gradientUnits="userSpaceOnUse" x1="-466.7612" y1="-346.6118" x2="-445.0464" y2="-346.6118" gradientTransform="matrix(1 0 0 -1 507.75 -358.1797)">
		<stop  offset="0" style="stop-color:#BCBEC0"/>
		<stop  offset="1" style="stop-color:#707070"/>
	</linearGradient>
	<path fill="url(#SVGID_18_)" d="M58.159-0.396H45.534c-2.501,0-4.545-2.047-4.545-4.546v-13.254c0-2.499,2.044-4.545,4.545-4.545
		h12.625c2.499,0,4.545,2.047,4.545,4.545v13.253C62.704-2.442,60.658-0.396,58.159-0.396z"/>
	<path fill="#595A5C" d="M48.188-7.59h-3.886c-0.772,0-1.401-0.629-1.401-1.4v-4.083c0-0.771,0.629-1.396,1.401-1.396h3.886
		c0.771,0,1.402,0.626,1.402,1.396v4.083C49.59-8.219,48.958-7.59,48.188-7.59z"/>
	<path fill="#595A5C" d="M58.854-7.59h-3.89c-0.771,0-1.399-0.629-1.399-1.4v-4.083c0-0.771,0.631-1.396,1.399-1.396h3.89
		c0.769,0,1.398,0.626,1.398,1.396v4.083C60.252-8.219,59.623-7.59,58.854-7.59z"/>
</g>
</svg>
