<?xml version="1.0" encoding="utf-8"?>
<!-- Generator: Adobe Illustrator 15.1.0, SVG Export Plug-In . SVG Version: 6.00 Build 0)  -->
<!DOCTYPE svg PUBLIC "-//W3C//DTD SVG 1.1//EN" "http://www.w3.org/Graphics/SVG/1.1/DTD/svg11.dtd">
<svg version="1.1" id="Layer_1" xmlns="http://www.w3.org/2000/svg" x="0px" y="0px"
	 width="100px" height="200px" viewBox="0 -50 100 200" enable-background="new 0 -50 100 200" xml:space="preserve">
<g>
	<g>
		<g>
			<path fill="#010202" d="M51.587-49.858c0,0-39.221,45.475-37.801,95.679l2.45,86.797c0.111,4.004,1.918,7.768,4.972,10.355
				l0.479,0.41c2.553,2.17,5.787,3.355,9.141,3.355h41.982c3.59,0,7.041-1.363,9.657-3.814l0,0c2.739-2.574,4.347-6.135,4.451-9.896
				l2.463-87.208C90.801-4.385,51.587-49.858,51.587-49.858z"/>
		</g>
	</g>
	<g>
		<g>
			<g opacity="0.5">
				<path d="M48.325-46.598c0,0-39.22,45.475-37.802,95.678l2.453,86.797c0.109,4.004,1.916,7.768,4.971,10.357l0.479,0.408
					c2.553,2.17,5.787,3.357,9.141,3.357h41.98c3.59,0,7.041-1.365,9.659-3.816l0,0c2.739-2.574,4.346-6.135,4.45-9.896
					l2.465-87.207C87.54-1.123,48.325-46.598,48.325-46.598z"/>
			</g>
			<g>
				
					<linearGradient id="SVGID_1_" gradientUnits="userSpaceOnUse" x1="-4.3218" y1="-287.4243" x2="71.3491" y2="-287.4243" gradientTransform="matrix(1 0 0 -1 18.0703 -238.9844)">
					<stop  offset="0" style="stop-color:#707070"/>
					<stop  offset="1" style="stop-color:#FFFFFF"/>
				</linearGradient>
				<path fill="url(#SVGID_1_)" d="M51.587-49.858c0,0-39.221,45.475-37.801,95.679l2.45,86.797
					c0.111,4.004,1.918,7.768,4.972,10.355l0.479,0.41c2.553,2.17,5.787,3.355,9.141,3.355h41.982c3.59,0,7.041-1.363,9.657-3.814
					l0,0c2.739-2.574,4.347-6.135,4.451-9.896l2.463-87.208C90.801-4.385,51.587-49.858,51.587-49.858z"/>
			</g>
		</g>
		<path fill="#A7A9AC" d="M13.654,43.157c0-0.002,0-0.008,0-0.011c0-11.216,1.994-23.089,5.919-35.285
			c3.143-9.758,7.521-19.746,13.016-29.687c9.354-16.923,18.834-27.983,18.929-28.095L51.587-50l0.069,0.08
			c0.094,0.111,9.572,11.172,18.928,28.093c5.494,9.94,9.871,19.929,13.012,29.688c3.926,12.198,5.918,24.071,5.918,35.287
			c0,0.893-0.015,1.792-0.039,2.676l-2.464,87.208c-0.104,3.752-1.737,7.383-4.479,9.959c-2.646,2.477-6.097,3.842-9.722,3.842
			H30.829c-3.372,0-6.638-1.199-9.2-3.381l-0.48-0.408c-3.067-2.602-4.891-6.4-5.002-10.424l-2.451-86.796
			C13.67,44.929,13.654,44.056,13.654,43.157z M51.587-49.718c-0.884,1.04-9.916,11.845-18.84,27.987
			C24.124-6.13,13.841,17.788,13.841,43.146c0,0.003,0,0.006,0,0.009c0,0.895,0.011,1.767,0.036,2.662l2.452,86.794
			c0.11,3.973,1.91,7.723,4.938,10.291l0.48,0.41c2.527,2.15,5.751,3.336,9.079,3.336h41.983c3.578,0,6.984-1.35,9.596-3.793
			c2.708-2.543,4.318-6.127,4.423-9.832l2.461-87.206c0.026-0.881,0.037-1.781,0.037-2.671c0-25.358-10.279-49.278-18.903-64.88
			C61.502-37.875,52.471-48.678,51.587-49.718z"/>
	</g>
	
		<linearGradient id="SVGID_2_" gradientUnits="userSpaceOnUse" x1="-1.2983" y1="-287.4253" x2="68.3218" y2="-287.4253" gradientTransform="matrix(1 0 0 -1 18.0703 -238.9844)">
		<stop  offset="0" style="stop-color:#FFFFFF"/>
		<stop  offset="1" style="stop-color:#707070"/>
	</linearGradient>
	<path fill="url(#SVGID_2_)" d="M51.587-41.995c0,0-36.084,41.838-34.78,88.022l2.26,79.855c0.104,3.678,1.768,7.145,4.572,9.527
		l0.44,0.377c2.348,1.99,5.33,3.09,8.41,3.09h38.625c3.297,0,6.473-1.256,8.88-3.512l0,0c2.523-2.369,4.004-5.646,4.098-9.104
		l2.266-80.235C87.665-0.157,51.587-41.995,51.587-41.995z"/>
	<path fill="#A7A9AC" d="M51.587-18.437c-4.938,0-31.151,25.434-30.024,69.239l1.942,75.748c0.095,3.49,1.529,6.777,3.954,9.037
		l0.376,0.355c2.032,1.893,4.601,2.934,7.263,2.934h33.35c2.85,0,5.589-1.189,7.666-3.336l0,0c2.181-2.24,3.457-5.354,3.533-8.633
		l1.961-76.105C82.732,6.997,56.52-18.437,51.587-18.437z"/>
	<g>
		<g>
			<path fill="#010202" d="M52.968,42.619c-12.929,0-23.885,8.395-27.745,20.027l8.434,27.479h38.628l8.428-27.479
				C76.855,51.014,65.896,42.619,52.968,42.619z"/>
		</g>
		<g>
			<g opacity="0.5">
				<path d="M51.968,43.619c-12.929,0-23.885,8.395-27.745,20.027l8.434,27.479h38.628l8.428-27.479
					C75.855,52.014,64.896,43.619,51.968,43.619z"/>
			</g>
			<g>
				<path fill="#808386" d="M52.968,42.619c-12.929,0-23.885,8.395-27.745,20.027l8.434,27.479h38.628l8.428-27.479
					C76.855,51.014,65.896,42.619,52.968,42.619z"/>
			</g>
		</g>
	</g>
	<g>
		<path fill="#808386" d="M75.477,131.244L75.477,131.244c-2.06,0-3.748-1.689-3.748-3.75v-8.713c0-2.062,1.688-3.746,3.748-3.746
			l0,0c2.062,0,3.744,1.686,3.744,3.746v8.713C79.221,129.555,77.537,131.244,75.477,131.244z"/>
		<g>
			<g>
				<path fill="#010202" d="M77.607,124.473c-1.043-1.043-1.043-1.906,0-2.955c0.509-0.504,0.816-1.203,0.816-1.973
					c0-1.543-1.247-2.795-2.794-2.795c-1.546,0-2.794,1.252-2.794,2.795c0,0.77,0.309,1.469,0.816,1.973
					c1.045,1.049,1.045,1.912,0,2.955c-0.508,0.506-0.816,1.205-0.816,1.979c0,1.541,1.248,2.797,2.794,2.797
					c1.547,0,2.794-1.256,2.794-2.797C78.425,125.678,78.116,124.979,77.607,124.473z"/>
			</g>
			<g>
				<g>
					<g opacity="0.5">
						<path d="M76.607,125.473c-1.043-1.043-1.043-1.906,0-2.955c0.509-0.504,0.816-1.203,0.816-1.973
							c0-1.543-1.247-2.795-2.794-2.795c-1.546,0-2.794,1.252-2.794,2.795c0,0.77,0.309,1.469,0.816,1.973
							c1.045,1.049,1.045,1.912,0,2.955c-0.508,0.506-0.816,1.205-0.816,1.979c0,1.541,1.248,2.797,2.794,2.797
							c1.547,0,2.794-1.256,2.794-2.797C77.425,126.678,77.116,125.979,76.607,125.473z"/>
					</g>
					<g>
						<path fill="#E6E7E9" d="M77.607,124.473c-1.043-1.043-1.043-1.906,0-2.955c0.509-0.504,0.816-1.203,0.816-1.973
							c0-1.543-1.247-2.795-2.794-2.795c-1.546,0-2.794,1.252-2.794,2.795c0,0.77,0.309,1.469,0.816,1.973
							c1.045,1.049,1.045,1.912,0,2.955c-0.508,0.506-0.816,1.205-0.816,1.979c0,1.541,1.248,2.797,2.794,2.797
							c1.547,0,2.794-1.256,2.794-2.797C78.425,125.678,78.116,124.979,77.607,124.473z"/>
					</g>
				</g>
				<path fill="#E6E7E9" d="M72.796,126.449c0-0.762,0.295-1.475,0.828-2.008c0.519-0.516,0.771-0.99,0.771-1.445
					c0-0.453-0.252-0.928-0.771-1.447c-0.533-0.533-0.828-1.246-0.828-2.004c0-1.562,1.272-2.836,2.835-2.836
					s2.836,1.271,2.836,2.836c0,0.758-0.296,1.471-0.828,2.004c-0.519,0.52-0.771,0.994-0.771,1.447
					c0,0.455,0.252,0.932,0.771,1.445c0.532,0.533,0.828,1.246,0.828,2.008c0,1.566-1.271,2.84-2.836,2.84
					C74.068,129.289,72.796,128.016,72.796,126.449z M74.479,122.996c0,0.484-0.254,0.963-0.795,1.508
					c-0.519,0.516-0.807,1.207-0.807,1.945c0,1.52,1.234,2.758,2.753,2.758s2.753-1.238,2.753-2.758c0-0.738-0.285-1.43-0.806-1.945
					c-0.541-0.545-0.795-1.021-0.795-1.508c0-0.482,0.254-0.965,0.795-1.51c0.521-0.516,0.806-1.205,0.806-1.941
					c0-1.52-1.234-2.754-2.753-2.754s-2.753,1.234-2.753,2.754c0,0.736,0.288,1.428,0.807,1.941
					C74.227,122.031,74.479,122.514,74.479,122.996z"/>
			</g>
		</g>
	</g>
	<g>
		<path fill="#A7A9AC" d="M51.493-21.043L51.493-21.043c-2.062,0-3.744-1.685-3.744-3.744v-8.715c0-2.06,1.685-3.743,3.744-3.743
			l0,0c2.063,0,3.75,1.685,3.75,3.743v8.715C55.243-22.728,53.559-21.043,51.493-21.043z"/>
		<g>
			<g>
				<path fill="#010202" d="M53.63-27.811c-1.044-1.041-1.044-1.908,0-2.952c0.503-0.505,0.817-1.203,0.817-1.979
					c0-1.541-1.254-2.795-2.801-2.795c-1.541,0-2.793,1.254-2.793,2.795c0,0.776,0.313,1.476,0.821,1.979
					c1.044,1.044,1.044,1.911,0,2.952c-0.508,0.505-0.821,1.207-0.821,1.979c0,1.541,1.252,2.795,2.793,2.795
					c1.547,0,2.801-1.254,2.801-2.795C54.447-26.604,54.133-27.306,53.63-27.811z"/>
			</g>
			<g>
				<g>
					<g opacity="0.5">
						<path d="M52.63-26.811c-1.044-1.041-1.044-1.908,0-2.952c0.503-0.505,0.817-1.203,0.817-1.979
							c0-1.541-1.254-2.795-2.801-2.795c-1.541,0-2.793,1.254-2.793,2.795c0,0.776,0.313,1.476,0.821,1.979
							c1.044,1.044,1.044,1.911,0,2.952c-0.508,0.505-0.821,1.207-0.821,1.979c0,1.541,1.252,2.795,2.793,2.795
							c1.547,0,2.801-1.254,2.801-2.795C53.447-25.604,53.133-26.306,52.63-26.811z"/>
					</g>
					<g>
						<path fill="#E6E7E9" d="M53.63-27.811c-1.044-1.041-1.044-1.908,0-2.952c0.503-0.505,0.817-1.203,0.817-1.979
							c0-1.541-1.254-2.795-2.801-2.795c-1.541,0-2.793,1.254-2.793,2.795c0,0.776,0.313,1.476,0.821,1.979
							c1.044,1.044,1.044,1.911,0,2.952c-0.508,0.505-0.821,1.207-0.821,1.979c0,1.541,1.252,2.795,2.793,2.795
							c1.547,0,2.801-1.254,2.801-2.795C54.447-26.604,54.133-27.306,53.63-27.811z"/>
					</g>
				</g>
				<path fill="#E6E7E9" d="M48.812-25.831c0-0.76,0.295-1.475,0.833-2.01c0.52-0.517,0.771-0.989,0.771-1.444
					c0-0.456-0.251-0.931-0.771-1.446c-0.539-0.535-0.833-1.25-0.833-2.011c0-1.562,1.272-2.836,2.836-2.836
					c1.565,0,2.842,1.272,2.842,2.836c0,0.757-0.297,1.473-0.828,2.011c-0.52,0.517-0.771,0.99-0.771,1.446
					c0,0.455,0.252,0.929,0.771,1.444c0.531,0.538,0.828,1.254,0.828,2.01c0,1.563-1.275,2.836-2.842,2.836
					C50.085-22.995,48.812-24.268,48.812-25.831z M50.501-29.285c0,0.479-0.262,0.97-0.795,1.506
					c-0.524,0.519-0.812,1.212-0.812,1.948c0,1.52,1.233,2.753,2.752,2.753c1.521,0,2.758-1.233,2.758-2.753
					c0-0.733-0.286-1.428-0.805-1.948c-0.533-0.536-0.797-1.027-0.797-1.506c0-0.478,0.264-0.973,0.797-1.508
					c0.519-0.521,0.805-1.215,0.805-1.949c0-1.519-1.235-2.753-2.758-2.753c-1.519,0-2.752,1.234-2.752,2.753
					c0,0.737,0.287,1.432,0.812,1.949C50.239-30.258,50.501-29.763,50.501-29.285z"/>
			</g>
		</g>
	</g>
	<g>
		<path fill="#808386" d="M28.299,131.244L28.299,131.244c-2.061,0-3.75-1.689-3.75-3.75v-8.713c0-2.062,1.689-3.746,3.75-3.746l0,0
			c2.061,0,3.744,1.686,3.744,3.746v8.713C32.043,129.555,30.357,131.244,28.299,131.244z"/>
		<g>
			<g>
				<path fill="#010202" d="M30.432,124.473c-1.046-1.043-1.046-1.906,0-2.955c0.508-0.504,0.816-1.203,0.816-1.973
					c0-1.543-1.249-2.795-2.795-2.795s-2.794,1.252-2.794,2.795c0,0.77,0.31,1.469,0.817,1.973c1.043,1.049,1.043,1.912,0,2.955
					c-0.509,0.506-0.817,1.205-0.817,1.979c0,1.541,1.248,2.797,2.794,2.797s2.795-1.256,2.795-2.797
					C31.248,125.678,30.938,124.979,30.432,124.473z"/>
			</g>
			<g>
				<g>
					<g opacity="0.5">
						<path d="M29.432,125.473c-1.046-1.043-1.046-1.906,0-2.955c0.508-0.504,0.816-1.203,0.816-1.973
							c0-1.543-1.249-2.795-2.795-2.795s-2.794,1.252-2.794,2.795c0,0.77,0.31,1.469,0.817,1.973c1.043,1.049,1.043,1.912,0,2.955
							c-0.509,0.506-0.817,1.205-0.817,1.979c0,1.541,1.248,2.797,2.794,2.797s2.795-1.256,2.795-2.797
							C30.248,126.678,29.938,125.979,29.432,125.473z"/>
					</g>
					<g>
						<path fill="#E6E7E9" d="M30.432,124.473c-1.046-1.043-1.046-1.906,0-2.955c0.508-0.504,0.816-1.203,0.816-1.973
							c0-1.543-1.249-2.795-2.795-2.795s-2.794,1.252-2.794,2.795c0,0.77,0.31,1.469,0.817,1.973c1.043,1.049,1.043,1.912,0,2.955
							c-0.509,0.506-0.817,1.205-0.817,1.979c0,1.541,1.248,2.797,2.794,2.797s2.795-1.256,2.795-2.797
							C31.248,125.678,30.938,124.979,30.432,124.473z"/>
					</g>
				</g>
				<path fill="#E6E7E9" d="M25.617,126.449c0-0.762,0.296-1.475,0.828-2.008c0.521-0.516,0.771-0.99,0.771-1.445
					c0-0.453-0.25-0.928-0.771-1.447c-0.532-0.533-0.828-1.246-0.828-2.004c0-1.562,1.273-2.836,2.836-2.836
					s2.836,1.271,2.836,2.836c0,0.758-0.295,1.471-0.829,2.004c-0.519,0.52-0.771,0.994-0.771,1.447
					c0,0.455,0.252,0.932,0.771,1.445c0.534,0.533,0.829,1.246,0.829,2.008c0,1.566-1.271,2.84-2.836,2.84
					C26.891,129.289,25.617,128.016,25.617,126.449z M27.302,122.996c0,0.484-0.254,0.963-0.795,1.508
					c-0.521,0.516-0.807,1.207-0.807,1.945c0,1.52,1.233,2.758,2.753,2.758s2.753-1.238,2.753-2.758c0-0.738-0.287-1.43-0.808-1.945
					c-0.541-0.545-0.795-1.021-0.795-1.508c0-0.482,0.254-0.965,0.795-1.51c0.521-0.516,0.808-1.205,0.808-1.941
					c0-1.52-1.233-2.754-2.753-2.754s-2.753,1.234-2.753,2.754c0,0.736,0.286,1.428,0.807,1.941
					C27.048,122.031,27.302,122.514,27.302,122.996z"/>
			</g>
		</g>
	</g>
	<g>
		<g>
			<g>
				<path fill="#231F20" d="M65.917,131.598H38.454c-2.44,0-4.418-1.975-4.418-4.412v-13.117c0-2.438,1.978-4.418,4.418-4.418
					h27.463c2.437,0,4.418,1.98,4.418,4.418v13.117C70.335,129.623,68.354,131.598,65.917,131.598z"/>
			</g>
		</g>
		<g>
			<g opacity="0.5">
				<path d="M64.917,132.598H37.454c-2.44,0-4.418-1.975-4.418-4.412v-13.117c0-2.438,1.978-4.418,4.418-4.418h27.463
					c2.437,0,4.418,1.98,4.418,4.418v13.117C69.335,130.623,67.354,132.598,64.917,132.598z"/>
			</g>
			<g>
				<path fill="#808386" d="M65.917,131.598H38.454c-2.44,0-4.418-1.975-4.418-4.412v-13.117c0-2.438,1.978-4.418,4.418-4.418
					h27.463c2.437,0,4.418,1.98,4.418,4.418v13.117C70.335,129.623,68.354,131.598,65.917,131.598z"/>
			</g>
		</g>
		<g>
			<g>
				<rect x="48.438" y="127.902" fill="#010202" width="8.213" height="1.697"/>
			</g>
			<rect x="48.438" y="127.902" fill="#231F20" width="8.213" height="1.697"/>
		</g>
		<g>
			<path fill="#231F20" d="M42.988,111.148h-2.59c-0.719,0-1.299-0.582-1.299-1.297l0,0c0-0.713,0.58-1.299,1.299-1.299h2.59
				c0.712,0,1.298,0.586,1.298,1.299l0,0C44.286,110.566,43.7,111.148,42.988,111.148z"/>
			<path fill="#231F20" d="M63.023,111.148h-2.596c-0.713,0-1.299-0.582-1.299-1.297l0,0c0-0.713,0.586-1.299,1.299-1.299h2.596
				c0.713,0,1.297,0.586,1.297,1.299l0,0C64.32,110.566,63.736,111.148,63.023,111.148z"/>
		</g>
	</g>
	<g>
		<g>
			<g>
				<path fill="#010202" d="M60.163,39.745h-15.91c-3.153,0-5.731-2.579-5.731-5.729V17.306c0-3.15,2.578-5.729,5.731-5.729h15.91
					c3.153,0,5.731,2.579,5.731,5.729v16.711C65.896,37.166,63.316,39.745,60.163,39.745z"/>
				<g>
					<rect x="47.273" y="-17.122" fill="#010202" width="2.545" height="31.243"/>
					<rect x="54.598" y="-17.122" fill="#010202" width="2.545" height="31.243"/>
				</g>
			</g>
		</g>
		<g>
			<g>
				<g>
					<g opacity="0.5">
						<rect x="46.273" y="-16.122" width="2.545" height="31.243"/>
					</g>
					<g>
						
							<linearGradient id="SVGID_3_" gradientUnits="userSpaceOnUse" x1="29.2031" y1="-237.4839" x2="31.7485" y2="-237.4839" gradientTransform="matrix(1 0 0 -1 18.0703 -238.9844)">
							<stop  offset="0" style="stop-color:#707070"/>
							<stop  offset="1" style="stop-color:#F1F2F2"/>
						</linearGradient>
						<rect x="47.273" y="-17.122" fill="url(#SVGID_3_)" width="2.545" height="31.243"/>
					</g>
				</g>
				<path fill="#939599" d="M47.229,14.168v-31.337h2.639v31.337H47.229z M47.32-17.075v31.149h2.452v-31.149H47.32z"/>
			</g>
			<g>
				<g>
					<g opacity="0.5">
						<rect x="53.598" y="-16.122" width="2.545" height="31.243"/>
					</g>
					<g>
						
							<linearGradient id="SVGID_4_" gradientUnits="userSpaceOnUse" x1="36.5273" y1="-237.4839" x2="39.0723" y2="-237.4839" gradientTransform="matrix(1 0 0 -1 18.0703 -238.9844)">
							<stop  offset="0" style="stop-color:#707070"/>
							<stop  offset="1" style="stop-color:#F1F2F2"/>
						</linearGradient>
						<rect x="54.598" y="-17.122" fill="url(#SVGID_4_)" width="2.545" height="31.243"/>
					</g>
				</g>
				<path fill="#939599" d="M54.55,14.168v-31.337h2.64v31.337H54.55z M54.645-17.075v31.149h2.451v-31.149H54.645z"/>
			</g>
			<g>
				<g>
					<g opacity="0.5">
						<path d="M59.163,40.745h-15.91c-3.153,0-5.731-2.579-5.731-5.729V18.306c0-3.15,2.578-5.729,5.731-5.729h15.91
							c3.153,0,5.731,2.579,5.731,5.729v16.711C64.896,38.166,62.316,40.745,59.163,40.745z"/>
					</g>
					<g>
						
							<linearGradient id="SVGID_5_" gradientUnits="userSpaceOnUse" x1="20.4512" y1="-264.645" x2="47.8242" y2="-264.645" gradientTransform="matrix(1 0 0 -1 18.0703 -238.9844)">
							<stop  offset="0" style="stop-color:#707070"/>
							<stop  offset="1" style="stop-color:#BCBEC0"/>
						</linearGradient>
						<path fill="url(#SVGID_5_)" d="M60.163,39.745h-15.91c-3.153,0-5.731-2.579-5.731-5.729V17.306
							c0-3.15,2.578-5.729,5.731-5.729h15.91c3.153,0,5.731,2.579,5.731,5.729v16.711C65.896,37.166,63.316,39.745,60.163,39.745z"
							/>
					</g>
				</g>
				<path fill="#939599" d="M38.475,34.017V17.306c0-3.185,2.592-5.776,5.778-5.776h15.91c3.187,0,5.778,2.593,5.778,5.776v16.711
					c0,3.184-2.594,5.775-5.778,5.775h-15.91C41.066,39.792,38.475,37.199,38.475,34.017z M65.85,17.306
					c0-3.135-2.55-5.684-5.687-5.684h-15.91c-3.137,0-5.687,2.549-5.687,5.684v16.711c0,3.134,2.55,5.683,5.687,5.683h15.91
					c3.137,0,5.687-2.549,5.687-5.683V17.306z"/>
			</g>
			<g>
				
					<linearGradient id="SVGID_6_" gradientUnits="userSpaceOnUse" x1="22.2461" y1="-264.644" x2="46.0312" y2="-264.644" gradientTransform="matrix(1 0 0 -1 18.0703 -238.9844)">
					<stop  offset="0" style="stop-color:#BCBEC0"/>
					<stop  offset="1" style="stop-color:#707070"/>
				</linearGradient>
				<path fill="url(#SVGID_6_)" d="M59.125,37.897H45.297c-2.738,0-4.98-2.239-4.98-4.979V18.401c0-2.739,2.242-4.979,4.98-4.979
					h13.828c2.732,0,4.977,2.239,4.977,4.979v14.518C64.102,35.658,61.857,37.897,59.125,37.897z"/>
				<path fill="#939599" d="M40.27,32.919V18.401c0-2.771,2.256-5.025,5.027-5.025h13.828c2.77,0,5.021,2.255,5.021,5.025v14.518
					c0,2.771-2.252,5.025-5.021,5.025H45.297C42.523,37.944,40.27,35.688,40.27,32.919z M64.055,18.401
					c0-2.72-2.213-4.933-4.93-4.933H45.297c-2.723,0-4.936,2.213-4.936,4.933v14.518c0,2.721,2.213,4.933,4.936,4.933h13.828
					c2.717,0,4.93-2.212,4.93-4.933V18.401z"/>
			</g>
		</g>
	</g>
	<g>
		<g>
			<g>
				<path fill="#010202" d="M48.201,30.021h-4.258c-0.84,0-1.535-0.69-1.535-1.533v-4.473c0-0.843,0.695-1.536,1.535-1.536h4.258
					c0.845,0,1.535,0.693,1.535,1.536v4.473C49.736,29.33,49.046,30.021,48.201,30.021z"/>
			</g>
			<path fill="#595A5C" d="M48.201,30.021h-4.258c-0.84,0-1.535-0.69-1.535-1.533v-4.473c0-0.843,0.695-1.536,1.535-1.536h4.258
				c0.845,0,1.535,0.693,1.535,1.536v4.473C49.736,29.33,49.046,30.021,48.201,30.021z"/>
		</g>
		<g>
			<g>
				<path fill="#010202" d="M59.887,30.021h-4.258c-0.845,0-1.535-0.69-1.535-1.533v-4.473c0-0.843,0.69-1.536,1.535-1.536h4.258
					c0.84,0,1.536,0.693,1.536,1.536v4.473C61.423,29.33,60.727,30.021,59.887,30.021z"/>
			</g>
			<path fill="#595A5C" d="M59.887,30.021h-4.258c-0.845,0-1.535-0.69-1.535-1.533v-4.473c0-0.843,0.69-1.536,1.535-1.536h4.258
				c0.84,0,1.536,0.693,1.536,1.536v4.473C61.423,29.33,60.727,30.021,59.887,30.021z"/>
		</g>
	</g>
	<g>
		<g>
			<path fill="#010202" d="M35.479,107.539h-7.946c-1.574,0-2.86-1.293-2.86-2.863V96.33c0-1.572,1.286-2.859,2.86-2.859h7.946
				c1.573,0,2.86,1.287,2.86,2.859v8.346C38.339,106.246,37.052,107.539,35.479,107.539z"/>
		</g>
		<g>
			<g opacity="0.5">
				<path d="M34.479,108.539h-7.946c-1.574,0-2.86-1.293-2.86-2.863V97.33c0-1.572,1.286-2.859,2.86-2.859h7.946
					c1.573,0,2.86,1.287,2.86,2.859v8.346C37.339,107.246,36.052,108.539,34.479,108.539z"/>
			</g>
			<g>
				<path fill="#808386" d="M35.479,107.539h-7.946c-1.574,0-2.86-1.293-2.86-2.863V96.33c0-1.572,1.286-2.859,2.86-2.859h7.946
					c1.573,0,2.86,1.287,2.86,2.859v8.346C38.339,106.246,37.052,107.539,35.479,107.539z"/>
			</g>
		</g>
	</g>
	<path fill="#010202" d="M46.654,30.729h-1.165c-0.386,0-0.712-0.317-0.712-0.709l0,0c0-0.396,0.326-0.713,0.712-0.713h1.165
		c0.393,0,0.714,0.316,0.714,0.713l0,0C47.368,30.412,47.047,30.729,46.654,30.729z"/>
	<path fill="#010202" d="M32.43,108.707h-1.916c-0.646,0-1.171-0.527-1.171-1.168l0,0c0-0.646,0.524-1.176,1.171-1.176h1.916
		c0.646,0,1.172,0.529,1.172,1.176l0,0C33.602,108.18,33.075,108.707,32.43,108.707z"/>
	<path fill="#010202" d="M58.335,30.729h-1.159c-0.393,0-0.713-0.317-0.713-0.709l0,0c0-0.396,0.32-0.713,0.713-0.713h1.159
		c0.394,0,0.72,0.316,0.72,0.713l0,0C59.055,30.412,58.729,30.729,58.335,30.729z"/>
</g>
</svg>
