<svg xmlns="http://www.w3.org/2000/svg" width="1935.19" height="1401.14" viewBox="0 0 1935.193 1401.141"><linearGradient id="a" x1="844.15" x2="844.15" y1="169.51" y2="2442.29" gradientUnits="userSpaceOnUse" gradientTransform="matrix(1 0 0 -1 123.445 1575.865)"><stop offset=".17" stop-color="#005598"/><stop offset=".24" stop-color="#0069AA"/><stop offset=".36" stop-color="#008BC8"/><stop offset=".42" stop-color="#0098D4"/><stop offset=".47" stop-color="#009ED8"/><stop offset=".55" stop-color="#3DADE2"/><stop offset=".64" stop-color="#71C8F2"/><stop offset=".65" stop-color="#78CDF4"/></linearGradient><path fill="url(#a)" d="M0 0h1935.2v1401H0z"/><linearGradient id="b" x1="844.15" x2="844.15" y1="-31.28" y2="2679.11" gradientUnits="userSpaceOnUse" gradientTransform="matrix(1 0 0 -1 123.445 1575.865)"><stop offset=".22" stop-color="#005296"/><stop offset=".29" stop-color="#0069AA"/><stop offset=".4" stop-color="#008BC8"/><stop offset=".45" stop-color="#0098D4"/><stop offset=".5" stop-color="#009ED8"/><stop offset=".56" stop-color="#3DADE2"/><stop offset=".64" stop-color="#71C8F2"/><stop offset=".65" stop-color="#78CDF4"/></linearGradient><path fill="url(#b)" d="M1935.2 225.65c-38.57-.87-80.55-5.32-115.36-25.06-5.76-3.3-4.92-13.4.17-16.5 36.3-21.7 75.6-25.8 115.2-28.3v-23.5c-127.8 26.5-254.3 66.2-384.8 61.9-160.9-5.3-316.3-82.1-474.1-119.6-209.7-49.9-418.1-10.3-625.5 27.6-102.7 18.8-205.9 36.7-309.8 41-46.6 1.9-93.7 1.7-140.8-.5v44.7l12.7 2.5c51.4 9.8 101.2 12.1 152.9 7.7 104.7-8.8 206.9-35.6 309.6-60.8 186.1-45.6 383.8-82.6 566.2 17.8 5.2 2.8 5.6 14.3-.1 16.4-23.2 8.5-47 13.8-71.1 15.9-46.5 4-93.3-.1-139.8-6.2-48-6.4-96.9-17.6-145.1-16.7-110 2.1-215.1 33.5-323.2 54-120.6 23-241.3 18.7-362 6.1V256c142.5 3.47 285.5 25.8 426.9 1.48 83-14.28 164.4-18.73 248.3-7.28 81.9 11.2 162.87 32.1 244 50.9 100.37 23.3 200.6 41.4 302.3 37.5 101.38-3.9 201.6-22.5 301.4-43.4 136.6-28.5 274.1-58.9 412.37-60.7v-8.8zM889.82 257.87c-14.86 6.64-32.77 3.85-48.2 2.1-24.54-2.78-49-7.54-73.3-13.3-24.08-5.7-48.18-12-71.86-20.42-10.36-3.7-25.96-6.67-34.2-16.97-3.36-4.18-3.6-13.36 1.7-15.18 33.23-11.4 69.43-10.33 103.62-6.07 28.32 3.53 58.75 8.7 85.97 22.9 13.73 3.37 29.07 7.87 39.15 18.76 8.2 8.8 7.54 23.5-2.88 28.1zm168.8-130.56c24 1.8 49.55 2.5 71.56 17.5 3.7 2.6 5.64 9.3 2.63 13.8-6 8.9-14.9 7.3-23.5 7l-.7.3c-21.2 4.5-44 2.9-56.2-24.6-3.1-7 .4-14.3 6.3-13.8zm274.92 126.8c-26.77 59-100.96 45.9-145 42.9-27.24-1.8-54.36.3-81.58-.9-11.98-.5-25.4-1.4-38.1-5.2-38.4-.6-77.7-7.6-110.4-36.6-4.72-4.2-2.25-12.5 1.72-15.1 44.64-30.1 98.76-35.8 148.52-35.4 3.16 0 6.33.1 9.5.2h1.32c26.95-.6 53.66 3.2 80.58 4 43.24 1.3 95.28-2.2 132.34 33.9 3.25 3.2 2.88 8.6 1.1 12.5zm86.97 29.3c-11.7 12.6-26.9 13.8-41.9 12.6-6.4.8-12.8.3-19.1-2.2-.4-.1-.8-.2-1.1-.4-3.5-1.5-6.9-3.7-10.4-6.7-3.6-3.1-3.2-11.2.2-14.1 20.8-17.5 48.3-16.8 71-4.4 5 2.8 5.1 11.4 1.4 15.4z"/><linearGradient id="c" x1="844.15" x2="844.15" y1="-51.28" y2="2659.11" gradientUnits="userSpaceOnUse" gradientTransform="matrix(1 0 0 -1 123.445 1575.865)"><stop offset=".29" stop-color="#005296"/><stop offset=".35" stop-color="#0069AA"/><stop offset=".44" stop-color="#008BC8"/><stop offset=".48" stop-color="#0098D4"/><stop offset=".55" stop-color="#009ED8"/><stop offset=".64" stop-color="#3DADE2"/><stop offset=".76" stop-color="#71C8F2"/><stop offset=".77" stop-color="#78CDF4"/></linearGradient><path fill="url(#c)" d="M1935.2 516.74c-22.8 13.2-54.7 14.2-83.3 12.87-20.25-.9-40.15-3.6-60.06-6.3-31.93-.5-63.86-1.9-95.77-3.5-54.68-2.6-109.67-6.3-164.34-2.2-42.4 3.2-84.72 7.1-127.37 7.9-25.75.5-69.14 2.5-87.42-13.9-2.1-1.9-2.62-5.2.5-6.8 41.67-21.4 97.55-25.1 147.34-27.2 57.5-2.4 115.1.1 172.56 1.9 53.5 1.7 107.1.4 160.62 2.3 43.52 1.6 98.43 2.7 137.23 19.7v-36.8c-25 2.8-50.4 4-74.5 5.1-48.9 2.3-109.1 5.1-155-9.6-3.2-1-5.9-3.4-4.4-6 13.6-23.8 65.2-24.3 95.2-25.3 42.8-1.3 85.4 2.4 128.1 2.7 3.5-.2 7-.3 10.5-.4v-19.7c-41.2 1-82.3 1.2-123.5.4-96.8-1.9-205.4 17.5-295.8-15.5-3-1.1-4.3-4.7-2.1-6.6 23.7-20 64.5-26.7 98.8-31.8 47.2-7 95.8-9.5 143.8-11.7 59.7-2.8 119.2-9.1 178.5-12.1V311c-44.7 1.17-89.8 5.47-133.9 8.8-103.5 7.85-206.5 18.6-309 31.45-91.1 11.4-183.8 24.9-256.4 68.65-29.5 17.77-58.5 36.3-92.8 49.3-34.1 12.9-72.2 16.3-110.1 12.4-42.9-4.4-85.5-15.9-125.8-26.9-42.1-11.48-83.1-24.78-124-38.05-82.5-26.7-165.3-53.5-254-67.96C354 319.9 176.3 356-.3 361.5v13.9c61.8-.2 123.5-1.2 184.9-6.65 83.2-7.38 172-27.7 254.6-7.5 28.4 6.93 65.46 21 77.1 42.1 8.28 14.92-4 29-19.33 38.72-46.7 29.8-122 37.9-182 34.2-79.8-4.9-154.4-28.3-234.6-32.14-26.8-1.3-53.7-1.3-80.5-.25v26.78c34.1-.7 68.2-.1 102.5 1.9 51.8 3 102.7 10.5 153.7 17.3 50.4 6.7 104.5 16 156.1 12.1 35.8-2.7 70.8-9.5 106.7-12.1 26.54-2 54.7-2.1 77.1 9.5 27.34 14.1 9.05 29.7-14.76 37.5-39.7 13.1-85.7 18-128.4 23.3-43.4 5.4-87.1 9.24-130.6 14.1-70.5 7.8-139 23.4-207.5 37.1-38 7.6-76.3 14.2-114.8 18.8v16.3c16.6-1.74 32.7-4.35 47.9-8.35 32.3-8.4 70-22.9 105.1-14.3 3.3.8 5.7 3.6 4.4 6.1-8.9 16-30.5 25.3-51.7 31.9-31.9 9.9-67 14.6-101.2 18.2l-4.5.5v26.3c20.5.7 41.1 1.1 61.7 1.2 99.4.6 188.9-33.9 287.1-39.2 52.4-2.8 104.96 1.8 157.1 4.7 52.7 3 105.6 3.5 158.1-1.1 101.2-9 201.4-33 295.1-60.9 167-49.8 353.4-46.3 530.6-38 46.8 2.2 93.8 4 140.4 7.6 46.8 3.68 93.2 9.8 139.44 15.9 54.8 7.2 110.1 14.4 165.6 17.9v-98.1zm-370.88-85.07c1.45.24 2.5.7 3.26 1.3 4.63.93 9.2 2.07 13.67 3.5 4.34 1.4 6.82 5.62 2.47 8.16-13.77 8.04-38.85 9.93-55.66 11.84-16.84 1.92-45.14 5.06-55.82-7.28-23.85-27.6 78.13-19.9 92.08-17.6zm-206.6 28.1c5.58-11.45 14.22-17.8 26.18-19.87 6.07-3.06 13.06-5 21.1-4.75.32 0 .65.06.98.08 21.1-2.8 47.96 7.12 60.67 18.4 3.94 3.48 2.1 8.96-2.4 10.8-31.02 12.8-71.86 15.54-103.6 3.9-3.4-1.26-4.35-5.68-2.94-8.57zM332.3 648.8c-26.88 12.48-63.12 23.07-91.98 10.97-5.13-2.15-4.24-8.18-.56-10.9.5-.93 1.2-1.74 2.15-2.3 24.5-14.62 63.1-21.44 89.8-8.85 4.1 1.94 5.3 8.92.6 11.08zm588.6-143.34c8.17-1.95 14.9-2.12 23.07-.17 2.76.6 5.22 2.9 5.22 5.9v2.1c0 3.3-2.5 6.7-6.3 6.7h-2.2c-3.2.1-6.6 1.4-10 1.3-4.8-.1-8.8-2.1-12.3-5.1-3.5-3.1-2.6-9.7 2.4-10.9zm-23.55-12.4c3.98 2.25 5.32 8.64.6 11.1-33.06 17.17-74.3 16.8-110.75 15.44-17.66-.66-35.28-2-52.9-3.42-24.43.94-50 .93-73.63-4.77-5.77-1.3-6.55-7.6-2.63-11.2-.8-2.9.27-6.3 4.15-7.5 38.6-11.7 80.3-16.8 120.6-17.9 37.6-1 80.9-.5 114.5 18.3zm-277.12 52.58c33.07-17.4 72.77-22.6 113.2-22.86 3.3-.02 5.2 1.3 5.85 2.96 3.9 1.5 5.94 5.6 1.7 7.8-13.27 6.93-28.46 10.66-43.77 14.33-15.2 5-31.3 9.34-47.6 11.04-4.4.9-8.8 1.6-13.3 2.3-2.8.5-5-.3-6.4-1.6-2.9-.1-5.9-.3-8.8-.7-6.5-.8-8.7-6.3-3-8.9-.4-1.5.1-3.1 2.2-4.2zm-78.75-88c-4.4-.88-5.72-4.54-3.65-7.15 17.27-21.8 58.8-23 91.9-16.8 11.55.4 22.98 1.6 33.96 4.4 15.4 4 31.7 19.2 15.6 29.1-15.8 9.7-48.7 4.2-66.7 2-24-2.8-47.8-7-71.1-11.7zM936.4 571.6c-27.5 21.02-69.15 34.37-105.04 46.4-28.83 9.7-60.46 21.35-92.12 25.55-69.77 9.27-141.94 13.26-213 11.75-54.68 3.1-108.96-1.87-162.32-22.73-3.53-1.38-3.56-4.4-2.06-6.64 7.4-11.1 27.02-16.44 42.17-20.3 26.1-6.63 53.7-10.26 80.96-13.48 56.5-6.68 113.7-9.5 170.5-14.75 16.3-1.5 31.4-5.27 47-8.83 26.7-6.06 53.6-11.92 80.6-17.35 29.2-5.9 58.8-11.28 88.7-15.1 19.5-2.5 41.4-5.22 61-1.82 28.5 4.94 17.1 26.78 3.3 37.3zm386.95-24.9c-24.9 3.75-50.7 4.88-76.05 5.74l-2.74.1c-9.52 1.74-19.7 2.44-29.87 2.4-1 .07-1.9.1-2.8.15-7.6 1.3-15.3 2.6-23 3.2-11.4.9-29 2.9-37.3-6.7-8-9.3.2-20.9 10.4-23.9 6.2-1.9 12.6-2.8 19.1-3.2 16.4-5.8 37.4-8 52.3-8.8 11.8-.6 42.7-.2 53 9.3 9.9 1.1 19.1 3.9 29 8 1.1.4 1.9 1.1 2.3 1.8 2.6.9 5.2 1.9 7.8 3 5.2 2.1 3.3 7.9-2.3 8.7z"/><linearGradient id="d" x1="844.15" x2="844.15" y1="-11.28" y2="2699.12" gradientUnits="userSpaceOnUse" gradientTransform="matrix(1 0 0 -1 123.445 1575.865)"><stop offset=".22" stop-color="#005296"/><stop offset=".31" stop-color="#0069AA"/><stop offset=".45" stop-color="#008BC8"/><stop offset=".52" stop-color="#0098D4"/><stop offset=".56" stop-color="#009ED8"/><stop offset=".63" stop-color="#3DADE2"/><stop offset=".7" stop-color="#71C8F2"/><stop offset=".71" stop-color="#78CDF4"/></linearGradient><path fill="url(#d)" d="M1935.2 859.57c-21.67-7.58-43.8-14.53-66.66-20.45-56.75-14.7-118.66-18.13-176.3-31.32-20.18-4.6-44.72-10.06-56.94-23.26-11.93-12.88-2.72-22.95 17.78-23.1 24.85-.15 49.98 7.9 73.95 11.66 49.44 7.74 97.58 18.95 146 29.3 20.78 4.45 41.55 8.95 62.16 13.76v-17.74c-84.5-33.2-172.6-60.85-269.5-67.18-46.4-3.03-93-5.26-139.1-10.14-19.6-2.06-39.4-4.48-58.1-9-10.3-2.47-24.3-6.4-27.8-14.6-7.3-17.02 38.4-28.13 53.2-31.98 57.4-14.95 125.6-4.23 182.8 6 31.6 5.67 62.3 13.46 94.3 18.06 44.7 6.43 90.6 8.17 136.1 8.88 9.3.14 18.5.2 27.8.26v-49.5c-51.3.08-102.4-.9-153.5-5.02-52.4-4.23-103.7-13.12-156.2-17.2-48.7-3.77-97.8-4.05-146.5-.36-48.2 3.66-95.4 11.9-141.2 22.87-47.2 11.3-91.8 20.8-141.8 23.6-83.5 4.8-169.9-2.3-242 33.7-29.9 14.9-55.2 34.1-80.7 52.4-29 20.8-59.4 39-95.2 53.5-71.2 29-154.1 41.2-235.4 43.4-41.9 1.2-84-1-125.4-5.6-51.3-5.6-102.2-7.7-154.1-6.2-88 2.4-175.4 9.5-263.4 11.5v66c69.4 1.1 138.3 8.4 206.9 16.8 92 11.2 183.9 23.4 277.6 23.9 51.8.3 102.1-4.6 152.6-12.7 49.6-8 98.5-17.9 148.6-24.3 50-6.4 98.7-6 149.3-3.6 52.8 2.6 105.5 4.2 158-1.9 93.4-10.7 182-38.3 271.6-58.6 89-20.2 176.4-28.2 269.3-19.7 103.4 9.5 200.7 39 301.2 57.1v-38.9zm-597.45-124.1c12.58-8.06 28.58-11.93 45.23-13.37 25.26-5.88 53.47-7.6 72.63 6.5 3.9 2.87 1 6.9-3.6 7.94-35 7.98-73.5 11.93-110 7.3-5.5-.7-9-5.3-4.2-8.37zm-487.68 97.68c1.25-1.3 2.55-2.43 3.88-3.52.83-1.47 2.2-2.6 4-2.87 14.85-9.38 33.6-8.03 50.38-1.43 1.68.66 2.7 1.72 3.2 2.95 3.52 3.2 3.6 9.46-1.95 10.96-17.95 4.84-37.5 8.8-55.95 4.42-4.72-1.1-7.08-6.87-3.56-10.5zm-191.1 31.37c49.05-22.02 103.87-36 162.46-34.15 4.67.15 8.64 4.5 5.35 7.4-16.1 14.14-41.98 21.8-65.28 28.14-24.05 6.6-50.22 12.2-76.15 12.6-2.08.1-3.76-.7-4.88-1.8-6.8-.3-13.63-1.3-20.52-3.2-5.85-1.6-6.02-6.6-.97-8.8zm-20 40.3c-12.05 11.83-38.5 17.77-56.82 22.47-77 19.7-157.1 7.9-234.66-4-33.2-5.1-67.5-4.7-101.1-7.8-25.4-2.3-55-5.8-73.5-19.5-3.7-2.7-1.2-7.2 3.6-8 53-8.7 105.7-6.6 158.5-3 1.1-1.2 3-2.1 5.6-2 48.3 1.4 96.5 2.8 144.9 3.3 24.1.2 48.3.1 72.4-.3 20.9-.4 42-1.8 62.8.5 13 1.4 28.4 7.7 18 18zm424.48-14.52c-20.8 6.86-46.18 7.43-68.67 8.3-27.76 1.05-55.63.62-83.4-.05-48.97-1.18-97.9 1.4-145.95 7.7-6.68 1.94-13.34 3.85-20 5.66-26.93 7.4-57.85 16-87.16 12.2-5.66-.7-8.78-5.2-4.17-8.3 9.9-6.7 23.6-10.9 35.96-14.8 20.6-6.5 42.03-11.8 63.46-16.8 54.33-12.7 110.2-22.5 166.6-29.3 41.9-5 90.58-10.9 132.44-2.6 27.16 5.5 42.12 27.9 10.9 38.2zm36.86-134.02c-20.3 6.92-44 9.05-64.7 2.3-4.1-1.35-7.7-6.92-3.5-10.52 15.2-13.13 35.3-14.6 54.5-10.5 1.7.37 2.9 1.2 3.7 2.22 4.3 1.14 8.5 2.96 12.5 5.68 4.4 2.9 1.8 9.4-2.4 10.82zm-17.3-29.5c-4.3-.8-5.8-4.62-3.6-7.16 25.6-30.17 90-21.64 131.3-21.43 2.4 0 4 .7 5 1.7 5.1.7 10.1 2 15.3 3.8 3 1 4.3 4.8 2.1 6.6-16.7 14-43.5 18-68.1 20-26.9 2.1-55.4 1.2-81.7-3.6zm110.5 20.17c20.7-12.88 47.3-15.38 71.2-18 2.9-.33 4.9.97 5.9 2.84 5.8.5 11.5 1.8 17.2 4.2 4.1 1.6 4.7 7 2 9.9-21.1 23.4-68.4 26.2-95.5 12-4.4-2.3-4.9-8.4-.6-11.1zm311.1 61.85c-24.9 1.3-51.1-.15-76.6 1.03-20.1 5.7-40.1 11.96-60.3 16.94-22.4 5.55-45 10.7-68.2 14.4-15.8 2.53-33.5 4.9-49.6 2.06-39.4-6.97 1.7-44.1 16.9-52.8 45.6-25.97 113.9-32.3 170.3-33.74 44.8-1.2 102.5.6 139.2 21.5 3.2 1.8 3.8 4 2.1 6.6-12.8 19-47.2 22.5-73.6 23.9zm158.1 19.55c-1.1 1.56-2.9 2.68-4.9 2.68h-6.2c-1 1.37-2.6 2.28-4.7 2.12-21.8-1.58-46.4 3.3-66.8-5.72-2.4-.23-4.8-.45-7.1-.78-5.3-.75-7.5-9.22-2.2-11.63l.2-.07c.7-1.2 1.9-2.2 3.6-2.76l1.7-.6c20.7-22.3 67.3-10.1 88.1 6.1 3.5 2.7 2.4 8.7-1.4 10.5z"/><linearGradient id="e" x1="2171.04" x2="2171.04" y1="-413.3" y2="2297.1" gradientUnits="userSpaceOnUse" gradientTransform="rotate(180 1569.32 787.932)"><stop offset=".18" stop-color="#005296"/><stop offset=".35" stop-color="#0069AA"/><stop offset=".63" stop-color="#008BC8"/><stop offset=".76" stop-color="#0098D4"/></linearGradient><path fill="url(#e)" d="M0 1300.47c100.55-18.15 197.84-47.62 301.22-57.13 92.9-8.55 180.34-.48 269.27 19.73 89.6 20.36 178.2 47.9 271.6 58.66 52.5 6.04 105.2 4.42 158 1.9 50.5-2.44 99.2-2.87 149.3 3.52 50.1 6.4 99 16.4 148.6 24.36 50.4 8.2 100.7 13 152.5 12.7 93.6-.4 185.6-12.6 277.6-23.8 68.5-8.3 137.5-15.6 206.9-16.8v-66c-88-1.9-175.4-9-263.4-11.4-51.9-1.4-102.8.6-154.1 6.3-41.4 4.6-83.5 6.7-125.4 5.6-81.3-2.2-164.2-14.4-235.4-43.4-35.8-14.5-66.3-32.7-95.2-53.5-25.5-18.3-50.8-37.5-80.7-52.3-72.2-35.9-158.5-28.8-242-33.6-50-2.8-94.6-12.3-141.8-23.5-45.9-10.9-93.1-19.2-141.2-22.8-48.7-3.7-97.9-3.4-146.6.4-52.5 4.1-103.8 13-156.2 17.2-51.1 4.1-102.2 5.1-153.5 5v49.5c9.3-.1 18.6-.1 27.8-.3 45.5-.7 91.4-2.4 136.1-8.8 32-4.6 62.7-12.4 94.3-18 57.2-10.2 125.4-20.9 182.87-6 14.85 3.9 60.5 15 53.3 32-3.5 8.2-17.47 12.2-27.78 14.6-18.76 4.5-38.55 7-58.1 9-46.1 4.9-92.66 7.1-139.07 10.2-96.9 6.4-185 34-269.43 67.2v17.8c20.6-4.8 41.4-9.3 62.16-13.7 48.43-10.34 96.6-21.54 146-29.3 24-3.74 49.1-11.8 74-11.63 20.5.14 29.7 10.2 17.8 23.1-12.26 13.2-36.8 18.64-57 23.26-57.6 13.2-119.5 16.6-176.3 31.3-22.8 5.9-45 12.9-66.6 20.48v38.9zm593.27-154.6c-36.47 4.62-75.03.67-110.03-7.32-4.6-1.04-7.54-5.06-3.66-7.92 19.16-14.1 47.37-12.4 72.64-6.52 16.65 1.5 32.65 5.4 45.23 13.4 4.8 3.1 1.33 7.7-4.18 8.4zm488.3 99.82c-18.46 4.3-38 .4-55.95-4.5-5.57-1.5-5.48-7.8-1.96-11 .5-1.3 1.52-2.3 3.2-3 16.78-6.6 35.54-8 50.37 1.4 1.82.3 3.2 1.4 4 2.8 1.34 1.1 2.65 2.2 3.9 3.5 3.5 3.6 1.15 9.4-3.56 10.5zm193.67 29.7c-6.88 1.9-13.73 2.9-20.52 3.2-1.12 1-2.8 1.8-4.87 1.8-25.93-.4-52.1-6-76.15-12.5-23.3-6.4-49.18-14-65.3-28.2-3.28-2.9.7-7.3 5.36-7.4 58.6-1.9 113.42 12.1 162.46 34.1 5.04 2.2 4.87 7.3-.98 8.9zm38.97 13.4c20.8-2.3 42-.9 62.9-.6 24.2.3 48.3.4 72.5.2 48.3-.5 96.6-1.9 144.9-3.3 2.7-.1 4.5.7 5.7 1.9 52.8-3.6 105.6-5.8 158.6 2.9 4.9.8 7.3 5.2 3.7 7.9-18.5 13.6-48.1 17.1-73.5 19.5-33.5 3-67.9 2.7-101 7.7-77.5 11.9-157.6 23.7-234.6 3.9-18.3-4.7-44.8-10.7-56.8-22.5-10.4-10.3 5-16.6 18-18.1zm-431.5-34.7c41.9-8.4 90.6-2.5 132.5 2.6 56.4 6.8 112.3 16.6 166.6 29.3 21.5 5 42.9 10.3 63.5 16.8 12.4 3.9 26.1 8.1 36 14.8 4.6 3.1 1.5 7.6-4.1 8.4-29.3 3.7-60.2-4.9-87.1-12.2-6.6-1.8-13.3-3.7-20-5.7-48-6.3-96.9-8.9-145.9-7.7-27.7.6-55.6 1.1-83.4 0-22.5-.9-47.9-1.4-68.7-8.3-31.2-10.3-16.2-32.8 10.9-38.2zm-50.1-106.7c4.1-2.7 8.3-4.6 12.5-5.7.9-1.1 2.1-1.9 3.7-2.2 19.2-4.2 39.3-2.7 54.5 10.4 4.2 3.6.6 9.1-3.5 10.5-20.6 6.7-44.3 4.6-64.7-2.3-4.2-1.5-6.7-8-2.4-10.9zm-62-15.1c-24.6-2-51.4-6-68.2-20-2.2-1.9-.9-5.6 2.1-6.7 5.2-1.9 10.2-3.1 15.3-3.9 1-1 2.7-1.7 5-1.8 41.3-.2 105.7-8.8 131.3 21.4 2.2 2.5.7 6.3-3.6 7.1-26.3 4.9-54.7 5.7-81.7 3.6zm-29.4 27.7c-27 14.2-74.4 11.3-95.5-12.1-2.6-3-2.1-8.3 2-10 5.7-2.3 11.4-3.6 17.2-4.2 1-1.9 3-3.2 5.9-2.9 23.9 2.6 50.6 5.1 71.2 18 4.3 2.7 3.7 8.8-.6 11.1zm-384.1 26.8c-1.7-2.6-1.1-4.9 2.1-6.7 36.7-20.9 94.4-22.7 139.2-21.6 56.4 1.4 124.7 7.8 170.3 33.7 15.3 8.7 56.4 45.8 16.9 52.8-16 2.8-33.7.4-49.6-2.1-23.1-3.7-45.8-8.9-68.2-14.4-20.1-5-40.1-11.3-60.3-17-25.4-1.2-51.6.2-76.6-1.1-26.4-1.4-60.8-4.9-73.6-23.9zm-85.8 32.9c20.8-16.2 67.4-28.4 88-6.1.5.2 1.1.3 1.7.5 1.7.5 2.8 1.6 3.5 2.7h.2c5.3 2.4 3.2 10.9-2.2 11.6-2.4.3-4.8.5-7.2.8-20.4 9-45 4.1-66.8 5.7-2.1.1-3.6-.8-4.7-2.1h-6.2c-2 0-3.8-1.1-4.9-2.7-3.7-1.9-4.8-7.9-1.3-10.6z"/></svg>