<svg xmlns="http://www.w3.org/2000/svg" width="687" height="536.95" viewBox="0 0 687 536.954"><linearGradient id="a" x1="343.5" x2="343.5" y1="508.97" gradientUnits="userSpaceOnUse"><stop offset="0" stop-color="#E2F3FE"/><stop offset=".07" stop-color="#DDF1FD"/><stop offset=".15" stop-color="#D1EBFA"/><stop offset=".23" stop-color="#BBE2F5"/><stop offset=".3" stop-color="#A2D9F0"/><stop offset=".31" stop-color="#97D5EF"/><stop offset=".33" stop-color="#76CBEC"/><stop offset=".36" stop-color="#05BAE8"/><stop offset=".39" stop-color="#00A4E0"/><stop offset=".4" stop-color="#009EDE"/><stop offset=".74" stop-color="#009FE3"/><stop offset="1" stop-color="#0074BE"/></linearGradient><path fill="url(#a)" d="M0 0h687v508.97H0z"/><linearGradient id="b" x1="406.04" x2="998.49" y1="70.91" y2="70.91" gradientUnits="userSpaceOnUse"><stop offset=".48" stop-color="#6AC8EE"/><stop offset=".92" stop-color="#008EB0"/></linearGradient><path fill="url(#b)" d="M687 0H495c-.78 4.8-.43 9.8 1.05 13.47-1.18-.26-2.4-.4-3.66-.4-6.7 0-12.2 3.72-14 8.83-1.8-5.1-7.4-8.84-14-8.84-2.7 0-5.1.6-7.2 1.63-.3 0-.5.1-.8.2-2.8 1-4.3 2.7-5 4.8-1.1 1.7-1.7 3.6-1.7 5.6 0 3.2 1.5 6.1 3.9 8.3l.2.6c-7.3-9.9-27.4-.6-17.1 7.4-.9.2-1.8.6-2.6 1-1.6.3-2.4 1-2.8 1.8-2.7 2.2-4.4 5.3-4.4 8.7 0 4.5 2.9 8.4 7.1 10.6-4.2 2.6-7.2 6.1-6.5 11.2-10.2-1.9-17.2 6.4-14.7 13.3-4.4 2.1-7.4 6.1-7.4 10.7 0 6.8 6.5 12.3 14.5 12.3 6.8 0 12.5-4 14.1-9.4 5 0 9.4-1.3 10.7-4.5 2.5 13.3 16.1 20.4 32.2 15.3 2.5 8.1 16.1 16.3 26 13.2 9.9-3.1 12.4-15.3 13.6-22.4 0 5.1 6.2 7.1 11.2 9.2-5 9.2 2.5 12.2 9.9 17.3 5 3 8.7 7.1 16.1 6.1 5-1 6.2-5.1 12.4-5.1 5 0 11.1 7.1 16.1 8.1 6.2 2 12.4 2 18.6 1 5-1.1 2.5-3.1 7.4-3.1 7.5 0 14.9 6.1 23.6 4.1 6.2-2 1.3-4.1 9.9-5.1 10 0 19.9 3.1 31 2 6.1-.4 10.3-1.7 13.6-3.6V0z"/><linearGradient id="c" x1="341.14" x2="138.09" y1="173.5" y2="173.5" gradientUnits="userSpaceOnUse"><stop offset=".12" stop-color="#5CC2DC"/><stop offset=".28" stop-color="#44BEDF"/><stop offset=".56" stop-color="#00B2E8"/><stop offset=".63" stop-color="#00AFEA"/></linearGradient><path fill="url(#c)" d="M338.12 135.75c1.9-2.14 3.02-4.8 3.02-7.68 0-7.13-6.82-12.9-15.24-12.9-1.04 0-2.06.1-3.05.26.7-2.45.73-5.02-.77-7.54 2.37-2.3 3.82-5.3 3.82-8.6 0-7.2-6.82-12.9-15.23-12.9-6.17 0-11.48 3.1-13.87 7.6-7.8-5.7-17.1-5.3-22.36 2.3-5.58-4.7-17.08-5.8-20.74-.6-3.66 5.1 1.42 14.1 4.5 19.2-2.67-3.4-7.03-2.8-10.72-2.6-2.17-7.7-7.7-7.4-14.33-8.4-4.22-.5-8.33-2-11.74 1-2.1 2.2-.6 5.3-3.9 7.3-2.6 1.5-9.6-1.3-12.8-.4-4.3.6-7.6 2.5-10.4 5.2-2.1 2.2.3 2.8-2.3 4.4-3.9 2.3-11.1.6-14.6 4.7-2.2 3.3 1.5 3.1-2.6 6.5-5.2 3.1-12.1 4.2-17.5 8.4-9.3 6.5-4.6 13.7-5.8 23.3-1.2 10.7-2.4 15.3 5 25.9 6.8 9.8 13.8 18.7 21.9 27.8 9.7 11.1 18.9 32.5 32.7 40.3 14.5 7.3 38.3-7.9 48.8-14.1 13.9-8.2 26.6-17.8 39.9-26.7 5.9-3.5 12.2-10.3 14.8-16.8l5.4-9.2c15.2.9 5.2-18-3.3-23.9 5.6-.3 2.1-7.2 0-9.9 4.2-4.5 16 4.4 20.6-3.3 3-4.8-4.3-10.4-8.8-13.7 5.8 2.7 10.3-1.5 10.2-5.4z"/><linearGradient id="d" x1="338.95" x2="-33.22" y1="62.9" y2="62.9" gradientUnits="userSpaceOnUse"><stop offset=".12" stop-color="#5CC2DC"/><stop offset=".28" stop-color="#44BEDF"/><stop offset=".56" stop-color="#00B2E8"/><stop offset=".63" stop-color="#00AFEA"/></linearGradient><path fill="url(#d)" d="M337.77 0H0v115.95c2.35 1.46 4.73 2.87 7.1 3.5 6.85 1.85 15.76 1.87 22.96 1.3 6.47-.5 10.43-3.4 16.36-1.83 6.9 1.84 12.8 2.4 20.1 1.04 8.07-1.5 12.9-4.8 19.3-8.46 4.65-2.65 7.97-1.06 13.6-2.2 3.8-.8 5.8-3.44 9.03-4.7 3-1.2 1.82-.75 4.83-.2 5.08.9 9.4 3.43 14.78 3.23-.8 3.77-4.17 7.84-1.08 12.1 2.58 3.57 7.72 4.08 12.4 4.04 5.56-.06 8.05 2.05 13.62 2.04 6.66 0 9.04-1.5 14.57-3.9 3.68 5.1 14.97 4.3 20.14 1.7 5.5-2.7 8.7-9.1 10.2-13.9 6.6.4 12.7 5.3 19.9 6 7.7.8 21.3.9 27.1-4 3.8-3.2.7-5.6 2.7-8.9 1.5-2.4 5.5-3.3 8.2-4.5 4.2-1.9 8.6-3.8 10-7.2 5.5-1.9 9.3-6.5 9.3-11.8 0-6-4.9-11-11.5-12.5 6.3-1.7 11.2-6.8 11.2-12.8 0-6.8-6.3-12.4-14.3-12.8-.1-1.8.5-3.2 2.6-3.9 3 3.5 8.1 3.9 12.7 3.9 7.4 0 9.4-1.3 14.6-5 1.5 3 6.3 4.8 10 3.8 1.7-.4 2.8-2 4.5-2.7 1.9.7 3.9 1 6 1 8.4 0 15.3-5.7 15.3-12.9v-1.2c2.3-.5 4.5-1.5 6.7-3.6 3.4-3.1 6.1-8.7 6.4-13 .2-2.5-.2-5-1.1-7.5z"/><linearGradient id="e" x1="379.81" x2="400.37" y1="151.95" y2="267.08" gradientUnits="userSpaceOnUse"><stop offset=".17" stop-color="#A7DBF3"/><stop offset=".81" stop-color="#0094C9"/></linearGradient><path fill="url(#e)" d="M464.54 240.48c15.2.9 5.16-18-3.33-23.9 5.6-.3 2.1-7.18 0-9.9 4.2-4.48 16 4.4 20.6-3.28 3-4.78-4.3-10.38-8.8-13.67 9.3 4.43 15.1-9 4.3-10.5 8.6-5.1-8.7-8.72-11.7-9.97 2.4-4.38 4.9-9.83-.1-14.86 7-2.17 5.6-11.3-.7-14.47-4.6-7.18-23-2.25-20.1 5.03-8.2-8.03-19.2-8.47-25.1 0-5.5-4.64-17-5.76-20.7-.6-3.6 5.17 1.4 14.08 4.5 19.22-2.6-3.4-7-2.8-10.7-2.58-2.1-7.67-7.7-7.35-14.3-8.4-4.2-.46-8.3-2-11.7 1.02-2.1 2.25-.6 5.35-3.9 7.3-2.6 1.57-9.6-1.22-12.8-.33-4.3.6-7.6 2.5-10.4 5.1-2.1 2.2.3 2.8-2.3 4.4-3.9 2.3-11.1.6-14.6 4.7-2.2 3.3 1.5 3.1-2.6 6.5-5.2 3.1-12.1 4.2-17.5 8.4-9.3 6.5-4.6 13.7-5.8 23.3-1.2 10.7-2.4 15.3 5 25.9 6.8 9.8 13.8 18.6 21.9 27.7 9.7 11.1 18.8 32.6 32.6 40.3 14.5 7.3 38.3-7.8 48.8-14.1 13.8-8.2 26.6-17.8 39.8-26.7 5.9-3.6 12.2-10.3 14.8-16.8l5.4-9.2z"/><linearGradient id="f" x1="459.06" x2="756.69" y1="133.86" y2="133.86" gradientUnits="userSpaceOnUse" gradientTransform="matrix(-.6987 -.4395 -.5325 .8465 1107.23 220.47)"><stop offset=".51" stop-color="#3DBFEB"/><stop offset=".86" stop-color="#8FD1E4"/></linearGradient><path fill="url(#f)" d="M687 7.96C680.93 5.33 674.87 2.7 668.85 0H592.9c-1.78 2.46-3.15 4.93-3.88 7.1-3.2-5.27-10.9 1.6-13.52 5.05-4.9-1.1-4.7-7.23-6.44-12.15H550.6c-1.88 2.97-3.23 6.43-4.22 9.13 1.4-11.32-19.92-10.3-16.54 1.08-11.25-5.8-7.5 13-7.75 16.5-7.2-.1-15.9.2-20.3 7.6-6.5-5.7-18.3.2-19.5 8-7.5 8.2 8.5 23.7 17 17.3-6.9 12.1-2 23.1 12.6 24.6-3.6 7.8.7 19.7 9.6 20.7s18.5-8.4 24-14c-3.3 4.4-.3 8.3 1.8 11.8-9.4 6-6.2 11.3-4.3 18.3 1.5 4.4 1.4 9.2 7.3 11 4.1 1 7.6-2 11.9.2 3.4 1.8 3.1 10.1 5.9 12.8 3 4 7.3 6.2 12.3 7.6 4.1.9 3.7-1.7 7.1.1 5.2 2.7 6.4 10.6 13.8 12 5.6.5 3.5-3 10.2-.7 6.9 3.6 11.9 9.8 20.3 13 13.6 5.9 21.1-2.3 34.8-6 8.5-2.3 14.4-3.7 19.8-6.6V8z"/><linearGradient id="g" x1="85.18" x2="388" y1="107.71" y2="107.71" gradientUnits="userSpaceOnUse" gradientTransform="matrix(-1 0 0 1 802.127 0)"><stop offset=".11" stop-color="#00B6E5"/><stop offset=".21" stop-color="#47C0E7"/><stop offset=".35" stop-color="#79CBE9"/><stop offset=".49" stop-color="#93D3EB"/><stop offset=".63" stop-color="#A1D8EB"/><stop offset=".77" stop-color="#A5DAEC"/><stop offset="1" stop-color="#C3E5EE"/></linearGradient><path fill="url(#g)" d="M687 0h-71.2c-4.63 1.77-9.24 4.5-11.9 7.66-6.5 7.68-7.08 17.65-2.52 25.98-4.37-2.48-13.7.16-9.78 5.35-3.73 1.6-3 3.9.1 5.9-2.28 1.2-5.76 1.6-6 4.2-2.57-2.6-3.14-6-6.62-8.2-3.82-2.5-7.9-3.3-12.5-3.9-9.7-1.2-19.03-.7-27.45 3.9-7.97 4.3-10.5 10-12.73 17.2-.92 2.9-1.4 6.2-1.03 9.5.4 3.4 2.6 6.2 3.02 9.5-5-3.1-10.2.7-9.6 5.1-5.3.6-6.6-.1-8.6 4.3-6.9-1.8-3.5-7.1-8.3-10.6-3.5-2.6-15.4-4.8-15.9 1.6-3-2.9-2.7-6.1-8.5-6.7-4.5-.4-6.8 1.5-9.6 4.1 1.2-6.9-10.4-10.5-16.9-8.3-10.2 3.4-2 12.1-2 17.8-2.6-2.2-6.4-2.9-8.9-.8-2.8 2.3-1.5 5.9-2.1 8.8-4.2-2.7-7.5.3-9.5 3.2-6.9-3.3-16-1.2-14.6 6.4 1.3 7.5 9.1 7.8 15.7 10.6-2.2 1.7-2.7 5-2 7.7.9 3.7 4.6 4.5 8.4 6.3-2.8 3.8-9 4.3-12.4 7.8-2.1 2-3.5 5.1-3.5 7.6.1 4.2 3 4.6 7 6.2-2.1 2.8-3.4 5.5-1.5 8.5 1.6 2.6 6.6 4.6 10.3 2.9 2.6 3 5.1 6.2 9.4 7.6 3.8 1.2 7.5.6 11.5 1 .9 5.9-1.1 9.2 6.5 12.3 6.9 2.7 14.5 2.5 21.8 3.3-1.7 2.4-2.5 5.7-1.8 8.6.9 3.7 6.2 5.5 10.8 6.1 3.7.5 7.6-.4 11.4 0 4.4.4 6.4 3.1 10.6 4.3 9.5 3 12.2-3.8 20.1-4.4 9.8-.7 18.2 1.6 26.5-3.2-.3 4.7 0 6.8 5.1 9.3 7.9 3.8 16.5 4.9 25.3 6.3 17.3 2.7 33.3 4.9 50.9 3.2 14-1.4 28.4-5.1 42.1-8.8V0z"/><linearGradient id="h" x1="62.96" x2="337.63" y1="105.37" y2="105.37" gradientUnits="userSpaceOnUse" gradientTransform="matrix(-1 0 0 1 802.127 0)"><stop offset=".27" stop-color="#87D0EF"/><stop offset=".58" stop-color="#B8E1F4"/><stop offset=".84" stop-color="#D5EDF6"/><stop offset=".99" stop-color="#E0F1F7"/></linearGradient><path fill="url(#h)" d="M687 26.48c-5.43-.88-10.9-1.34-16.12-1.33-10.82.02-19.5-.13-29.3 3.72-3.38 1.33-5.58 2.85-7.95 5.06-1.7 1.58-3.97 5.43-5.88 5.98-3.7-4.5-10.02-3.8-15.12-1.4-2.92 1.4-6.73 2.6-8.52 5-1.9 2.6-.5 4.5-.1 6.9-5.6-.6-7.4 8.3-7.3 11.6.1 4.3 4.4 6.6 5.4 10.2-11.4-11.8-36.3-.7-27 13.4-5.7-1.4-19.3-4.1-17.6 5.1-1.9-1.4-.7-3.1-1-4.9-.3-2.1-1.9-4.5-3.5-6.1-3.8-3.9-10.9-5.4-16.7-4.2-13.3 2.7-15.8 13.1-13.7 22.3-4.5-3.5-11-5-14.7.3-4 5.8 2.3 8.3 3.9 13-3.9.3-4.6 4.6-4.1 7.2.7 4.1 4.4 6.5 9.3 7.9-8.3.3-14.2-5.8-23.1-5.3-8.1.5-16.6 3.5-16 11.3-4.8.5-10-.9-12.4 3.6-2.1 4.2 2.1 9.7 7.1 10.7.8 4.6-.8 8.2 5.5 10.6 5.3 2 11.6 2.4 16.1-.8 3.4 16.5 31 10.3 43.6 5 3.7-1.6 4.5-1.9 7.2 1.1s3.7 4.5 7.7 6.2c5.3 2.2 24.2 7 27.7 1-2.8 11.9 19.8 15.6 29.6 16.4 9.9.7 20.2-.3 29.8-2 10.3-1.9 20.6-3.4 27.7-10.1 3.8-3.5 5-8.4 10.6-9 3.2-.3 6.4-.1 9.6.3V26.5z"/><linearGradient id="i" x1="512.41" x2="907.71" y1="159.92" y2="159.92" gradientUnits="userSpaceOnUse" gradientTransform="matrix(-1 0 0 1 802.127 0)"><stop offset=".22" stop-color="#A2D9EF"/><stop offset=".72" stop-color="#00B6E5"/></linearGradient><path fill="url(#i)" d="M286.37 249.22c-7.44-12.24-22.3-21.42-38.42-20.4 9.9-9.18 2.47-16.3-12.4-19.37 11.16-8.17 3.72-15.3-6.2-20.4-6.2-4.08-3.7-2.04-6.2-7.14-1.23-3-2.47-6.1-4.95-9.1 8.68-6.1 3.72-9.2 14.87-10.2 12.4-1 26.03-1 21.07-15.3 12.4-2 18.6-10.2 9.92-18.3 16.1-4.1 16.1-21.4-1.24-21.4 8.67-12.2-11.16-25.5-23.55-27.5-9.92-2-18.6 1.1-27.27 0-8.67 0-12.4-3-22.3-3 6.2-4.1 6.2-13.2-3.72-11.2v-1.1c16.1-7.1 26.02-19.4 16.1-33.7-9.9-14.2-32.22-18.3-47.1-6.1-7.15-7.8-14.3-8.1-24.78-5.4-.02-11-1.38-16-16.1-14.9 1.6-1.5 2.94-2.9 4.04-4.5H0V301c14.5 4.92 36.53-3.17 31.06-12.93 7.43 0 18.6-1 22.3-7.12 2.48-6.1-4.95-9.17-6.2-14.27 8.68 1 38.43-8.17 23.56-16.33 9.9 3.02 21.06 2 32.22 2-6.2 9.2-7.44 22.42 9.9 22.42-14.86 18.36 9.93 28.56 29.76 26.52 2.48 8.1 7.44 16.3 18.6 18.3 16.1 2 22.3-9.2 26.02-19.4 6.2 2 17.35 2 24.8 3 12.38 2 16.1-1 24.77-7.2 18.5 11.2 45.8-9.2 28.5-23.4 6.2 0 12.4-3.1 17.3-6.1 8.6-5.1 8.6-10.2 3.7-17.4z"/><linearGradient id="j" x1="252.45" x2="645.85" y1="289.87" y2="289.87" gradientUnits="userSpaceOnUse" gradientTransform="rotate(132.252 145.16 -156.23)"><stop offset=".22" stop-color="#B6DFE8"/><stop offset=".72" stop-color="#00B6E5"/></linearGradient><path fill="url(#j)" d="M230.7 84.67c2.97-2.75 4.03-6.97 4.5-10.64.97-6.3-9.1-10.2-15.9-11.4-11.14-2.54-17.05 1.16-24.1 8.82-.98-8.8-8.97-8.9-17.97-3.74.26-8.8-7.72-8.9-15.63-6.9-5.5.8-3.04.7-7.4-.6-2.48-.9-4.97-1.8-8.06-2.2.34-6.7-3.92-6 .77-11.5 5.3-6 11.8-12 .6-16.6 4.7-6.5 2.6-13.1-6.6-13.2 5.2-9.1-5.6-17.4-13.9-9.6-3.4-9.7-21.1-7.2-28.3-2.7C87.6 2.6 85 8 85.7 16.5c-4.2 3.8-7.9 4-12.6 8.4.4-4.7-5.3-9.1-8.75-3.7l-.64-.5C66.2 12.33 65 4.3 57.9 0H33.4c-5.7 3.17-9.5 8.62-9.22 15.4-8.28-.56-11.88 2.5-15.2 8.45-3.52-2.7-6.23-4.47-8.9-4.6V251.9c34.1-6.27 138.56-53.07 128.36-55.7 3.55-3.3 8.24-8.75 6.2-13.32-2.6-4.03-8.05-2.18-11.8-4.07 4.77-3.3 13.27-20.9 1.1-18.2 6.63-2.9 11.33-8.4 16.65-13.3 2.7 7.2 10.4 14 18.6 6.3 4.3 15.4 22.5 9.3 30.7-.5 6.2 2.8 13.7 4.5 20.3.5 8.9-6.2 4.9-14.3.4-20.8 4.2-1.8 9.5-6.7 13.7-9.6 7.2-4.5 7-7.6 7.4-14.4 15.8-2.9 16.2-24.8-1-23.9z"/><linearGradient id="k" x1="708.89" x2="922.49" y1="82.79" y2="82.79" gradientUnits="userSpaceOnUse" gradientTransform="matrix(-1 0 0 1 802.127 0)"><stop offset=".06" stop-color="#B3DEE8"/><stop offset=".2" stop-color="#9ED7E8"/><stop offset=".47" stop-color="#5AC3E7"/><stop offset=".65" stop-color="#00B6E5"/></linearGradient><path fill="url(#k)" d="M0 88.77c3.6-4.38 3.26-9.3 0-11.96v12z"/><linearGradient id="l" x1="708.89" x2="922.49" y1="175.69" y2="175.69" gradientUnits="userSpaceOnUse" gradientTransform="matrix(-1 0 0 1 802.127 0)"><stop offset=".06" stop-color="#B3DEE8"/><stop offset=".2" stop-color="#9ED7E8"/><stop offset=".47" stop-color="#5AC3E7"/><stop offset=".65" stop-color="#00B6E5"/></linearGradient><path fill="url(#l)" d="M91.42 222.78c-4-6.6-12.05-11.57-20.76-11.02 5.36-4.96 1.34-8.82-6.7-10.47 6.04-4.5 2.04-8.3-3.33-11.1-3.35-2.2-2-1.1-3.35-3.9-.67-1.7-1.34-3.3-2.68-5 4.68-3.3 2-5 8.03-5.5 6.7-.6 14.06-.6 11.38-8.3 6.7-1.1 10.1-5.5 5.4-9.9 8.7-2.2 8.7-11.6-.6-11.6 4.7-6.6-6-13.8-12.7-14.9-5.3-1.1-10 .5-14.7 0-4.7 0-6.7-1.7-12-1.7 3.4-2.2 3.4-7.1-2-6v-.5c8.7-3.9 14.1-10.5 8.7-18.2-5.3-7.7-17.4-9.9-25.4-3.3-3.8-4.3-7.7-4.4-13.4-3 0-5.5-.6-8.2-7-8.2v158.2c3.7 1.9 9 2.8 13.8 2.3 1.4 4.4 4.1 8.8 10.1 9.9 8.7 1.1 12.1-4.9 14.1-10.4 3.4 1.1 9.4 1.1 13.4 1.6 6.7 1.1 8.7-.6 13.4-3.9 10.1 6 24.8-5 15.4-12.7 3.4 0 6.7-1.7 9.4-3.3 4.7-2.8 4.7-5.5 2-9.4z"/><linearGradient id="m" x1="606.89" x2="856.83" y1="83.47" y2="83.47" gradientUnits="userSpaceOnUse" gradientTransform="matrix(-1 0 0 1 802.127 0)"><stop offset=".52" stop-color="#DAEDEB"/><stop offset=".64" stop-color="#BAE1EB"/><stop offset=".89" stop-color="#42BFE7"/><stop offset=".95" stop-color="#00B6E5"/></linearGradient><path fill="url(#m)" d="M192.66 117.95c-6.76-6.9-12.5-3.22-21.12-1.8-.37-6.6-4.62-11.64-13.82-12.4 3.57-3.02 9.9-2.98 11.4-7.74.9-2.9.33-9.1-5.52-7.8 2.93-2.9 6.33-4.6 5.48-8.8-2.54-12.6-13.23-8.5-14.95-11.2-14.35-22.1-30.2-1.9-30.2-1.9-26.33-8.1-31.55 10-27.35 16.2-5.08-6.1-11.4-5.7-19.73-5 3.37-5.5 8.53-11.5-2.13-14.6 4.3-.3 11.4-.3 14.9-2.6 2.53-1.7 3.98-5 .1-6.6 3.32-3.3.57-9.1-3.38-11.4-4.43-2.6-11.32-3.3-16.47-1.6-.63-3.8 1.08-8.5-4.82-10.3-4.5-1.4-10.63.3-14.8.7 11.65-6.5 13.7-14.6 8.67-24.6-1.08-2.2-2.37-4.3-3.86-6.4H0v155.6c8.15-1.1 18.27-6.1 19.65-12.8 2.85-.8 7.9.8 11.2.7 6.23-.1 8.62-1 13.13-4.2 4.3-3 6.48-4.6 5.88-9.2-.3-2.2-1.9-4.4-1.02-6.7 6.3-.5 12.93.1 19.33-.2-17.05 6.7-11.75 27.6 7.2 28.4 1.62 24.3 61.05 17.2 46.83-2.4 3.7 3.7 7.57 7.1 12.94 10.1 6.4 3.5 14.37 2.9 21.94 2.7 6.63-.1 14.35-1.2 18.75-5.3 2.35-2.2 2.4-4.5 3.92-6.9 6.32 2 11.48-.3 12.7-5.6 1.36-5.8-4.84-7.6-6.88-11.9 2.4-1.8 7.5-3.1 9-5.5 1.6-2.6.06-6.8-1.9-8.8z"/><linearGradient id="n" x1="701.26" x2="882.02" y1="72.33" y2="72.33" gradientUnits="userSpaceOnUse" gradientTransform="matrix(-1 0 0 1 802.127 0)"><stop offset=".12" stop-color="#EBF5ED"/><stop offset=".48" stop-color="#CEE9EE"/><stop offset=".85" stop-color="#A5DAEF"/></linearGradient><path fill="url(#n)" d="M99 85.38c-4.88-4.58-9.03-2.14-15.27-1.2-.27-4.4-3.34-7.74-10-8.24 2.6-2 7.17-2 8.25-5.15.65-2 .23-6.1-4-5.3 2.12-2 4.9-3.1 3.97-5.9-.6-1.9-2.47-8.5-3.82-10.2C70 39.1 49.17 46 49.17 46c-19.03-5.34-17.75 14.13-19.65 15.7-3.68-4.06-8.25-3.8-14.27-3.36 2.43-3.68 6.17-7.7-1.54-9.7 3.2-.25 8.3-.24 10.8-1.78 1.9-1.1 2.9-3.35.1-4.4 2.4-2.2.4-6.06-2.4-7.6-3.2-1.74-8.2-2.18-11.9-1.08-.4-2.53.8-5.65-3.5-6.86-2-.55-4.4-.34-6.7-.03v61.9c3 0 6 .1 9 0-12.3 4.4-8.5 18.3 5.2 18.8 1.2 16.1 44.2 11.4 33.9-1.7 2.7 2.4 5.5 4.7 9.4 6.7 4.7 2.3 10.4 1.9 15.9 1.8 4.8-.1 10.4-.8 13.6-3.6 1.7-1.5 1.8-3 2.9-4.6 4.6 1.3 8.3-.2 9.2-3.7 1-3.9-3.5-5.1-5-7.9 1.7-1.2 5.4-2.1 6.5-3.7 1.2-1.8.1-4.6-1.4-5.9z"/><linearGradient id="o" x1="701.26" x2="882.03" y1="16.27" y2="16.27" gradientUnits="userSpaceOnUse" gradientTransform="matrix(-1 0 0 1 802.127 0)"><stop offset=".12" stop-color="#EBF5ED"/><stop offset=".48" stop-color="#CEE9EE"/><stop offset=".85" stop-color="#A5DAEF"/></linearGradient><path fill="url(#o)" d="M0 24.98c4.8-3.85 5.24-8.4 2.28-13.87C1.63 9.9.86 8.8 0 7.6V25z"/><linearGradient id="p" x1="742.62" x2="886.76" y1="176.71" y2="176.71" gradientUnits="userSpaceOnUse" gradientTransform="matrix(-1 0 0 1 802.127 0)"><stop offset=".22" stop-color="#D6ECEB"/><stop offset=".35" stop-color="#C4E5EB"/><stop offset=".62" stop-color="#8FD2E9"/><stop offset=".96" stop-color="#00B6E5"/></linearGradient><path fill="url(#p)" d="M58.28 206.83c-2.7-4.3-8.13-7.5-14-7.14 3.6-3.3.9-5.8-4.53-6.8 4.07-2.9 1.36-5.4-2.25-7.2-2.26-1.5-1.36-.7-2.26-2.5-.46-1.1-.9-2.2-1.8-3.2 3.15-2.2 1.34-3.2 5.4-3.6 4.53-.4 9.5-.4 7.7-5.4 4.5-.7 6.77-3.6 3.6-6.5 5.88-1.4 5.88-7.5-.44-7.5 3.16-4.3-4.07-8.9-8.6-9.7-3.6-.7-6.77.3-9.93 0-3.17 0-4.52-1.1-8.13-1.1 2.25-1.4 2.25-4.6-1.36-3.9v-.3c5.87-2.5 9.5-6.8 5.87-11.8-3.6-5-11.74-6.5-17.17-2.2-2.6-2.8-5.22-2.9-9.04-1.9 0-2.2-.18-3.7-1.34-4.5v102.9c1.88.4 3.93.5 5.86.3.9 2.8 2.7 5.7 6.78 6.4 5.88.7 8.13-3.2 9.5-6.8 2.25.7 6.32.7 9.03 1 4.52.8 5.88-.3 9.04-2.5 6.8 4.2 16.8-3 10.4-8 2.3 0 4.6-1.1 6.4-2.2 3.2-1.8 3.2-3.6 1.4-6.1z"/><linearGradient id="q" x1="343.5" x2="343.5" y1="362.6" y2="86.01" gradientUnits="userSpaceOnUse"><stop offset="0" stop-color="#D4EDF9"/><stop offset=".55" stop-color="#D5ECF1"/><stop offset=".66" stop-color="#E3F2F3"/><stop offset=".86" stop-color="#F7FBF7"/><stop offset=".99" stop-color="#FEFEF8"/></linearGradient><path fill="url(#q)" d="M687 129.23c-.44-.02-.88-.05-1.33-.05-1.8 0-3.57.15-5.3.4-2.5-2.3-6.2-3.77-10.32-3.77-4.34 0-8.2 1.7-10.7 4.2-2.47-5.4-8.8-9.2-16.27-9.2-6.66 0-12.44 3.1-15.36 7.6-5.2-3.6-11.93-5.8-19.3-5.8-16.46 0-29.8 11-29.8 24.5 0 3.7 1 7.2 2.78 10.4-.92-.1-1.84-.2-2.8-.2-2.06 0-4.03.3-5.86.9-2.23-1.6-5.22-2.6-8.5-2.6-3.42 0-6.5 1.1-8.76 2.8-1.32-1-2.65-2-3.77-2.7-6.4-4.3-15.1-4.8-22.9-5.4-12.9-1-27.3 14.5-19.5 23.5-1.9-1.1-4.2-1.9-6.6-2.4-2.5-1.2-5.5-1.9-8.6-1.9-8.8 0-16 5.4-17.2 12.3-.9-.1-1.8-.2-2.8-.2-5.5 0-10 2.7-10 6 0 1.3.8 2.6 2.1 3.6-20.7 4.4-37.5 16.8-45.1 32.9-3-4.3-8.6-7.2-15.1-7.2-2.5 0-4.9.5-7.1 1.3.2-2.4.8-4.7 1.2-7 .7-4.4.7-8.8 1.3-13.2 1.3-8.4 3.6-18.8-.9-27-4.6-8.5-14.6-14.4-26.1-16.2-2.8-.4-5.2-.4-7.5-.1-7.6-12.2-23.1-20.5-40.9-20.5-7.7 0-15 1.6-21.4 4.4-1.8-.9-3.9-1.5-6.1-1.5-6.5 0-11.8 4.8-11.8 10.7v.6c-.6-.1-1.3-.1-2-.1-6.1 0-11.1 4.6-11.1 10.2 0 3.6 2.1 6.8 5.2 8.6-18.8.4-34.7 10.1-41.3 23.7-1.1-.2-2.2-.3-3.3-.3-5.9 0-11.1 2.5-14.2 6.1-3.7-1.9-8.1-3-11.4-2.8 1.3-4.7 6.2-10.6 10.1-14.3 5.8-5.4 8.2-9.3 9.1-16.4 1.6-11.9-4.7-22-20.4-22.8 0-3.9 6.9-9.5 9.2-13.2 3-4.7 4.6-12.2 3.6-17.5-2.7-14.6-19-21.6-36.1-21.6h-3.7c-2.8-.7-5.8-1.1-8.8-1.1-16.5-.1-29.8 10.9-29.8 24.4 0 4.5 1.4 8.6 4 12.2-5.1 2.5-8.5 7.1-8.5 12.3 0 2.4.7 4.6 1.9 6.5-2.1 1.8-3.9 3.8-5 5.6-1.8 3-2.1 5.7-1.6 8.3h-.2c-10.4 0-18.9 6.8-18.9 15.2 0 2.8 1 5.4 2.6 7.7-.2 1.3-.6 2.5-1.6 3.1.3 3.3-2.3 6.1-1 9.6-3.4.8-6.7 1.8-9.9 2.9-2.3-1-5-1.6-7.8-1.6-8.6 0-15.6 5.3-15.8 11.9-9.4.2-16.9 6.5-16.9 14.2 0 1.8.5 3.6 1.2 5.2-1.2-.1-2.5-.2-3.8-.2-2.6 0-5 .3-7.3 1-6-5.2-14.9-8.5-24.8-8.5-11.8-.1-22 4.5-27.8 11.4v49c.2.1.3.3.4.4l-.3-.3v65c1.8 4.3 7.8 7.4 14.8 7.4 4.6 0 8.7-1.3 11.5-3.4 3 4.1 9.6 6.9 17.3 6.9 6.6 0 12.4-2.1 15.8-5.2 2.3 1.2 5.1 1.9 8.1 1.9 5.5 0 10.2-2.2 12.6-5.4 2.6.2 5.3.3 7.8.5 8.3.6 16.2.9 23.9.6 2.1 4.3 7.5 7.3 13.7 7.3 3.9 0 7.4-1.1 10-3 1 .2 2 .3 3 .3 8.6 0 15.7-5.4 16.6-12.3.9.5 1.7.9 2.3 1.1 2.6.8 4.7.9 7.5 1.3 9.2 1.3 18.3 2.3 27.4 4.1l3.1.6c-.1.6-.1 1.2-.1 1.9 0 9.2 10.8 16.7 24.2 16.7 8.5 0 16-3 20.3-7.6.7.1 1.5.2 2.3.2 6.5 0 12.2-2.9 15-7.1 2.8 2.8 7.1 4.6 12 4.6 5.7 0 10.6-2.4 13.2-6 5 .2 10.2-.6 13.3-1.7 2.4-.9 4.4-2.3 6.1-3.9 2 2.8 6.3 4.7 11.2 4.7 4.2 0 7.9-1.4 10.2-3.5 3.3 2.2 7.8 3.5 12.7 3.5 10.2 0 18.4-5.8 18.4-13 0-.7 0-1.4-.2-2.2.5-.2 1.1-.3 1.6-.4-.9 1.6-1.3 3.4-1.3 5.27 0 7.7 7.9 13.9 17.7 13.9 2.1 0 4-.3 5.8-.8 2.8 3.2 7.6 5.2 13.1 5.2 6.2 0 11.5-2.6 14-6.4 2.6.4 5.3.6 8 .8 3 8.4 12.3 14.5 23.3 14.5 11.36 0 20.9-6.5 23.6-15.4 3.5-.83 6.96-1.9 10.1-3.2 6.1-2.33 13.3-7.43 20.38-6.8 3.17 8.8 15.86 17.1 27.4 12 4-1.8 1.2-2.7 6.4-1.8.6.1 1.2.2 1.9.4 1.3 8.34 11 14.8 22.7 14.8 5 0 9.5-1.1 13.3-3.06 3.8 1.9 8.2 3.04 13 3.04 11.6 0 21.3-6.7 24.2-15.7 3.6-.9 7.2-1.85 10-3.6 1.05-.7 2.25-1.86 3.4-3.1 3.03 3.4 8.1 5.6 13.8 5.6 6.2 0 11.6-2.6 14.5-6.5 1.6.76 3.3 1.5 5 2.2 2.45 5.7 9.94 9.9 18.8 9.9 4.4 0 8.5-1.04 11.8-2.8 3.86.1 7.6-.14 11.17-.9v-219z"/><linearGradient id="r" x1="343.5" x2="343.5" y1="341.83" y2="103.75" gradientUnits="userSpaceOnUse"><stop offset=".28" stop-color="#E2F2F6"/><stop offset=".3" stop-color="#E3F3F6"/><stop offset=".67" stop-color="#F7FBFD"/><stop offset=".9" stop-color="#FEFFFF"/></linearGradient><path fill="url(#r)" d="M687 159.18c-2.84 1.64-5.2 3.64-6.9 5.9-.04-.43-.1-.86-.18-1.28 1.08-1.48 1.7-3.12 1.7-4.87 0-6.14-7.5-11.1-16.77-11.1-6.42 0-12 2.38-14.8 5.9-5.03-2.82-11.52-4.53-18.6-4.53-15.9 0-28.77 8.54-28.77 19.07 0 2.87.97 5.6 2.7 8.05-.9-.1-1.78-.16-2.7-.16-7.62 0-14.04 3.37-16.1 7.98-.34.16-.67.34-.94.55 1.68-3.6-4.98-7.8-8.9-10-6.18-3.4-14.56-3.8-22.1-4.3-12.45-.8-26.37 11.3-18.82 18.3-1.9-.8-4.08-1.5-6.37-1.9-2.45-.9-5.27-1.5-8.3-1.5-5.3 0-10.03 1.6-13.1 4.2-1.94-.6-4-.9-6.18-.9-9 0-16.56 5.1-18.57 12.1-1.73-.6-3.58-.9-5.52-.9-8.88 0-16.07 6.7-16.07 15 0 .2 0 .4.1.6-4.7 3.6-8.4 7.7-11.1 12.3-2.9-3.4-8.3-5.7-14.6-5.7-2.4 0-4.7.3-6.8 1 .2-1.8.7-3.6 1.1-5.5.7-3.4.7-6.9 1.3-10.3 1.2-6.6 3.5-14.7-.9-21-4.5-6.7-14.1-11.3-25.2-12.7l-.5-.1c-2.5-9.2-11.7-16-22.7-16-3.2 0-6.2.5-9 1.6-4.5-1.1-9.4-1.6-14.4-1.6-3.5 0-7 .2-10.3.8-2.5-1.5-5.4-2.3-8.6-2.3-8.2 0-15 5.5-15.9 12.7-.7.6-1.4 1.2-2 1.8-4.6.8-8.2 4.5-8.2 8.9 0 1.2.3 2.3.8 3.4-3.9-2.7-8.7-4.2-13.9-4.2-11.3 0-20.8 7.4-22.7 17.1-1.8 1.8-3.4 3.7-4.6 5.7-1-.2-2.1-.2-3.2-.2h-2c-.3-6.2-3.4-11.4-7.8-13.5 1.9-2.3 3-4.7 3.5-8 .6-3.7 0-7.2-1.8-10 1.3-1.8 2.1-3.8 2.1-6 0-5.8-5-10.5-11.6-11.4.2-.3.4-.5.6-.7 2.8-3.7 4.4-9.5 3.5-13.7-1.2-5.4-5.4-9.4-11.1-12.2.3-1.4.5-2.8.5-4.3 0-10.1-8.1-18.3-18.1-18.3-9.6 0-17.4 7.5-18.1 17-14.3 0-26.2 7-28.4 16.1-7.3 3-12.4 9.7-12.4 17.4 0 1.4.2 2.9.5 4.2-1-.1-2.1-.2-3.1-.2-14.9 0-27 10.8-27 24.2 0 1.6.2 3.2.5 4.8-6.9 1.6-12.1 7.3-12.1 14.1 0 .5.1 1 .1 1.5-12.7 2.1-23.2 10-28.1 20.5-2.2-1.1-4.8-1.8-7.6-1.8-7 0-13 4.1-14.9 9.7-4-1.5-8.3-2.3-12.9-2.3-13.3 0-24.9 7-30.4 17.1-3-1.2-6.3-1.8-9.8-1.8-11.2.1-20.6 6.7-23.7 15.8V317c10.6 3.2 23.2 5 36.8 5 19.5 0 37.2-3.8 49.6-9.9 8.4 7.5 22 8 35.5 8.5 2.2 7.8 11.7 13.7 23.1 13.7 5.6 0 10.8-1.4 14.8-3.75 1.4.2 2.8.3 4.2.3 11.7 0 21.5-6.8 24.2-16.1 1.2-.3 2.4-.4 3.5-.3.3 0 .8.1 1.2.3 3.8 3.4 9.8 5.7 16.7 5.7 3.4 0 6.6-.6 9.4-1.6 3.8.4 7.5.9 11.3 1.5 8.7 1.4 16.7 1.24 25.8 1.4 6.9.13 17.8 2.9 17.9-3.94 2.6.6 3.4 2.5 6 3.4 2.9 1 6.5.6 9.7.6h4.2c2.9 5.3 9.2 9 16.6 9 6.6 0 12.4-2.9 15.6-7.3 2.8 4.4 7.9 7.4 13.7 7.4 2.1 0 4.2-.4 6.1-1.2 2.3 5.3 8 9 14.6 9 6.5 0 12.1-3.5 14.5-8.5 9.9 0 18.7-3.1 24.2-7.9 1 .1 2.1.2 3.2.2 3.2 0 6.3-.6 9.2-1.8 2.8 5.5 9.8 9.4 17.9 9.4 6.3 0 12-2.3 15.5-6 1.4.1 2.8.1 4.2.1 8 0 15.7 1 23.5.8 8.3-.2 17.3-1.8 24.9-4.2 5.9-1.8 12.8-5.8 19.7-5.3 3.1 6.8 15.3 13.3 26.4 9.3 1.3-.4 1.8-.8 2.2-1.1 1 8.4 10 15 21 15 7.8 0 14.6-3.3 18.3-8.2 3.4 6.1 10.9 10.4 19.7 10.4 9 0 16.6-4.4 19.9-10.7h1.2c12.1 0 21.9-7 21.9-15.6 0-2.2-.6-4.2-1.7-6.1.8.6 1.8 1.4 2.9 2.2 2.8 1.8 6 3.5 9.3 4.9 7.7 3.4 18.3 6.6 28.9 8.1V159z"/><linearGradient id="s" x1="252.18" x2="252.18" y1="339.22" y2="181.84" gradientUnits="userSpaceOnUse" gradientTransform="matrix(-1 0 0 1 802.127 0)"><stop offset=".11" stop-color="#EAF6F9"/><stop offset=".61" stop-color="#F6F9F9"/><stop offset=".92" stop-color="#FFFCF9"/></linearGradient><path fill="url(#s)" d="M687 199.42c-12.4-1.35-26.9 2.28-30.38 12.73-.5-5.1-1.9-11.26-8.2-14.1-3.4-1.54-14.54-2.66-16.3 1.67.44-4.62 1.83-8.54-2.18-12.48-3.86-3.78-9.4-5.95-15.42-5.28-17.15 1.9-20.2 16.17-19.44 27.65-5.27-6.7-18.93-2.4-18.73 5.3-3.56.4-6.37-.6-8.9 1.9-1.55 1.6-2.43 4.6-2.48 6.7-2.32-2.2-3.7-6-6.96-8.2-3.8-2.5-7.5-2.3-12.1-2.8-.9-5.7.2-8.9-6.5-12.3-5.7-2.9-13.5-5-20.3-3.4-4.3 1-12.6 6.2-15.1 9.3-4.5 5.8.2 11-1.5 16.7-9.3-6-13.4 10-6.3 14.5-9.9 3.6-6.1 11.8-2.7 17.6-4.6.6-9.1-2.2-14.3-1.5-6.3.8-8 5.2-8.4 9.8-6.2-3.8-16.1-3-17.5 4.4-5.6.6-10.6-1.2-16.2 0-4.6.9-9.9 3.2-13.1 6.3-5.9 5.8-5.7 14.4.4 20.1-4.9 1.1-9.9.7-11 5.9-.9 5 2.4 9.1 7.3 11.6 10 5.2 20.5 4.1 31.7 5.4 2.1 6.4 13.5 8.8 20.7 8.4 2.2-.1 3.9-1.5 5.9-1.9 2.4-.4 3.8-.4 6.5.2 2.2.5 4.9 1.2 7.2.9 3-.5 4.5-2.7 7.1-3.4.5 3.3-.9 7 1.4 9.9 2.1 2.8 7.5 5 11.1 6.1 7.8 2.5 15.8 3.6 23.8 1.1 7.2-2.2 13.1-6.5 18-11.4 6.3-6.2 5.3-13.3 6.6-20.7 9.9 6.2 29 4.8 29.8-6.9 7.1-1.5 18.6 7.4 18.5-4.2 4.6.5 12.8 3.1 17.5 1 3.3 1.7 5.2 5.1 8.3 7.1 2.9 1.9 6.1 3.2 9.8 3.8 3.9.7 6.2-.2 10.5 1.3 4.5 1.5 8.7 3.2 13.4 3.6 5.1.4 8.8.4 12.4-2.6 3.1-2.6 3.9-3.8 6.7-3.7v-106z"/><linearGradient id="t" x1="170.52" x2="170.52" y1="341.88" y2="179.04" gradientUnits="userSpaceOnUse"><stop offset=".16" stop-color="#E6F4F8"/><stop offset=".26" stop-color="#ECF7FA"/><stop offset=".58" stop-color="#FAFDFE"/><stop offset=".81" stop-color="#FFF"/></linearGradient><path fill="url(#t)" d="M333.32 243.66c-2.46-2.4-5.1-3.83-7.9-4.75 0-.1.03-.3.03-.5 0-4.4-4.04-8-9.03-8-.68 0-1.34.1-2 .2.27-.8.4-1.6.4-2.5 0-4.6-3.92-8.5-9.44-10 6.05-3.8 10.43-8.5 8.66-14.7-1.96-6.9-14.17-13.4-23.6-14.2-9.3-.8-19.4.2-25.93 5.1-1.6 1.2-2.9 2.4-3.9 3.7h-.6c-4.8 0-8.8 3.4-8.8 7.5 0 .6.1 1.1.2 1.6-5.1.7-9.3 3.4-11 7-1.9.1-3.6.5-5.4 1.7-5.5 3.8-5.4 9-6.6 14-3.3-1.8-10.5-.4-15.1 2.1-2-4.2-7.4-7.3-13.8-7.3-5.8 0-10.9 2.6-13.3 6.3-6.7-.6-13.4-.2-19.4 2.9-3.5 1.9-6.2 4.6-7.7 7.5-1.5-2.1-4-3.7-6.9-4.7 1.3-2.5 2-5.2 2-8.1 0-6.1-3.2-11.6-8.4-15.7.5-.9.8-2 .8-3 0-4.3-4.2-7.9-9.9-8.8.9-2.6 1.5-6.7 1.1-9.2-.9-6.6-6.9-13.3-18.2-12-7.9.9-15.2 6-17.3 11.1-1.1 2.7-1.2 5.2-.7 7.7-.9-.1-1.8-.2-2.8-.2-5.3 0-9.8 2.1-12.4 5.2-1.7.5-3.2 1.3-4.4 2.5-6.7 6.5 1.2 13.6 4.7 19.2-5.9-4.7-13.3.7-16.5 4-4 4.4-6.2 10.2-2.2 15.1-6-.6-15.1 4.9-14.7 9.8-1.4-1.2-3.7-1.8-6.2-1.9-4.5-1.8-9.6-2.9-15.1-2.9-4.3 0-8.4.7-12.2 1.8-3.1-2.7-7.9-4.4-13.4-4.4-2.1 0-4.1.3-5.9.8V313c2-.84 4.1-1.8 6.1-2.84 5.8 3.44 12.2 6.2 20.1 6.5 6 .24 11-2.76 15.8-4.95 7.1 4.3 13.4 6.4 23 7.3 8.9.8 15.8-2.3 22.5-5.3 1.8-.8.4-1.2 3-1.5 1-.1 4.1.7 5.4.8 4 .3 7.8.1 10.5-2.2 3-2.5 4.2-11.5 1.4-14.1 5.8-.3 12.2-.8 16.8-3.3 2.6-1.5 3.3-4.3 4.9-5.9 1.6.6 3.3 1.2 5.1 1.6-.1.9-.6 1.9-1 2.8-2.5 2.4-4.1 5.6-4.1 9.1 0 5.8 4.4 10.8 10.4 12.7v.8c0 6.5 9.4 11.7 21 11.7 6.5 0 12.2-1.6 16.1-4.1 2.2 1 4.8 1.6 7.6 1.6 2.6 0 5-.5 7.1-1.3.8.3 1.6.6 2.4.8-.1.5-.2 1-.2 1.4 0 5.8 7.3 10.5 16.3 10.5 1.3 0 2.5-.1 3.8-.3 4.4 1 9.5 1.6 12.5.3 3.5 3.8 13.3 6.3 19.2 4.6 3.1-.8 5-2.2 6.3-3.9 1.9 4 7.2 6.9 13.4 6.9 6.9 0 12.6-3.4 13.9-7.9 2.8.4 5.5.5 8.2.1 5.9-.9 11-3.4 14.4-6.6 9-.9 15.7-4.9 15.7-9.6 0-.6-.1-1.3-.4-1.9 4.6-.5 8.9-1.6 10.2-4.3 3.5-7-5.8-12.8-13.8-16.2 4.3-1.6 7.3-4.8 7.3-8.6h.5c7.5 0 13.7-3.9 13.7-8.8 0-1.6-.7-3.2-1.9-4.5 4.4-3.1 7.3-7.2 8-11.7 1.1-6.4-2.1-13-7.5-18.2zM54.1 255.36c-.07-.24-.16-.47-.27-.7.1-.04.2-.12.26-.22v.92z"/><linearGradient id="u" x1="436.59" x2="436.59" y1="324.1" y2="215.42" gradientUnits="userSpaceOnUse" gradientTransform="matrix(-1 0 0 1 802.127 0)"><stop offset="0" stop-color="#ECF7FC"/><stop offset=".13" stop-color="#F4FAFC"/><stop offset=".36" stop-color="#FDFEFB"/><stop offset=".64" stop-color="#FFFFFB"/><stop offset=".85" stop-color="#FEFEFA"/><stop offset=".97" stop-color="#F7FBF7"/><stop offset="1" stop-color="#F4F9F5"/></linearGradient><path fill="url(#u)" d="M332.17 237.9c-7.45-7.1-6.7-14.5 3.5-20 10.57-5.7 23.3-1.16 25.62 9.38.8-1.66 3.4-3.46 6.1-3.5 4.6-.04 5.3 2.55 7.7 4.45 2.1 1.73 1.2.93 4 1.76 1.6.4 2.7-.1 4.2.8 3.1 1.8 1.8 3.9 2.3 6.9 3.9 0 8.7-2.9 12.8-3.2 6.3-.6 11.3.3 16.9 2.6 5.6 2.3 10.5 5.1 12 10.3 1.6 5.7 0 8.3-3.4 13 5-.4 6.8 5.2 4.3 7.9 4.9.7 9.7.4 10.8 5.3 2.2.6 6.6-.7 9.4-.7 3.8 0 7.1.3 10.4 1.9 6.9 3.4 9.7 9.8 1.6 13.2 2.8 1.3 6.3 0 9 1.7 3.3 2 2.1 4.6 2.5 7.6 8 .8 16.7-.3 22 6.4 6.4 8.1-8.4 9.9-14.7 10.5-4.2.4-8.4.9-12.8.5-2-.2-4.3-.7-6.4-.9-1.8-.2-5.9-2-7.6-1.7-3.7.7-5 4-9.6 4.5-5.8.6-9.8-1.1-13.1-5-4.9 2.3-9.8 1.7-14.7-.1-6.6-2.4-6.8-3.6-7.7-8.9-11.9 1.1-15.8-10.2-8.8-16.7-2.9-.3-6 .1-9-.1-3.7-.3-8.4-2.5-12-1.6 5.6 9 3.2 21.2-6.6 27.7-4.5 3-12.4 5.1-18.2 4.6-3.2-.3-5.7-1.4-8.5-2.7-2.9-1.3-5.6-4.8-8.4-5.2-.5 5-5.4 8-11.9 6.8-1.9-.4-1.9-1.5-4.1-1.4-.5 0-2.1 1.2-2.7 1.3-2.6.8-4.3 1.1-7.1 1.3-1.4 5.5-11.8 6.8-17.3 5.8-2-.4-2.1-1.4-4-1.4-.8 0-2.6 1.3-3.4 1.6-2.8.9-6.6.9-9.7.8-6.2-.2-19.1-4.2-22.5-8.8-3.5-4.8 1.7-10.5 5.2-13.9-3.6-.5-7.2.3-10.6-.8-5-1.5-3.9-3.5-4.5-7.1-3.6.2-7.5-2.8-8.7-5.4-1.8-3.7 1.1-5.8 4.3-8.2 7-5.2 19.3-5.3 27.6-2.5-10.3-11.6 11-15.1 20.4-11.4 1.5-3.1-2.8-4.9 1.3-7.6 2.3-1.5 7.3-1.8 9.7-.6-2-5.8-5.4-10 .2-15.3 4.7-4.5 13.6-3.6 18.7-.4.8-3 6.5-5.7 10.1-5.2h-.1l4.2.8z"/><linearGradient id="v" x1="658.96" x2="658.96" y1="111.54" y2="67.05" gradientUnits="userSpaceOnUse" gradientTransform="matrix(-1 0 0 1 802.127 0)"><stop offset="0" stop-color="#ECF7FC"/><stop offset=".13" stop-color="#F4FAFC"/><stop offset=".36" stop-color="#FDFEFB"/><stop offset=".64" stop-color="#FFFFFB"/><stop offset=".85" stop-color="#FEFEFA"/><stop offset=".97" stop-color="#F7FBF7"/><stop offset="1" stop-color="#F4F9F5"/></linearGradient><path fill="url(#v)" d="M129.5 76.25c-3.04-2.9-2.74-5.94 1.44-8.2 4.33-2.32 9.55-.46 10.5 3.86.34-.6 1.4-1.4 2.5-1.4 1.9 0 2.2 1.1 3.17 1.8.9.7.6.4 1.7.8.7.2 1.1 0 1.8.4 1.3.8.8 1.6 1 2.9 1.6 0 3.6-1.1 5.3-1.3 2.6-.2 4.7.1 6.9 1.1 2.3 1 4.3 2.1 4.9 4.2.7 2.4 0 3.4-1.3 5.4 2.1-.1 2.8 2.2 1.8 3.3 2 .3 4 .2 4.4 2.2 1 .3 2.7-.3 3.9-.3 1.6 0 3 .2 4.3.8 2.9 1.4 4 4.1.7 5.5 1.2.6 2.6 0 3.7.7 1.4.9.9 1.9 1.1 3.1 3.3.4 6.8-.1 9 2.7 2.6 3.3-3.4 4.1-6 4.3-1.7.2-3.4.4-5.2.2-.8 0-1.7-.2-2.6-.3-.7 0-2.4-.8-3.1-.7-1.5.3-2 1.7-3.9 1.9-2.3.3-4-.4-5.3-2-2 1-4 .7-6 0-2.7-.9-2.7-1.4-3.1-3.6-4.8.5-6.4-4.2-3.5-6.8-1.2-.1-2.5.1-3.7 0-1.5-.1-3.4-1-4.9-.7 2.3 3.7 1.3 8.7-2.7 11.4-1.8 1.3-5 2.1-7.4 1.9-1.3-.1-2.3-.6-3.5-1.1-1.1-.5-2.2-1.9-3.4-2.1-.2 2.1-2.2 3.3-4.9 2.8-.8-.2-.8-.6-1.7-.6-.2 0-.8.5-1 .5-1 .3-1.7.5-2.9.5-.5 2.3-4.8 2.8-7.1 2.4-.8-.1-.8-.6-1.6-.6-.3 0-1.1.6-1.4.7-1.1.4-2.7.4-4 .4-2.5 0-7.8-1.7-9.1-3.6-1.4-1.9.7-4.3 2.1-5.7-1.4-.2-2.9.1-4.3-.3-2-.6-1.5-1.4-1.8-2.9-1.4.1-3-1.1-3.5-2.2-.7-1.5.5-2.3 1.8-3.3 2.9-2.1 7.9-2.2 11.3-1-4.2-4.8 4.6-6.2 8.4-4.7.6-1.2-1.1-2 .6-3.1.9-.6 2.9-.7 4-.2-.8-2.3-2.2-4 .1-6.2 1.9-1.8 5.5-1.5 7.6-.1.4-1.2 2.7-2.3 4.1-2.1h-.1l1.8.4z"/><linearGradient id="w" x1="191.13" x2="191.13" y1="315.58" y2="245.84" gradientUnits="userSpaceOnUse" gradientTransform="matrix(-1 0 0 1 802.127 0)"><stop offset="0" stop-color="#F4F9F2"/><stop offset=".09" stop-color="#F6FAF5"/><stop offset=".55" stop-color="#FFF"/></linearGradient><path fill="url(#w)" d="M687 275.9c-1.78.23-3.42.76-4.72 1.88.57-1.32 2.82-2.68 4.72-4.08v-18.6c-1.1-.9-2.3-1.68-3.53-2.22-1.8-.78-3.88-1.44-5.95-1.45-3 0-4.12 1.63-6.36 3 .53-3.06-.2-5.1-4.57-5.65-3.2-.4-8.2 1.64-7.9 4.68-3 .83-5.8-2.13-9-.5-2.8 1.45-2.2 4.07-2.7 6.22-2.7-3.15-11.3-2.56-12.8 1.57-1.7-2.14-3.5-2.42-6.4-2.54-.4-2.5.6-5.1-1.4-7.3-2.1-2.1-5.8-3.8-9.1-4.7-3.6-1-7.2.6-8.6 3.6-1 2.1-.6 5-.5 7.3l-.1-.2c-1.7-.2-4.5-.4-5.8.9-1.2 1.3-.5 3.3-.7 4.7-3.4-.3-5.7 3.7-2.7 5.4-2.5.7-5.6 2-6.3 4.3-.8 2.7 2.5 3.5 2.5 5.7-3.1.4-6.8-.9-10.2-.3-3 .5-6.7 2.2-9.1 3.7-2.2 1.5-3.8 4.4-4.4 6.4-.3 1.1-.4 3-.2 4.1.2 1.3 1.7 2.3 1.2 3.6-2.6.3-9.6-1.1-9 2.7-1.2.3-2.6-.3-3.8-.4-1.4-.1-3.2-.1-4.5.1-2.6.4-5.6 1.5-5.3 4.1-4.7.5-10.1-.1-13.9 2.8-5.3 4 3.9 5.7 6.9 6.3 9.6 1.8 20.7.3 30.2-.6 2.7-.3 3.7-1.3 5.8.1 1.5 1.1 2.5 2.4 4.3 3.3 3.8 1.9 9.1 2.6 13.7 2 4.5-.6 6.9-4.7 10.9-5.3 2.4-.3 4.7-.1 6.5-1.7 2.2-2 0-3.7.7-5.5 4.6 1.5 8.3 4.5 12.9 6 3 1 12.6 1.8 13.5-1.9 4-.5 6.9 3.6 11.4 3.1 5.4-.5 6.6-3 7.2-6.8 3.4-.3 11.1 1.5 11.6-2.1 2.3.8 3.6 3.5 5.8 4.6 2.8 1.4 6.3.8 8.7-.5V276z"/><linearGradient id="x" x1="178.99" x2="178.99" y1="45.76" y2="9.28" gradientUnits="userSpaceOnUse" gradientTransform="matrix(-1 0 0 1 802.127 0)"><stop offset="0" stop-color="#F4F9F2"/><stop offset=".09" stop-color="#F6FAF5"/><stop offset=".55" stop-color="#FFF"/></linearGradient><path fill="url(#x)" d="M687 25.72c-.2.08-.42.16-.6.26.1-.17.32-.34.6-.5V12.85c-1.45-.36-3.1-.65-4.72-.66-2.6 0-3.56.8-5.5 1.5.46-1.6-.15-2.7-3.94-3-2.72-.2-7.06.8-6.76 2.4-2.55.4-4.95-1.1-7.72-.3-2.4.7-1.92 2.1-2.32 3.2-2.36-1.7-9.7-1.4-11 .8-1.43-1.2-3-1.3-5.48-1.4-.34-1.3.55-2.7-1.18-3.8-1.76-1.2-5-2-7.8-2.5-3.07-.6-6.2.3-7.36 1.8-.8 1.1-.5 2.6-.42 3.8l-.08-.1c-1.48-.1-3.87-.2-4.96.4-1 .7-.4 1.7-.6 2.5-2.92-.2-4.9 1.9-2.33 2.8-2.17.3-4.76 1-5.4 2.2-.74 1.4 2.17 1.8 2.18 3-2.6.1-5.8-.5-8.8-.2-2.5.2-5.8 1.1-7.8 1.9-1.8.7-3.2 2.3-3.7 3.3-.3.6-.3 1.5-.1 2.1.2.7 1.5 1.2 1.1 1.9-2.2.1-8.3-.6-7.8 1.4-1 .1-2.2-.2-3.2-.3-1.1-.1-2.7-.1-3.8 0-2.3.2-4.8.8-4.5 2.1-4.1.3-8.7 0-12 1.5-4.5 2.1 3.4 3 6 3.3 8.3.9 18 .1 26.2-.4 2.4-.2 3.2-.7 5 0 1.3.5 2.2 1.2 3.8 1.7 3.3 1 7.9 1.4 11.8 1.1 4-.4 6-2.5 9.5-2.8 2.1-.2 4.1-.1 5.6-.9 1.9-1.1.1-1.9.6-2.9 4 .8 7.3 2.4 11.2 3.2 2.6.5 10.9 1 11.7-1 3.5-.3 6 1.8 9.9 1.6 4.7-.3 5.7-1.5 6.2-3.5 2.9-.2 9.6.8 10.1-1.2 1.9.4 3.1 1.8 5 2.4 1.2.4 2.7.5 4 .4v-15z"/><linearGradient id="y" x1="1400.42" x2="1400.42" y1="368.09" y2="298.4" gradientUnits="userSpaceOnUse" gradientTransform="translate(-1266.07)"><stop offset=".07" stop-color="#E6F4F9"/><stop offset=".25" stop-color="#F4FAFC"/><stop offset=".44" stop-color="#FDFDFE"/><stop offset=".68" stop-color="#FFFEFF"/></linearGradient><path fill="url(#y)" d="M264.23 351.6l-15.6-3.74c7.3-9.66-9.34-15.85-14.06-8.44 2.04-4.52 2.63-7.8-3.48-9.1-5.6-1.18-10.2 1.1-12 6.94-2.5-3.53-10.2-7.18-13.2-2.83-1.8-3.65-6.9-3.37-10.2-3.38-3.3-.02-4.5.5-6 2.57 1.6-3.14 2.6-7.9 1.6-11.03-1.3-3.8-6.8-5.1-9.7-3.2 1.4-29-44.8-26.7-44.1 1.9-2.6-2.8-4.8-6-8.7-6.3-4.8-.3-6.5 4.5-8.7 8-3.1-4.8-7.1-1.6-7.8 2.8-2.9-4.8.2-12.2-2-17.5-2.4-5.6-6-8-11.1-9.2-5.3-1.3-11.4-2-16.5.9-5.8 3.3-6.2 8.7-7.1 14.7-4.5-5-10.6-5.2-12.9 2.6.6-2.6-.9-7.1-3.5-7.9-3.7-1.3-7.3 3.4-9.6 5.5-2.7-1.9-3.5-4.9-7-5.8-2.9-.7-7.1-.1-9.6 1.2-5.7 3-9 8.7-6.8 15.3-3.1-1.9-7.7-2.6-10.5.3-2.8 2.8-2 10.1-5.2 11.3-.8.3-3.3-1-4.2-1.2-1.7-.5-3.3-.8-5.4-.8H0v29.2c.8.6 1.6 1.2 2.44 1.5 2.46.7 7.16.7 9.58 0 3.83-1.1 3.77-3.5 7.76-1.9 3.36 1.3 5 2.9 8.64 1.4 6.93-2.8 10.25-9.5 10.56-17 5-.7 8.73.4 12.5-3.8-1.45 4-.42 8.9 2.27 12 4.38 5.1 7.64 3.1 12.7 1.9-.4 5.2 6.02 7 9.67 7.3 2.5.2 4.67-.4 6.98-.7 1.08-.1 1.03-1.1 2.34-1 .5 0 2.65 1.6 3.44 1.9 5.15 1.8 11.47 2.2 15.86-2.1 4.53-4.5 3.65-9.2 4.5-14.9 3.36 1.7 6.05 2.4 10.05 1.1 2.9-1.1 7.2-2.4 6.2-6.6 1.2 3.7 4.2 5.7 7.8 6.3 1.3.2 3 0 4.3-.3 1.1-.3 3.8-2.5 4.5-2.5 2.5 0 5.1 3.2 8.2 3.6 3.8.4 5.6-.9 8.6-2.7.9 4.6 10.7 10 14.1 5.8-1.4 6.7 7.5 10 11.9 11.1 3.5.8 7.7.2 11.5-1.2 3.4-1.3 6.3-4.5 9.3-5.5-.6 6.3 6.9 8.2 11.4 8.4 7.7.2 11.6-1.9 18-5.5 5.1 6.7 17.4 7.4 24.5 4.3 2.9-1.2 7.3-4 8.5-7.2 1.2-3.1-1-7.5-4.2-7.5z"/><linearGradient id="z" x1="343.5" x2="343.5" y1="515.42" y2="353.55" gradientUnits="userSpaceOnUse"><stop offset="0" stop-color="#7FCCE0"/><stop offset=".06" stop-color="#92D2E5"/><stop offset=".29" stop-color="#C8E7F3"/><stop offset=".46" stop-color="#E4F4FC"/><stop offset=".55" stop-color="#EEF8FE"/><stop offset=".91" stop-color="#FFF"/></linearGradient><path fill="url(#z)" d="M687 424c-.9-.26-1.83-.42-2.82-.42h-.12c-.67-4.3-4.6-7.6-9.36-7.6-4.4 0-8.07 2.82-9.15 6.63h-.33c-4.42 0-8.1 3-8.94 6.9-2.7.4-5.24 1.2-7.58 2.2-.28-4.5-4.24-8.1-9.1-8.1-.25 0-.5 0-.74.1.47-.9.74-1.9.74-3 0-3.4-2.55-6.2-5.92-6.8.42-1.3.65-2.7.65-4.1 0-7.6-6.6-13.8-14.74-13.8-1.6 0-3.1.3-4.6.7 1.5-3.6 2.4-7.5 2.4-11.5 0-17.3-15.3-31.4-34.1-31.4-14.1 0-26.2 7.9-31.4 19.2-1.6-1-3.5-1.6-5.5-1.6-1.9 0-3.7.6-5.2 1.5-3.5-3.6-8.5-5.7-14-5.5-8.1.3-14.6 5.7-16.8 12.8-1.6-.6-3.4-1-5.2-1-7.6 0-13.7 5.8-13.7 12.9 0 2.3.6 4.4 1.7 6.2-1.9 1-3.1 2.8-3.1 4.9 0 2.3 1.4 4.3 3.5 5.2-.5 1.8-.8 3.7-.8 5.7 0 3.3.7 6.5 2.1 9.3-2.1 1.4-4.1 3.1-5.8 4.9-4.5-6.9-12.9-11.5-22.4-11.5-4.3 0-8.3.9-11.8 2.6-2-4.8-7-8.2-12.8-8.2-4.6 0-8.7 2.1-11.1 5.4-2.5-2.5-6.1-4-10-4-3.3 0-6.2 1.1-8.6 2.8-2.9-10.1-13.1-17.6-25.2-17.6-11.1 0-20.5 6.3-24.3 15.1-.6-.1-1.1-.1-1.7-.1-3.7 0-6.9 2-8.3 5-.3-.1-.6-.1-.9-.1-3.3 0-6 2.5-6 5.6 0 .9.2 1.8.7 2.6-2.3 1.5-3.8 4.1-3.8 7 0 .8.1 1.7.4 2.5-2.6-.8-5.3-1.2-8.1-1.2-3.3 0-6.5.5-9.3 1.5-1.9-.6-4-1-6.2-1-5.7 0-10.6 2.4-13.5 5.9-.7-.1-1.4-.2-2-.2-1.8 0-3.4.5-4.8 1.3-1.3-3.2-4.7-5.6-8.6-5.6-2.2 0-4.3.8-5.8 2-2.1-3.1-5.5-5.4-9.5-6-1.3-3-4.8-5.2-8.9-5.2-4.4 0-8.1 2.5-9.2 5.9h-.3c-4.5 0-8.1 2.6-9 6.1-2.7.4-5.3 1-7.6 2-.3-4-4.3-7.2-9.1-7.2-.3 0-.5 0-.8.1.4-.8.7-1.7.7-2.7 0-3-2.6-5.5-6-6 .4-1.1.6-2.4.6-3.6 0-6.8-6.6-12.4-14.7-12.4-1.5 0-3.1.2-4.5.6 1.6-3.2 2.4-6.7 2.4-10.4 0-15.4-15.2-27.9-34-27.9-14.1 0-26.2 7.1-31.4 17.1-1.6-.9-3.5-1.5-5.5-1.5-1.9 0-3.7.5-5.2 1.3-3.5-3.2-8.5-5.1-14-4.9-8.1.3-14.6 5.1-16.8 11.5-1.6-.5-3.3-.8-5.2-.8-7.5 0-13.7 5.2-13.7 11.5 0 2 .7 3.9 1.7 5.5-1.8.9-3.1 2.5-3.1 4.4 0 2.1 1.5 3.8 3.6 4.6-.5 1.6-.7 3.3-.7 5 0 3 .7 5.8 2.1 8.3-2.1 1.3-4.1 2.8-5.8 4.4-4.5-6.2-12.8-10.3-22.3-10.3-4.2 0-8.3.8-11.8 2.3-2-4.3-6.9-7.3-12.7-7.3-4.6 0-8.7 1.9-11.2 4.7-2.5-2.2-6-3.6-9.9-3.6-3.2 0-6.2 1-8.5 2.5-1.1-3.3-3.1-6.3-5.9-8.8v82h687v-75z"/><linearGradient id="A" x1="343.5" x2="343.5" y1="617.58" y2="409.72" gradientUnits="userSpaceOnUse"><stop offset=".31" stop-color="#4ABED4"/><stop offset=".55" stop-color="#CAE9FC"/><stop offset=".7" stop-color="#ECF7FE"/><stop offset=".81" stop-color="#FFF"/></linearGradient><path fill="url(#A)" d="M687 476.82c-.28.6-.53 1.24-.73 1.88-2-1.34-4.52-2.15-7.26-2.15-3.3 0-6.3 1.2-8.4 3.1-2.1-2.5-5.5-4.1-9.4-4.1-4.9 0-9.1 2.6-10.8 6.27-3-1.26-6.4-1.97-10.1-1.97-8.1 0-15.2 3.55-19 8.84-1.4-1.4-3.1-2.7-4.9-3.8 1.2-2.2 1.8-4.6 1.8-7.2 0-1.5-.2-3-.6-4.4 1.8-.7 3.1-2.2 3.1-4 0-1.7-1-3.1-2.6-3.8 1-1.4 1.5-3.1 1.5-4.8 0-5.5-5.2-9.9-11.6-9.9-1.5 0-3 .2-4.4.7-1.8-5.5-7.4-9.6-14.3-9.9-4.6-.2-8.9 1.5-11.9 4.2-1.3-.7-2.8-1.1-4.4-1.1-1.7 0-3.3.4-4.7 1.2-4.4-8.7-14.7-14.7-26.7-14.7-10.8 0-20.2 4.9-25.2 12.1-1.8-.4-3.7-.6-5.6-.6-10.3 0-19 5.8-21.4 13.6-2-1.3-4.5-2.2-7.3-2.2-3.4 0-6.4 1.2-8.5 3.1-2.1-2.5-5.6-4.1-9.5-4.1-4.9 0-9.1 2.6-10.8 6.3-3-1.3-6.4-2-10.1-2-8.1 0-15.2 3.5-19.1 8.8-1.4-1.4-3.1-2.6-4.9-3.7 1.2-2.2 1.8-4.6 1.8-7.2 0-1.5-.2-3-.6-4.4 1.8-.7 3-2.2 3-4 0-1.7-1-3.1-2.6-3.8.9-1.4 1.5-3.1 1.5-4.8 0-5.5-5.2-9.9-11.7-9.9-1.5 0-3 .2-4.4.7-1.8-5.5-7.4-9.6-14.2-9.9-4.6-.2-8.9 1.4-11.9 4.2-1.2-.7-2.7-1.1-4.4-1.1-1.7 0-3.3.5-4.6 1.3-4.4-8.7-14.7-14.7-26.8-14.7-16 0-29 10.8-29 24.1 0 3.1.7 6.1 2 8.9-1.2-.4-2.5-.5-3.8-.5-6.9 0-12.6 4.7-12.6 10.6 0 1.1.2 2.1.6 3.1-2.8.4-5 2.6-5 5.2 0 .8.3 1.6.7 2.3h-.6c-4.1 0-7.5 2.7-7.7 6.2-2-.8-4.2-1.4-6.5-1.7-.7-3-3.8-5.3-7.6-5.3h-.3c-.9-2.9-4-5.1-7.8-5.1-4.1 0-7.4 2.5-8 5.8h-.1c-4.3 0-7.8 2.9-7.8 6.6 0 .7.2 1.4.4 2-2.5.7-4.7 1.8-6.7 3.1-1.4-1.6-3.6-2.6-6.2-2.6-1.2 0-2.3.2-3.3.6-1.4-5.1-6.9-8.8-13.4-8.8-1.7 0-3.4.3-5 .8-2.2-4.9-7.4-8.4-13.7-8.6-4.7-.2-8.9 1.5-11.9 4.2-1.3-.7-2.8-1.1-4.4-1.1-1.8 0-3.4.5-4.7 1.3-4.4-8.6-14.8-14.7-26.8-14.7-16.1 0-29.1 10.8-29.1 24.1 0 3.1.8 6.1 2.1 8.9-1-.3-2-.5-3.1-.5-.4-1.8-1.5-3.3-3.2-4.3.4-.6.6-1.3.6-2 0-2.4-2.3-4.3-5.1-4.3h-.7c-1.2-2.3-3.9-3.9-7.1-3.9-.5 0-1 0-1.5.1-3.2-6.7-11.2-11.5-20.7-11.5-10.3 0-19 5.8-21.4 13.6-2-1.4-4.5-2.2-7.2-2.2-3.3 0-6.3 1.2-8.5 3.1-2.1-2.5-5.6-4.1-9.5-4.1-4.9 0-9.1 2.6-10.8 6.3-3-1.2-6.4-2-10.1-2-8.4.5-15.3 3.9-19.2 8.9v60.8h687v-60.1z"/><path fill="#FFF" d="M670.5 461c0-2.08-3.12-3.76-6.96-3.76h-.02c-.2-1.67-1.67-2.96-3.45-2.96-1.92 0-3.48 1.5-3.48 3.36 0 .7.2 1.32.5 1.86-.4.46-.6.97-.6 1.5v.15-.15c0-2.08-3-3.77-6.6-3.77-3.6 0-6.6 1.7-6.6 3.77v.43c-2.9.34-4.7.87-4.7 1.45 0 .92 4.4 1.7 10.4 1.85.2.02.5.04.8.04h1.5c1.8 0 3.5-.06 5-.16v.2c0 2.1 3.1 3.8 6.9 3.8 3.8 0 6.9-1.7 6.9-3.7 3.8 0 6.9-.8 6.9-1.9s-3.1-1.8-6.9-1.8zM260.52 39.45c0-2.1-3.1-3.77-6.95-3.77h-.03c-.2-1.67-1.67-2.96-3.44-2.96-1.92 0-3.48 1.5-3.48 3.36 0 .7.22 1.33.58 1.86-.37.46-.58.97-.58 1.5 0 .06 0 .1.02.16h-.03l.1-.15c0-2.08-2.9-3.77-6.5-3.77s-6.5 1.7-6.5 3.77c0 .14 0 .28.1.42-2.8.35-4.7.87-4.7 1.46 0 .92 4.5 1.7 10.4 1.85l.9.03h1.5c1.8 0 3.5 0 5.1-.1v.2c0 2.1 3.1 3.8 7 3.8s6.9-1.7 6.9-3.7c3.8 0 7-.8 7-1.8s-3.1-1.9-6.9-1.9zm204.08 78.13c0-2.08-3.1-3.76-6.94-3.76h-.03c-.2-1.67-1.67-2.96-3.44-2.96-2 0-3.5 1.5-3.5 3.36 0 .7.2 1.33.6 1.86-.4.46-.6.97-.6 1.5v.16h-.1v-.15c0-2.1-3-3.8-6.6-3.8s-6.6 1.7-6.6 3.7v.4c-2.9.3-4.7.9-4.7 1.4 0 .9 4.5 1.7 10.4 1.8h2.3c1.8 0 3.5-.1 5-.2l-.1.1c0 2 3.1 3.7 7 3.7s6.9-1.7 6.9-3.8c3.8 0 6.9-.9 6.9-1.9s-3.1-1.9-6.9-1.9zM674.4 70.5c0-2.07-3.1-3.76-6.94-3.76h-.03c-.2-1.67-1.67-2.96-3.44-2.96-2 0-3.5 1.5-3.5 3.36 0 .7.2 1.33.6 1.86-.4.46-.6.97-.6 1.5v.16-.15c0-2-3-3.7-6.6-3.7s-6.6 1.7-6.6 3.8v.5c-2.9.4-4.7.9-4.7 1.5 0 .9 4.4 1.7 10.3 1.9l.8.1h1.5c1.8 0 3.5 0 5-.1v.1c0 2.1 3.1 3.8 6.9 3.8s6.9-1.7 6.9-3.7c3.8 0 6.9-.8 6.9-1.8s-3.1-1.9-7-1.9zM170.96 519.02c0-2.07-3.1-3.76-6.95-3.76-.2-1.67-1.6-2.96-3.4-2.96-1.9 0-3.4 1.5-3.4 3.36 0 .7.2 1.33.6 1.86-.3.46-.5.97-.5 1.5v.16-.16c0-2.07-2.9-3.76-6.5-3.76s-6.5 1.7-6.5 3.76c0 .15.1.3.1.43-2.8.35-4.7.87-4.7 1.46 0 1 4.5 1.7 10.4 1.9l.9.1h1.5c1.8 0 3.5 0 5.1-.1v.2c0 2.1 3.1 3.8 7 3.8s6.9-1.7 6.9-3.8c3.8 0 6.9-.8 6.9-1.9 0-1-3.1-1.8-6.9-1.8zM61.46 376.44c0-2.08-3.1-3.77-6.94-3.77h-.03c-.2-1.67-1.7-2.96-3.5-2.96-1.9 0-3.5 1.6-3.5 3.4 0 .7.2 1.4.6 1.9-.4.5-.6 1-.6 1.5 0-2.1-3-3.7-6.6-3.7-3.6 0-6.6 1.7-6.6 3.8v.5c-2.9.4-4.7.9-4.7 1.5 0 .9 4.4 1.7 10.3 1.9h2.3c1.8 0 3.5 0 5-.1l-.1.2c0 2.1 3.1 3.8 7 3.8s6.9-1.7 6.9-3.7c3.8 0 6.9-.8 6.9-1.9s-3.1-1.9-7-1.9zm215.58 67.26c0-.72-1.96-1.36-5.02-1.77.03-.18.05-.35.05-.53 0-2.54-3.16-4.6-7.05-4.6-1.16.02-2.25.2-3.22.54-.15-.02-.3-.02-.44-.02-1.86 0-3.37 1.03-3.36 2.3 0 .27.07.53.2.76-.13.34-.2.7-.2 1.05 0 .07 0 .13.02.2H258v-.2c0-.65-.22-1.27-.62-1.83.38-.65.6-1.44.6-2.27 0-2.28-1.67-4.1-3.73-4.1-1.12 0-2.12.55-2.8 1.42-1.23-.88-2.9-1.42-4.75-1.4-3.73 0-6.75 2.22-6.74 4.96v.1h-.75c-1.9 0-3.5 1.3-3.5 2.9-2.3.6-3.9 2-3.9 3.6 0 2.2 2.8 3.9 6.3 3.9.7 0 1.4-.1 2-.2v.1c0 1.3 1.5 2.3 3.4 2.3 1.1 0 2.1-.3 2.7-.9 1.3.6 2.8 1 4.5 1 4.1 0 7.5-2.1 7.5-4.6v-.1h.1v.2c0 1.3 2 2.4 4.5 2.4s4.5-1 4.5-2.3v-.2c5.8-.2 10.1-1.1 10.1-2.2z"/><path fill="#FFF" d="M310.08 46.95l-4.07-.93c2-2.4-2.4-3.95-3.6-2.1.6-1.13.7-1.95-.9-2.27-1.4-.3-2.6.28-3.1 1.73-.6-.88-2.6-1.8-3.4-.7-.4-.9-1.8-.85-2.6-.85s-1.1.13-1.5.64c.5-.78.7-1.96.5-2.75-.3-.94-1.7-1.26-2.5-.77.4-7.2-11.7-6.64-11.5.47-.7-.7-1.2-1.5-2.2-1.55-1.2-.08-1.7 1.13-2.3 2-.6-.88-1.3-.66-1.7-.04v-.2c-.1-.2-.4-.4-.6-.6 0-.94.2-1.97-.1-2.8-.6-1.38-1.5-1.97-2.9-2.27-1.3-.3-2.9-.48-4.3.24-1.2.67-1.5 1.7-1.7 2.9-.3.04-.5.1-.8.2-.9-.6-2-.42-2.5.84h-.1c0-.65-.4-1.44-.9-1.62-.9-.3-1.9.85-2.5 1.38-.7-.45-.9-1.2-1.8-1.44-.7-.18-1.8-.02-2.5.3-1.1.57-1.8 1.5-1.9 2.62 0-.62.2-1.26-.4-1.78-.8-.57-2.1-1-3.3-1.25-1.3-.27-2.6.16-3.1.94-.3.5-.2 1.3-.2 1.9v-.1c-.6-.1-1.6-.1-2.1.2-.4.3-.1.8-.2 1.2-1.3-.1-2.1 1-1 1.4-.9.1-2 .5-2.3 1.1-.3.7.9.9.9 1.5-1.1.1-2.5-.3-3.7-.1-1.1.1-2.5.6-3.3 1-.8.3-1.4 1.1-1.6 1.6-.1.3-.2.8-.1 1.1.1.3.6.6.5.9-.9 0-3.5-.3-3.3.7-.4 0-.9-.1-1.4-.1-.5-.1-1.1 0-1.6 0-.9.1-2 .4-1.9 1.1-1.7.1-3.7-.1-5.1.7-1.9 1 1.5 1.5 2.6 1.6 3.6.4 7.7 0 11.2-.2 1-.1 1.4-.3 2.1 0 .5.3.9.6 1.6.9 1.4.5 3.3.7 5 .5 1.7-.2 2.5-1.3 4-1.4.9-.1 1.8 0 2.4-.5.8-.6 0-1 .3-1.5 1.7.4 3.1 1.2 4.8 1.6 1.1.2 4.6.5 5-.5 1.4-.1 2.5.9 4.1.8.9.6 2.3.9 3.9.9.6 0 1.1-.1 1.6-.2v.1c0 .9 1.2 1.6 2.8 1.6.9 0 1.7-.3 2.2-.7 1 .4 2.3.7 3.8.7 3.4 0 6.2-1.5 6.2-3.3v-.1h.1v.2c0 .9 1.7 1.6 3.7 1.6s3.7-.8 3.7-1.7v-.1c4.8-.2 8.4-.8 8.4-1.6 0-.3-.3-.5-.9-.7.8-.4 1.4-1 2.1-1.3-.1 1.5 1.8 2 3 2 2 .1 3.1-.4 4.7-1.3 1.4 1.6 4.6 1.8 6.4 1 .8-.3 1.9-1 2.3-1.8.3-.7-.2-1.8-1.1-1.8zm-32.28.87c0 .2.06.37.16.54-.1.24-.15.5-.15.75l.1.2v-.1c0-.4-.1-.9-.5-1.3.3-.4.5-.9.5-1.5.2-.1.4-.2.5-.2.3 0 .6.2.9.4-.8.3-1.3.8-1.3 1.4zM601.6 508.8l-7.85-1.78c3.7-4.6-4.7-7.54-7.08-4.02 1.03-2.15 1.33-3.7-1.75-4.33-2.8-.56-5.1.53-6 3.3-1.24-1.68-5.14-3.4-6.67-1.34-.9-1.74-3.48-1.6-5.13-1.6-1.67-.02-2.26.23-3 1.2.84-1.48 1.36-3.74.84-5.24-.62-1.8-3.4-2.5-4.85-1.5.8-13.8-22.5-12.7-22.2.9-1.3-1.3-2.4-2.9-4.3-3-2.4-.2-3.2 2.1-4.4 3.8-1.1-1.7-2.5-1.3-3.3-.1v-.4c-.3-.4-.7-.8-1.2-1.2 0-1.8.4-3.8-.3-5.4-1.2-2.7-3-3.8-5.5-4.4-2.7-.6-5.7-1-8.3.4-2.4 1.3-2.9 3.3-3.3 5.5-.5.1-1 .2-1.5.4-1.8-1.1-3.9-.8-4.9 1.6l-.1-.1c0-1.2-.7-2.7-1.8-3.1-1.8-.6-3.6 1.6-4.8 2.6-1.3-.9-1.7-2.4-3.5-2.8-1.4-.4-3.5-.1-4.8.5-2.1 1-3.6 2.8-3.8 5-.1-1.2.4-2.4-.9-3.4-1.4-1.1-4.1-2-6.4-2.4-2.5-.5-5.1.3-6.1 1.8-.6 1-.4 2.5-.3 3.7v-.1c-1.2-.1-3.2-.2-4.1.4-.8.6-.3 1.6-.5 2.4-2.4-.2-4 1.9-1.9 2.7-1.8.3-3.9 1-4.4 2.1-.6 1.3 1.8 1.7 1.8 2.9-2.2.1-4.8-.5-7.2-.2-2.1.2-4.8 1.1-6.4 1.8-1.6.7-2.7 2.2-3.1 3.2-.2.5-.3 1.5-.1 2.1.1.6 1.2 1.1.8 1.8-1.8.1-6.8-.6-6.3 1.3-.8.1-1.8-.2-2.7-.2-1-.1-2.2-.1-3.2.1-1.8.2-3.9.7-3.7 2-3.3.2-7.1-.1-9.9 1.4-3.7 2 2.8 2.9 5 3.2 6.8.9 14.8.1 21.5-.4 1.9-.2 2.6-.7 4.1 0 1.1.5 1.8 1.2 3.1 1.6 2.7.9 6.4 1.3 9.7 1 3.2-.3 4.9-2.4 7.7-2.7 1.7-.2 3.3-.1 4.6-.9 1.6-1.1.1-1.9.5-2.8 3.3.7 6 2.2 9.2 3 2.1.5 8.9.9 9.6-1 2.8-.2 4.8 1.7 7.9 1.6 1.8 1.1 4.5 1.8 7.5 1.8 1.1 0 2.2-.1 3.2-.3v.1c0 1.6 2.5 3 5.5 3 1.8 0 3.3-.5 4.3-1.3 2 .8 4.5 1.3 7.3 1.3 6.6 0 12-2.9 12-6.3v-.3h.1v.4c0 1.8 3.2 3.2 7.2 3.2s7.2-1.4 7.2-3.2v-.2c9.4-.4 16.2-1.6 16.2-3.1 0-.4-.6-.8-1.7-1.2 1.5-.7 2.8-2 4.1-2.4-.3 3 3.5 3.9 5.8 4 3.9.1 5.9-.9 9.1-2.6 2.6 3.2 8.7 3.5 12.3 2.1 1.5-.6 3.7-2 4.3-3.5.6-1.5-.5-3.6-2.1-3.6zm-62.25 1.65c0 .36.12.7.32 1.03-.2.46-.3.94-.3 1.43 0 .1 0 .2.02.3h-.1v-.2c0-.8-.4-1.7-1-2.5.6-.8.9-1.8 1-2.9.3-.2.6-.4.8-.4.5 0 1.1.4 1.7.7-1.6.6-2.6 1.6-2.6 2.7zm-337.73-89.8l-6.84-1.5c3.2-3.83-4.08-6.3-6.15-3.34.9-1.8 1.15-3.1-1.53-3.6-2.44-.4-4.44.5-5.23 2.8-1.07-1.4-4.46-2.8-5.8-1.1-.76-1.4-3.02-1.3-4.45-1.3-1.46 0-1.97.2-2.6 1 .72-1.2 1.17-3.1.72-4.3-.54-1.5-2.96-2-4.22-1.2.63-11.5-19.62-10.6-19.32.8-1.15-1.1-2.1-2.4-3.8-2.5-2.1-.1-2.84 1.8-3.8 3.2-1-1.4-2.23-1-2.92 0v-.3c-.3-.3-.66-.7-1.07-1 .1-1.5.4-3.1-.2-4.4-1-2.2-2.6-3.1-4.8-3.6-2.3-.5-5-.7-7.2.4-2.1 1.1-2.5 2.8-2.9 4.6-.4.1-.9.2-1.3.4-1.6-.9-3.4-.7-4.3 1.4h-.1c0-1-.6-2.2-1.6-2.5-1.6-.5-3.1 1.4-4.1 2.2-1.1-.7-1.5-1.9-3-2.3-1.2-.3-3.1 0-4.2.5-1.8.9-3.1 2.4-3.2 4.2-.1-1 .3-2-.8-2.8-1.3-.9-3.6-1.6-5.6-2-2.2-.4-4.4.3-5.3 1.5-.5.9-.3 2.1-.3 3.1v-.1c-1-.1-2.8-.1-3.5.4-.7.5-.3 1.4-.4 2-2.1-.2-3.5 1.6-1.7 2.3-1.5.3-3.4.9-3.8 1.8-.5 1.1 1.6 1.5 1.6 2.4-1.9.2-4.2-.3-6.3-.1-1.8.2-4.1.9-5.5 1.6-1.3.6-2.3 1.8-2.7 2.6-.2.5-.2 1.2-.1 1.7.2.6 1.1 1 .8 1.5-1.6.1-5.9-.4-5.5 1.1-.7.2-1.6-.1-2.3-.1-.9-.1-2 0-2.8.1-1.6.1-3.4.6-3.2 1.7-2.9.2-6.2-.1-8.6 1.2-3.3 1.6 2.4 2.3 4.3 2.6 5.9.7 12.8.1 18.7-.3 1.7-.2 2.4-.6 3.6 0 .9.4 1.5 1 2.7 1.4 2.4.8 5.6 1.1 8.4.8 2.9-.2 4.3-2 6.8-2.2 1.5-.1 2.9 0 4-.7 1.3-.9 0-1.6.4-2.3 2.9.7 5.2 1.9 8 2.6 1.9.5 7.8.8 8.4-.8 2.4-.2 4.2 1.4 6.9 1.3 1.6.9 3.9 1.5 6.5 1.5 1 0 1.9-.1 2.8-.2v.1c0 1.4 2.1 2.6 4.7 2.5 1.5 0 2.9-.4 3.8-1.1 1.8.7 4 1.1 6.3 1.1 5.8 0 10.4-2.3 10.4-5.2v-.2h.1v.4c0 1.5 2.8 2.7 6.3 2.7s6.2-1.2 6.2-2.6v-.2c8.1-.3 14.1-1.3 14.1-2.5 0-.4-.5-.7-1.5-1 1.3-.6 2.4-1.6 3.6-2-.2 2.5 3 3.2 5 3.3 3.4.1 5.1-.7 7.9-2.2 2.3 2.7 7.6 2.9 10.8 1.7 1.3-.5 3.2-1.6 3.7-2.9.5-1.2-.4-3-1.8-3zM147.46 422c0 .3.1.6.27.86-.16.38-.26.78-.26 1.2l.02.2h-.1v-.2c0-.75-.3-1.45-.9-2.1.5-.7.8-1.53.8-2.43.3-.18.6-.33.7-.33.5 0 1 .27 1.5.57-1.4.44-2.3 1.27-2.3 2.2zM577.22 64.3l-6.27-1.38c2.94-3.57-3.75-5.85-5.65-3.12.83-1.67 1.06-2.88-1.4-3.36-2.23-.43-4.07.4-4.8 2.57-.97-1.3-4.08-2.6-5.3-1-.7-1.3-2.78-1.2-4.1-1.2-1.33 0-1.8.2-2.38 1 .66-1.1 1.08-2.9.66-4-.5-1.4-2.7-1.8-3.87-1.1.6-10.6-17.9-9.8-17.7.7-1-1-1.9-2.2-3.5-2.3-1.9-.1-2.6 1.7-3.4 3-.9-1.3-2-1-2.6 0v-.3c-.2-.3-.6-.6-1-.9 0-1.4.3-2.9-.2-4.1-.9-2-2.3-2.9-4.4-3.3-2.1-.5-4.6-.7-6.6.3-1.9 1-2.3 2.6-2.6 4.3l-1.2.3c-1.5-.8-3.1-.6-3.9 1.3h-.1c0-.9-.6-2.1-1.4-2.4-1.5-.5-2.9 1.3-3.8 2.1-1-.6-1.3-1.8-2.8-2.1-1.1-.2-2.8 0-3.8.5-1.7.9-2.9 2.2-3 3.9-.1-.9.3-1.8-.8-2.6s-3.3-1.5-5.1-1.9c-2-.4-4 .3-4.8 1.4-.5.8-.3 2-.2 2.9v-.1c-1-.1-2.5-.1-3.2.4-.6.5-.2 1.3-.4 1.9-1.9-.2-3.2 1.4-1.5 2.1-1.4.2-3.1.7-3.5 1.6-.5 1.1 1.4 1.4 1.4 2.3-1.7.1-3.8-.3-5.7-.1-1.7.2-3.8.8-5.1 1.4-1.2.5-2.1 1.7-2.5 2.5-.1.5-.2 1.2-.1 1.6.2.5 1 .9.7 1.4-1.4.1-5.4-.4-5.1 1-.6.1-1.4-.1-2.1-.2-.7 0-1.7 0-2.5.1-1.5.2-3.1.6-3 1.6-2.6.2-5.7 0-7.9 1.1-3 1.6 2.3 2.2 4 2.5 5.5.7 11.8.1 17.2-.2 1.6-.1 2.2-.5 3.3 0 .9.4 1.4 1 2.5 1.3 2.2.8 5.2 1 7.8.8 2.6-.2 3.9-1.8 6.2-2.1 1.4-.1 2.7 0 3.7-.6 1.2-.8 0-1.5.4-2.2 2.6.6 4.7 1.8 7.3 2.4 1.7.4 7.1.7 7.7-.8 2.2-.2 3.9 1.3 6.3 1.2 1.5.9 3.6 1.4 6 1.4.9 0 1.8-.1 2.6-.2v.1c0 1.3 2 2.3 4.4 2.3 1.4 0 2.7-.4 3.5-.9 1.6.6 3.6 1 5.8 1 5.3 0 9.6-2.2 9.5-4.9V73h.1v.3c0 1.3 2.6 2.5 5.8 2.4 3.2 0 5.7-1.14 5.7-2.5V73c7.5-.3 12.9-1.24 12.9-2.37 0-.3-.5-.6-1.4-.9 1.2-.55 2.2-1.5 3.3-1.8-.2 2.3 2.8 3 4.6 3.1 3.1.1 4.7-.7 7.3-2 2.1 2.4 7 2.7 9.9 1.6 1.2-.5 2.9-1.5 3.4-2.7.5-1.2-.4-2.8-1.7-2.8zm-49.66 1.28c0 .28.1.55.25.8-.1.35-.2.72-.2 1.1v.2-.2c0-.68-.3-1.34-.8-1.93.5-.66.8-1.44.8-2.27.3-.17.6-.3.7-.3.5 0 1 .25 1.4.52-1.2.43-2 1.2-2 2.08zm5.14 211.25c0-.72-1.97-1.36-5.03-1.77.03-.17.05-.35.05-.52 0-2.54-3.17-4.6-7.05-4.6-1.16 0-2.26.2-3.22.53l-.44-.04c-1.8 0-3.3 1.04-3.3 2.3 0 .28.1.53.2.77-.1.34-.2.7-.2 1.05v.17-.18c0-.66-.2-1.3-.6-1.85.4-.7.6-1.5.6-2.3 0-2.3-1.7-4.1-3.7-4.1-1.1 0-2.1.5-2.8 1.4-1.2-.9-2.9-1.4-4.7-1.4-3.7 0-6.7 2.2-6.7 4.9-.2-.1-.5-.1-.7-.1-1.9 0-3.5 1.2-3.5 2.8-2.3.5-3.9 1.9-3.9 3.6 0 2.1 2.8 3.8 6.3 3.8.7 0 1.4-.1 2-.2v.1c0 1.2 1.5 2.2 3.4 2.2 1.1 0 2.1-.4 2.7-.9 1.3.6 2.8.9 4.5.9 4.1 0 7.5-2.1 7.5-4.6v-.2h.1v.3c0 1.3 2 2.3 4.5 2.3s4.5-1.1 4.5-2.4v-.2c5.8-.3 10.1-1.2 10.1-2.2zM243.37 29.6c0-.85-2.86-1.6-7.34-2.1.05-.22.07-.42.07-.63 0-3.05-4.62-5.52-10.3-5.5-1.7 0-3.3.23-4.7.62l-.66-.1c-2.72 0-4.92 1.2-4.92 2.7 0 .3.1.6.3.9-.2.4-.3.8-.3 1.2 0 .1.03.1.03.2h-.04c0-.1.1-.2.1-.3 0-.8-.3-1.5-.9-2.2.6-.8.9-1.7.9-2.7 0-2.8-2.4-5-5.4-5-1.6 0-3.1.6-4.1 1.7-1.8-1.1-4.2-1.7-6.9-1.7-5.4 0-9.8 2.7-9.8 5.9v.1c-.3-.1-.7-.1-1.1-.1-2.9 0-5.2 1.5-5.2 3.3v.1c-3.4.7-5.8 2.4-5.8 4.3 0 2.6 4.1 4.6 9.2 4.6 1 0 2-.1 2.9-.3v.1c0 1.5 2.2 2.7 5 2.7 1.6 0 3.1-.4 4-1.1 1.9.7 4.1 1.1 6.6 1.1 6 0 10.9-2.5 10.9-5.6v-.3h.1v.4c0 1.6 2.9 2.8 6.5 2.8s6.6-1.3 6.6-2.8v-.2c8.5-.3 14.8-1.4 14.8-2.7zM214.1 501.57c0-.8-2.24-1.5-5.75-1.98.03-.2.05-.4.05-.6 0-2.9-3.63-5.2-8.08-5.2-1.34 0-2.6.2-3.7.6l-.5-.1c-2.14 0-3.87 1.1-3.87 2.6 0 .3.1.6.23.8-.14.4-.22.7-.22 1.1l.02.2h-.04l.02-.2c0-.7-.26-1.4-.72-2.1.45-.8.7-1.6.7-2.6 0-2.6-1.92-4.6-4.28-4.6-1.3 0-2.44.6-3.22 1.6-1.4-1-3.32-1.6-5.44-1.6-4.3 0-7.75 2.5-7.75 5.5v.1c-.27-.1-.56-.1-.85-.1-2.26 0-4.08 1.4-4.08 3.2-2.65.6-4.52 2.2-4.52 4 0 2.4 3.24 4.3 7.2 4.3.8 0 1.58-.1 2.3-.2v.1c0 1.4 1.74 2.5 3.88 2.5 1.27 0 2.4-.4 3.1-1 1.43.6 3.22 1 5.17 1 4.72 0 8.54-2.3 8.53-5.2 0-.1 0-.2-.02-.3h.06c-.02.1-.04.2-.04.3 0 1.4 2.3 2.6 5.14 2.6 2.83 0 5.12-1.2 5.12-2.7 0-.1 0-.2-.02-.2 6.67-.3 11.6-1.4 11.6-2.5zm217.7-.97c0-.86-2.85-1.63-7.33-2.12.05-.2.07-.4.07-.63 0-3.04-4.62-5.5-10.3-5.5-1.7 0-3.3.24-4.7.63l-.66-.02c-2.72 0-4.92 1.24-4.92 2.77 0 .32.1.62.3.9-.2.4-.3.84-.3 1.27 0 .08.03.15.03.22h-.1v-.22c0-.78-.4-1.53-.9-2.2.5-.8.9-1.72.9-2.73 0-2.73-2.5-4.93-5.5-4.92-1.7 0-3.1.67-4.1 1.7-1.8-1.04-4.3-1.68-7-1.68-5.5 0-9.9 2.7-9.9 5.97v.08c-.4-.05-.7-.08-1.1-.07-2.9 0-5.2 1.5-5.2 3.37v.04c-3.4.7-5.8 2.37-5.8 4.33 0 2.5 4.1 4.6 9.2 4.6 1 0 2-.1 2.9-.3v.1c0 1.4 2.2 2.6 4.9 2.6 1.6 0 3-.5 3.9-1.1 1.8.7 4.1 1.1 6.6 1.1 6 0 10.8-2.5 10.8-5.6l-.1-.2-.1.3c0 1.5 2.9 2.8 6.5 2.8s6.5-1.3 6.5-2.9c0-.1 0-.1-.1-.2 8.5-.4 14.8-1.4 14.7-2.7zM562.08 29.42c0-.72-1.96-1.36-5.02-1.77.03-.17.05-.35.05-.52 0-2.55-3.1-4.6-7-4.6-1.1 0-2.2.2-3.2.53l-.4-.02c-1.8 0-3.3 1.03-3.3 2.3 0 .27.1.53.2.77-.1.4-.2.7-.2 1.1v.2-.2c0-.6-.2-1.2-.6-1.8.4-.6.6-1.4.6-2.2 0-2.3-1.6-4.1-3.7-4.1-1.1 0-2.1.6-2.8 1.4-1.2-.9-2.9-1.4-4.7-1.4-3.7 0-6.7 2.3-6.7 5h-.7c-2 0-3.5 1.3-3.5 2.8-2.3.6-3.9 2-3.9 3.7 0 2.1 2.8 3.8 6.3 3.8.7 0 1.4-.1 2-.2v.1c0 1.2 1.5 2.2 3.4 2.2 1.1 0 2.1-.4 2.7-.9 1.3.6 2.8.9 4.5.9 4.2 0 7.5-2.1 7.5-4.6v-.2c0 .1 0 .1.1.1v.3c0 1.3 2 2.4 4.5 2.4s4.5-1 4.5-2.3V32c5.8-.2 10.1-1.1 10.1-2.2zM97.06 291c0-.72-1.96-1.36-5.02-1.77.03-.17.05-.35.05-.52-.1-2.5-3.2-4.6-7.1-4.5-1.2 0-2.3.2-3.2.5h-.5c-1.9 0-3.4 1.1-3.4 2.3 0 .3.1.6.2.8-.1.4-.2.7-.2 1.1v.2-.2c0-.6-.3-1.3-.7-1.8.4-.6.6-1.4.6-2.2 0-2.3-1.7-4.1-3.8-4.1-1.2 0-2.2.5-2.8 1.4-1.3-.9-2.9-1.4-4.8-1.4-3 0-5.5 1.4-6.4 3.3-1.8.3-3 1.2-3.3 2.2-.3.2-.6.4-.8.6l-.2-.2c.5-.8.9-1.7.9-2.7 0-2.7-2.5-4.9-5.5-4.9-1.7 0-3.1.7-4.1 1.7-1.8-1-4.3-1.7-7-1.7-4.2 0-7.7 1.6-9.2 3.8-.9-.2-1.9-.3-2.9-.3-.2-1.6-1.7-2.9-3.4-2.9-1.9 0-3.5 1.5-3.5 3.4 0 .7.2 1.3.6 1.8-.4.5-.6 1-.6 1.5v.2-.2c0-2.1-2.9-3.7-6.5-3.7S8 284.3 8 286.4c0 .1 0 .3.1.4-2.85.3-4.7.8-4.7 1.4 0 .9 4.5 1.7 10.4 1.9h2.37c1.4 0 2.8 0 4.1-.1-1.2.8-2 1.8-2 2.9 0 2.6 4.13 4.6 9.2 4.6 1 0 2-.1 2.9-.27v.1c0 1.5 2.22 2.7 4.95 2.7 1.6 0 3.02-.4 3.92-1.1 1.82.7 4.1 1.1 6.6 1.1 4.9 0 9.1-1.7 10.4-4 .5.1.93.1 1.42.1h.1c.54.4 1.3.7 2.22.9.54.7 1.7 1.2 3 1.2 1.1 0 2.04-.3 2.7-.9 1.2.6 2.8 1 4.5.9 4.03 0 7.3-2 7.4-4.5 0 1.3 2 2.4 4.5 2.4 2.4 0 4.4-1.1 4.4-2.4v-.2c5.8-.3 10.1-1.2 10.1-2.3zm524-221.08c-1.5 0-2.97.06-4.34.18l.02-.2c0-2.08-2.1-3.77-4.72-3.78-.86 0-1.66.18-2.36.5-1.8-1.45-4.5-2.37-7.52-2.38-5.47-.02-9.92 2.93-9.94 6.6-.02 3.66 4.4 6.64 9.86 6.66.8 0 1.55-.06 2.28-.17.9.12 1.87.2 2.87.2 2.1 0 4.1-.27 5.6-.74 2.3.4 5.2.7 8.3.7 7.7 0 13.9-1.7 13.9-3.8 0-2.2-6.1-3.9-13.8-3.9zm.42 259.85c-1.52 0-2.98.06-4.35.18v-.2c.03-2.07-2.1-3.76-4.7-3.77-.86 0-1.67.18-2.36.5-1.8-1.45-4.5-2.37-7.53-2.38-5.46-.02-9.9 2.93-9.93 6.6 0 3.66 4.4 6.64 9.9 6.66.8 0 1.6-.06 2.3-.17.9.1 1.9.1 2.9.1 2.1 0 4.1-.3 5.6-.8 2.3.5 5.2.7 8.2.8 7.7 0 13.8-1.7 13.9-3.8 0-2.1-6.1-3.9-13.8-3.9zm-51.55-1.63c-1.52 0-2.98.06-4.35.18l.02-.2c0-2.07-2.1-3.77-4.72-3.77-.86 0-1.66.17-2.36.5-1.8-1.45-4.5-2.37-7.52-2.38-2.53 0-4.82.62-6.57 1.65l-.24-.02c-.9 0-1.7.18-2.4.5-1.8-1.45-4.5-2.37-7.6-2.38-4.5-.02-8.3 1.95-9.5 4.67-.2-.1-.4-.1-.5-.1-3.8 0-6.8 2.2-6.8 4.9-.3-.1-.5-.1-.8-.1-2 0-3.6 1.2-3.6 2.8-2.3.5-4 1.9-4 3.6 0 2.1 2.8 3.9 6.3 3.8.7 0 1.4-.1 2-.2 0 1.2 1.5 2.2 3.4 2.2 1.1 0 2.1-.4 2.7-.9 1.2.6 2.8.9 4.5.9 4.1 0 7.4-2.1 7.4-4.6v-.2l-.1.3c0 1.3 2 2.3 4.5 2.3 2.4 0 4.4-1.1 4.4-2.4 0-.1 0-.1-.1-.2 5.8-.3 10.1-1.2 10.1-2.3 0-.6-1.5-1.2-3.8-1.6h.1c.8 0 1.6-.1 2.3-.2.9.1 1.9.2 2.9.2 2.1 0 4-.3 5.6-.8 2.3.5 5.1.8 8.2.8 7.6 0 13.8-1.7 13.8-3.8 0-2.1-6.1-3.9-13.8-3.9zm-263 24.4c-1.52 0-2.98.07-4.35.2l.02-.2c0-2.08-2.1-3.77-4.73-3.78-.85 0-1.66.18-2.35.5-1.8-1.45-4.5-2.37-7.53-2.38-5.5-.02-10 2.93-10 6.6 0 3.66 4.4 6.64 9.8 6.66.8 0 1.5-.06 2.3-.17.9.12 1.8.2 2.8.2 2.1 0 4-.27 5.6-.74 2.3.48 5.1.77 8.2.8 7.6 0 13.8-1.68 13.8-3.8 0-2.1-6.2-3.85-13.8-3.88zM275.47 66.07c-1.52 0-2.98.06-4.35.18l.02-.2c0-2.08-2.1-3.77-4.72-3.78-.86 0-1.67.18-2.36.5-1.8-1.45-4.5-2.37-7.53-2.38-5.46-.1-9.9 2.9-9.93 6.6-.02 3.6 4.4 6.6 9.86 6.6.78 0 1.54-.1 2.28-.2.9.1 1.87.2 2.87.2 2.1 0 4.1-.3 5.6-.8 2.3.5 5.2.7 8.3.8 7.7 0 13.8-1.7 13.9-3.8 0-2.1-6.1-3.9-13.8-3.9zM52.55 96.67c-1.52 0-2.98.04-4.35.16v-.2c.03-2.07-2.1-3.77-4.7-3.77-.86 0-1.67.17-2.37.5-1.8-1.45-4.5-2.37-7.52-2.38-5.4-.03-9.9 2.93-9.9 6.6 0 3.65 4.4 6.64 9.9 6.66.8 0 1.6-.06 2.3-.18.9.13 1.9.2 2.9.2 2.1 0 4.1-.27 5.6-.74 2.3.48 5.2.78 8.2.8 7.7.02 13.9-1.67 13.9-3.8 0-2.1-6.1-3.84-13.8-3.87zM656.52 503.6c-.6-3.3-4.78-5.82-9.85-5.8-2.34 0-4.48.57-6.17 1.5-.1-.07-.24-.12-.36-.18-.32-1.92-1.84-3.38-3.67-3.37-1.12 0-2.12.56-2.8 1.43-1.23-.88-2.9-1.42-4.75-1.42-3.73 0-6.75 2.24-6.74 4.98v.06c-.24-.04-.5-.06-.75-.06-1.97 0-3.55 1.26-3.55 2.8v.04c-2.3.58-3.94 1.98-3.94 3.6v.18l.03.13c.24 2 2.95 3.5 6.25 3.5.7 0 1.37-.1 2-.2 0 1.2 1.5 2.2 3.38 2.2 1.1 0 2.08-.4 2.7-.9 1.25.6 2.8.9 4.5.9 2.63 0 4.92-.9 6.25-2.2h.36c.4 0 .8 0 1.1-.1.4 0 .8.1 1.1.1.8 0 1.5-.1 2.2-.2h1.6c.5 0 1 .1 1.5.1.7 0 1.4-.1 2.1-.2 1.4.1 2.9.2 4.5.2 7.6 0 13.8-1.7 13.8-3.8 0-1.8-4.5-3.3-10.5-3.8zM49.15 210.07c0-3.5-4.76-6.35-10.62-6.35h-.04c-.4-2.8-2.6-5-5.3-5-3 0-5.3 2.55-5.3 5.68 0 1.16.3 2.23.8 3.13-.6.78-.9 1.64-.9 2.54v.26h-.1v-.26c0-3.5-4.5-6.35-10-6.35-5.6 0-10.1 2.84-10.1 6.35v.72c-4.4.5-7.2 1.4-7.2 2.4 0 1.5 6.8 2.8 15.9 3.1H20c2.7 0 5.3-.1 7.66-.3v.2c0 3.5 4.74 6.4 10.6 6.4s10.7-2.8 10.7-6.3c5.84 0 10.6-1.4 10.6-3.2 0-1.8-4.76-3.2-10.6-3.2zM207 209.2c-.02-.7-1.97-1.35-5.03-1.76.03-.18.04-.35.04-.52 0-1.1-.5-2.1-1.5-2.88 3.4-.52 5.8-1.6 5.8-2.82 0-1.75-4.7-3.17-10.6-3.17 0-3.5-4.7-6.35-10.6-6.35h-.1c-.3-2.8-2.5-5-5.2-5-2.9 0-5.3 2.55-5.3 5.68 0 1.16.3 2.23.9 3.13-.5.8-.9 1.7-.9 2.6l.1.3v-.2c0-3.5-4.5-6.3-10-6.3s-10 2.9-10 6.4c0 .3.1.5.1.7-4.4.6-7.1 1.5-7.1 2.5 0 1.6 6.8 2.9 15.9 3.2l1.3.1h2.5c-.8.6-1.3 1.3-1.3 2.2-2.3.6-3.9 2-3.9 3.6 0 2.1 2.9 3.9 6.3 3.9.7 0 1.4-.1 2-.2v.1c0 1.3 1.5 2.3 3.4 2.3 1.1 0 2.1-.4 2.7-.9 1.3.6 2.8.9 4.5.9 4.1 0 7.5-2 7.4-4.6v-.2.3c0 1.3 2 2.4 4.5 2.4s4.5-1 4.5-2.3v-.2c5.8-.3 10.1-1.2 10.1-2.2zm-50.05 60c0-1.16-3.5-2.2-9-2.87.06-.28.1-.56.1-.84-.02-4.2-5.67-7.5-12.62-7.5-2.08 0-4.04.3-5.77.8-.26-.1-.53-.1-.8-.1-3.32 0-6.02 1.7-6.02 3.7 0 .4.13.8.35 1.2-.3.5-.4 1.1-.4 1.7v.3h-.1v-.3c0-1.1-.4-2.1-1.1-3 .7-1.1 1.1-2.4 1.1-3.7 0-3.7-3-6.7-6.7-6.7-2 0-3.8.9-5 2.3-2.2-1.4-5.2-2.3-8.5-2.3-6.7 0-12.1 3.6-12.1 8.1v.1c-.5-.1-.9-.1-1.4-.1-3.6 0-6.4 2-6.4 4.5-4.2.9-7.1 3.2-7.1 5.8 0 3.5 5 6.3 11.2 6.3 1.2 0 2.4-.2 3.6-.4v.1c0 2 2.7 3.6 6 3.6 1.9 0 3.7-.6 4.8-1.5 2.2.9 5 1.5 8 1.5 7.3 0 13.3-3.4 13.3-7.5v-.3h.1c-.1.1-.1.3-.1.4 0 2.1 3.6 3.8 8 3.8s8-1.8 8-3.9v-.3c10.4-.5 18.1-1.9 18.1-3.7zm328 131.08c0-.66-1.62-1.24-4.16-1.62v-.48c0-2.33-2.6-4.2-5.9-4.2-1 0-1.9.17-2.7.47l-.4-.02c-1.6 0-2.8.95-2.8 2.12 0 .24 0 .48.1.7-.1.3-.2.62-.2.95v.17-.17c0-.6-.2-1.16-.5-1.68.3-.6.5-1.3.5-2.08 0-2.08-1.4-3.77-3.1-3.76-1 0-1.8.5-2.4 1.3-1-.8-2.4-1.3-4-1.3-3.1.02-5.6 2.06-5.6 4.57v.06c0-3.5-4.8-6.3-10.6-6.3h-.1c-.3-2.8-2.5-5-5.2-5-3 0-5.3 2.6-5.3 5.7 0 1.2.3 2.3.9 3.2-.6.8-.9 1.7-.9 2.6v.3h-.1v-.2c0-3.5-4.5-6.3-10-6.3s-10 2.8-10 6.3c0 .3 0 .5.1.7-4.4.6-7.2 1.5-7.2 2.5 0 1.6 6.8 2.9 15.8 3.2.4.1.8.1 1.2.1.2 0 .3 0 .5-.1h1.9c2.7 0 5.3-.1 7.7-.2v.3c0 3.5 4.7 6.4 10.6 6.4 4 0 7.5-1.3 9.3-3.3.4 0 .9 0 1.3-.1v.1c0 1.2 1.2 2.1 2.8 2.1.9 0 1.7-.3 2.2-.8 1.1.6 2.4.9 3.8.9 3.4 0 6.1-1.9 6.1-4.2v-.1h.1l-.1.3c0 1.2 1.7 2.2 3.7 2.1 2 0 3.7-1 3.7-2.1v-.2c4.8-.2 8.4-1.1 8.4-2zM84.6 446.23c0-.66-1.63-1.24-4.17-1.62.02-.1.03-.3.03-.4 0-2.3-2.62-4.2-5.85-4.2-.9 0-1.8.2-2.6.5h-.3c-1.5 0-2.8 1-2.8 2.1 0 .3.1.5.2.7-.1.3-.1.7-.1 1v.2-.1c0-.6-.2-1.2-.5-1.7.3-.6.5-1.3.5-2.1 0-2.1-1.4-3.8-3.1-3.7-.9 0-1.7.5-2.3 1.3-1-.8-2.4-1.3-3.9-1.3-3.1.1-5.6 2.1-5.6 4.6v.1c0-3.5-4.7-6.3-10.6-6.3-.3-2.8-2.5-5-5.2-5-2.9 0-5.3 2.6-5.3 5.7 0 1.2.3 2.3.9 3.2-.6.8-.9 1.7-.9 2.6v.3-.2c0-3.5-4.5-6.3-10-6.3s-10 2.8-10 6.4c0 .3 0 .5.1.7-4.3.6-7.1 1.5-7.1 2.5 0 1.6 6.8 2.8 15.8 3.1.4.1.9.1 1.3.1h2c2.8 0 5.4-.1 7.7-.2v.2c0 3.5 4.8 6.4 10.6 6.4 4 0 7.6-1.3 9.3-3.3.5 0 .9 0 1.4-.1 0 1.2 1.3 2.1 2.8 2.1.9 0 1.7-.3 2.2-.8 1.1.6 2.4.9 3.8.9 3.5 0 6.2-1.9 6.2-4.2l-.1-.3v.3c0 1.2 1.7 2.1 3.7 2.1 2.1 0 3.7-.9 3.7-2.1v-.1c4.9-.2 8.4-1.1 8.4-2zm31.76-277.77c0-1.3-2.36-2.48-6.06-3.23.04-.3.06-.63.06-.95 0-4.64-3.82-8.38-8.5-8.37-1.4 0-2.74.4-3.9 1h-.53c-2.25 0-4.07 1.9-4.06 4.2 0 .5.08 1 .23 1.4-.14.6-.23 1.3-.23 1.9l.02.4h-.1v-.3c0-1.2-.3-2.3-.8-3.3.4-1.2.7-2.6.7-4.1 0-4.1-2.1-7.5-4.5-7.5-1.4 0-2.6 1.1-3.4 2.6-1.5-1.6-3.5-2.6-5.8-2.5-4.5 0-8.2 4-8.2 9v.1c0-6.9-6.9-12.6-15.5-12.6-.5-5.6-3.7-9.9-7.7-9.9-4.3 0-7.7 5-7.7 11.3 0 2.3.5 4.5 1.3 6.3-.8 1.6-1.3 3.3-1.3 5.1 0 .1.1.3.1.5h-.1v-.5c0-7-6.6-12.7-14.6-12.7-8.1 0-14.6 5.7-14.6 12.7 0 .5 0 1 .1 1.5-6.3 1-10.4 2.8-10.4 4.7 0 3.1 9.9 5.7 23.1 6.2.6.1 1.2.1 1.9.1h.7l2.7.1c4 0 7.7-.2 11.2-.5 0 .2-.1.3-.1.5 0 7 6.9 12.7 15.5 12.7 5.8 0 10.9-2.7 13.6-6.6.6-.1 1.3-.2 1.9-.4v.2c0 2.2 1.8 4 4.1 4 1.3 0 2.5-.7 3.2-1.7 1.5 1.1 3.4 1.7 5.4 1.7 5 0 9-3.8 9-8.4l-.1-.3h.1l-.1.5c0 2.4 2.4 4.3 5.4 4.3 3 0 5.4-1.9 5.4-4.3v-.3c7-.5 12.2-2.1 12.2-4.1zm254.76 216.86c0-.66-1.62-1.24-4.16-1.62.02-.16.04-.32.03-.48 0-2.33-2.7-4.2-5.9-4.2-1 0-1.9.17-2.7.48-.1-.02-.3-.03-.4-.03-1.6 0-2.8.95-2.8 2.12 0 .2 0 .4.1.6-.1.3-.2.6-.2.9 0-.6-.2-1.2-.5-1.7.3-.6.5-1.3.5-2.1 0-2.1-1.4-3.8-3.1-3.8-1 0-1.8.5-2.4 1.3-1-.8-2.4-1.3-4-1.3-3.1 0-5.6 2-5.6 4.5 0-3.5-4.8-6.4-10.7-6.4h-.1c-.3-2.8-2.6-5-5.3-5-2.9 0-5.3 2.5-5.3 5.7 0 1.1.3 2.2.9 3.1-.2.2-.3.4-.4.6-.4-.3-.9-.5-1.4-.7-1.5-2.3-5.1-3.8-9.2-3.8-4.9 0-8.9 2.2-9.8 5.1-.5.5-.8 1.2-.8 1.8v.1l-.9.1-.2-.3c.7-1.1 1.1-2.3 1.1-3.7 0-3.7-3-6.7-6.7-6.7-2 0-3.8.9-5 2.3-2.2-1.4-5.2-2.3-8.5-2.3-6.7 0-12.1 3.6-12.1 8.1v.1c-.4-.1-.9-.1-1.4-.1-3.6 0-6.4 2-6.4 4.6-4.2.9-7.1 3.2-7.1 5.9 0 3.5 5 6.3 11.2 6.2 1.3 0 2.4-.1 3.6-.4l-.1.1c0 2 2.7 3.6 6.1 3.6 2 0 3.7-.6 4.8-1.5 2.2.9 5 1.5 8 1.5 7.4 0 13.3-3.4 13.3-7.5v-.3h.1c-.1.1-.1.3-.1.4 0 2.1 3.6 3.8 8 3.8s8-1.7 8-3.9v-.3c2.5-.1 4.9-.2 7.1-.5 1.9 1.4 4.8 2.3 8.1 2.3 4 0 7.5-1.3 9.3-3.3.5 0 .9 0 1.3-.1 0 1.1 1.3 2 2.8 2 .9 0 1.8-.4 2.3-.9 1 .5 2.3.9 3.7.9 3.4 0 6.2-1.9 6.2-4.3v-.1l-.1.2c0 1.2 1.7 2.1 3.7 2.1s3.7-1 3.7-2.2v-.2c4.8-.3 8.4-1.1 8.4-2.1zm-229.2 125c0-.66-1.62-1.24-4.16-1.62.02-.16.04-.32.04-.48 0-2.33-2.63-4.2-5.85-4.2-.97 0-1.87.17-2.68.48l-.36-.03c-1.5 0-2.8.95-2.7 2.12 0 .2.1.4.2.7-.1.3-.1.6-.1.9 0-.6-.2-1.2-.5-1.7.4-.6.5-1.3.5-2.1 0-2.1-1.3-3.8-3.1-3.8-.9 0-1.7.5-2.3 1.3-1-.8-2.4-1.3-3.9-1.3-3.1 0-5.6 2-5.6 4.5 0-3.5-4.7-6.4-10.6-6.4-.3-2.8-2.5-5-5.3-5-2.9 0-5.3 2.5-5.3 5.7 0 1.1.4 2.2.9 3.1-.1.2-.3.4-.4.6-.4-.3-.9-.5-1.3-.7-1.5-2.3-5.1-3.8-9.1-3.8-4.9 0-9 2.2-9.9 5.1-.5.5-.8 1.1-.7 1.8v.1l-.9.1c-.1-.1-.1-.3-.2-.4.7-1.1 1.1-2.3 1.1-3.7 0-3.7-3-6.7-6.7-6.7-2 0-3.8.9-5 2.3-2.2-1.4-5.2-2.3-8.5-2.3-6.7 0-12.1 3.6-12.1 8.1v.1c-.4-.1-.9-.1-1.3-.1-3.5 0-6.4 2-6.4 4.5-4.1.9-7.1 3.2-7.1 5.9 0 3.4 5.1 6.3 11.3 6.2 1.3 0 2.5-.2 3.6-.4v.1c0 2 2.7 3.6 6.1 3.6 2 0 3.7-.6 4.9-1.5 2.3 1 5 1.5 8.1 1.5 7.4 0 13.3-3.4 13.3-7.5v-.3h.1v.5c0 2.1 3.6 3.8 8 3.8 4.4-.1 8-1.8 8-3.9 0-.1 0-.2-.1-.3 2.6-.1 4.9-.3 7.1-.5 1.9 1.4 4.9 2.3 8.2 2.3 4.1 0 7.6-1.4 9.4-3.3.4-.1.9-.1 1.3-.2 0 1.1 1.2 2 2.8 2 .9 0 1.7-.3 2.2-.8 1 .5 2.3.8 3.7.8 3.4 0 6.2-1.9 6.2-4.2v-.2.2c0 1.2 1.7 2.1 3.7 2.1s3.7-1 3.7-2.2v-.1c4.9-.3 8.4-1.1 8.4-2.1zM472.96 96.78c0-.8-2.02-1.53-5.2-2 .04-.2.06-.4.06-.6 0-2.88-3.25-5.2-7.26-5.2-1.2 0-2.33.22-3.33.6l-.44-.03c-2 0-3.5 1.17-3.5 2.62 0 .3.1.6.2.86-.1.38-.2.78-.2 1.2v.2h-.1v-.2c0-.75-.3-1.46-.7-2.1.4-.74.6-1.62.6-2.57 0-2.58-1.7-4.67-3.9-4.66-1.2 0-2.2.63-2.9 1.62-1.3-1-3-1.6-4.9-1.6-3.9 0-7 2.53-7 5.64v.07c0-4.34-5.9-7.86-13.2-7.86h-.1c-.4-3.48-3.2-6.18-6.6-6.18-3.7 0-6.6 3.1-6.6 7 0 1.4.4 2.7 1.1 3.9-.6.7-.9 1.5-1.1 2.3h-.1c-.6-4-6-7.1-12.5-7.1-6.8 0-12.3 3.3-12.5 7.6-1.4.4-2.4.9-3.1 1.6l-1.4.3v-.6c0-2.3-2.6-4.2-5.7-4.2-1.8 0-3.3.5-4.3 1.4-1.9-.9-4.5-1.4-7.3-1.4-5.7 0-10.4 2.2-10.4 5v.1c-.4 0-.7-.1-1.1-.1-3.1 0-5.5 1.3-5.5 2.8-3.5.5-6.1 2-6 3.6 0 2.2 4.3 3.9 9.6 3.9 1.1 0 2.1-.1 3-.2v.1c0 1.2 2.4 2.2 5.2 2.2 1.7 0 3.2-.4 4.2-.9 1.9.5 4.3.9 6.9.9 6.3 0 11.4-2.1 11.4-4.7l-.1-.2h.1l-.1.2c0 1.3 3.1 2.4 6.9 2.4 3.8 0 6.9-1.1 6.9-2.4v-.1l6-.3c1.6.9 4.1 1.4 7 1.4 1.2 0 2.3-.1 3.4-.3 1.9 2.9 6.7 5.1 12.3 5.1 5 0 9.4-1.7 11.6-4.2.5 0 1.1-.1 1.6-.2v.1c0 1.4 1.5 2.5 3.5 2.5 1.1 0 2.1-.4 2.8-1 1.3.7 2.9 1.1 4.6 1.1 4.3 0 7.7-2.4 7.7-5.2v.3c0 1.4 2.1 2.6 4.6 2.6s4.6-1.2 4.6-2.7V99c6-.3 10.4-1.35 10.4-2.56zM651.5 102c0-1.16-3.5-2.2-8.98-2.87.05-.28.08-.55.08-.84 0-4.2-5.66-7.5-12.6-7.5-2.1 0-4.05.3-5.78.8-.27-.1-.53-.1-.8-.1-3.32 0-6.02 1.7-6.02 3.7 0 .4.13.8.35 1.2-.2.5-.34 1.1-.34 1.7 0 .1.1.2.1.3l.1-.3c0-1.1-.4-2.1-1.1-3 .7-1.1 1.1-2.4 1.1-3.7 0-3.7-3-6.7-6.7-6.7-2 0-3.8.9-5 2.3-2.2-1.4-5.2-2.3-8.5-2.3-5.2 0-9.6 2.2-11.3 5.3-.5-.2-1-.2-1.5-.2-3.1 0-5.6 2-5.6 4.5 0-3.5-4.7-6.3-10.6-6.3h-.1c-.3-2.8-2.5-5-5.2-5-2.9 0-5.3 2.6-5.3 5.7 0 1.2.3 2.2.9 3.1l-.4.6c-.4-.2-.9-.4-1.3-.6-1.5-2.2-5-3.8-9.1-3.8-4.9 0-9 2.2-9.9 5.2-.5.5-.8 1.1-.7 1.8v.1l-.9.1-.3-.3c.7-1 1.1-2.3 1.1-3.7 0-3.7-3-6.7-6.6-6.7-2 0-3.8.9-5 2.3-2.2-1.4-5.1-2.3-8.5-2.3-6.6 0-12.1 3.6-12 8v.1c-.5 0-.9-.1-1.4-.1-3.5 0-6.4 2.1-6.4 4.6-4.1.9-7 3.2-7 5.9 0 3.5 5 6.3 11.2 6.2 1.2 0 2.4-.1 3.6-.4v.1c0 2 2.7 3.6 6.1 3.6 1.9 0 3.7-.6 4.8-1.5 2.2 1 5 1.5 8 1.5 7.4 0 13.4-3.3 13.3-7.5v-.3h.1v.5c0 2.1 3.6 3.8 8 3.8s8-1.7 8-3.8c0-.1 0-.2-.1-.3 2.6-.1 5-.3 7.1-.5 2 1.4 4.9 2.3 8.2 2.3 1.5 0 2.9-.2 4.1-.5 2 1.7 5.5 2.8 9.5 2.8 1.2 0 2.4-.1 3.5-.4v.2c0 2 2.7 3.6 6 3.6 2 0 3.8-.6 4.9-1.5 2.2 1 5 1.5 8 1.5 7.4 0 13.4-3.4 13.4-7.5v-.3h.1v.5c0 2.1 3.6 3.8 8 3.8s8-1.7 8-3.8v-.3c10.4-.5 18.1-2 18.1-3.7zM162.1 254c0-.66 1.6-1.26 4.15-1.67-.03-.16-.04-.32-.04-.48 0-2.33 2.6-4.24 5.8-4.27 1 0 1.9.16 2.7.45l.4-.02c1.6 0 2.8 1 2.8 2.1 0 .3 0 .5-.1.7.1.3.2.7.2 1v.2h.1v-.1c0-.6.2-1.1.5-1.7-.3-.6-.5-1.3-.5-2 0-2.1 1.4-3.8 3.1-3.8 1 0 1.8.5 2.4 1.3 1-.8 2.4-1.3 4-1.3 3.1 0 5.6 2 5.7 4.5v.1c0-3.5 4.7-6.4 10.6-6.5.3-2.8 2.5-5 5.2-5 3 0 5.4 2.5 5.4 5.6 0 1.2-.3 2.3-.9 3.2.2.2.3.4.4.6l1.4-.6c1.5-2.2 5-3.8 9.1-3.9 4.9 0 9 2.1 9.9 5.1.5.5.8 1.1.8 1.8v.1l.9.2.2-.3c-.7-1-1.1-2.3-1.1-3.7 0-3.7 3-6.7 6.6-6.7 2.1 0 3.9.9 5.1 2.3 2.2-1.4 5.2-2.3 8.5-2.4 6.7 0 12.1 3.5 12.2 8v.1c.4-.1.8-.1 1.3-.1 3.5-.1 6.4 1.9 6.4 4.5 4.1.9 7.1 3.1 7.1 5.8.1 3.5-5 6.3-11.2 6.4-1.2 0-2.4-.1-3.5-.3v.1c0 2-2.7 3.6-6 3.7-2 0-3.8-.6-4.9-1.4-2.2 1-5 1.6-8 1.6-7.3 0-13.3-3.2-13.4-7.4l.1-.3h-.1c.1.2.1.3.1.5 0 2.1-3.5 3.8-8 3.9-4.4 0-8-1.6-8-3.7l.1-.3c-2.6-.1-5-.2-7.1-.4-1.9 1.5-4.9 2.4-8.2 2.4-4 .1-7.5-1.2-9.3-3.2-.5 0-.9 0-1.3-.1 0 1.2-1.3 2.1-2.8 2.1-.9 0-1.7-.3-2.3-.8-1 .6-2.3.9-3.7.9-3.4.1-6.2-1.8-6.2-4.1v-.2h-.1v.3c0 1.2-1.7 2.2-3.7 2.2-2.1.1-3.7-.9-3.7-2.1v-.2c-4.9-.2-8.4-1-8.4-1.9zM99.7 73.1h-.02zm106.73-16.5l-12.24-2.78c5.7-7.2-7.4-11.8-11.1-6.28 1.6-3.36 2-5.8-2.7-6.76-4.4-.88-8 .82-9.4 5.16-1.9-2.63-8-5.34-10.4-2.1-1.4-2.72-5.5-2.5-8-2.52-2.6 0-3.6.37-4.7 1.9 1.3-2.32 2.1-5.85 1.3-8.2-1-2.8-5.3-3.77-7.6-2.3.9-18.2-24.9-19.78-32.5-6.97-.3.15-.7.3-.9.5-1-1.05-2.4-1.7-4-1.7-2.9.03-5.2 2.27-5.2 5-.4.08-.8.2-1.2.4-1.2-1.65-4-2.77-7.2-2.74-1.6.1-3 .4-4.3.9-.1-1.2-.2-2.3-.7-3.4-1.8-4.1-4.6-5.9-8.6-6.7-4.2-.9-8.9-1.4-12.9.7-4.5 2.4-4.9 6.5-5.6 10.9-3.5-3.7-8.3-3.8-10.1 1.9.5-1.9-.7-5.2-2.7-5.9-2.9-.9-5.7 2.6-7.5 4.2-2.1-1.3-2.7-3.6-5.5-4.3-2.2-.5-5.6-.1-7.5.9-4.4 2.3-7.1 6.5-5.4 11.4-2.4-1.3-6-1.9-8.3.3-1.7 1.6-1.7 5.1-2.7 7.1-1.2.2-2.6.5-3.8.8l-.8-.3c-1.3-.4-2.5-.6-4.1-.6H0v22.2c.35.3.7.5 1.08.6 1.93.5 5.62.5 7.52 0 3-.8 2.95-2.6 6.08-1.4 2.64 1 3.93 2.2 6.78 1.1 3.07-1.2 5.23-3.2 6.58-5.8h1.62c1.63-.1 4.08-.7 5.4-.6.73 2 3.5 1.8 6.3 1.9-1.4 1.2-.2 3.5 2.64 3.2-1.8 2.1-2.7 3.3-1.6 5.7.9 2.1 3.8 3.2 7.1 4 3.2.8 6.1 1 9.7.6 2.3-.3 5-1.6 7.3-1.7.4 1.2-.4 2.2 1.5 2.8.9.3 1.5.1 2.5.3 1.6.3 1 0 2.3.6 1.4.8 1.84 1.8 4.52 1.7 1.54-.1 3-.9 3.44-1.6 1.57 4.4 9 6 14.9 3.2 5.74-2.6 6-5.8 1.54-8.6l2.45.3h-.1c2.04.1 5.2-1.2 5.6-2.5 3 1.3 8.13 1.4 10.73-.6 3.05-2.4 1.02-4.1-.3-6.4 1.46.5 4.3.2 5.57-.5 2.3-1.3-.2-1.9.58-3.3 2.17.5 5.4.5 8.1 0 2 .7 4 .6 5.1-.7-1.06 5.1 5.92 7.5 9.33 8.3 2.75.6 6.1.2 9.03-.9 2.6-.9 4.9-3.3 7.3-4.1-.5 4.7 5.3 6.1 8.9 6.2 6 .2 9.1-1.4 14.1-4.1 4 5 13.6 5.5 19.2 3.2 2.3-.9 5.7-3 6.6-5.4.9-2.3-.8-5.6-3.3-5.6zm447.4 173.7c-2.7-.02-5.26.06-7.7.2 0-.07.04-.15.04-.24 0-2.64-3.74-4.8-8.37-4.82-1.52 0-2.95.23-4.18.62-3.2-1.83-7.98-3-13.33-3.04-9.7-.04-17.6 3.7-17.6 8.36-.1 4.66 7.8 8.47 17.4 8.52 1.4 0 2.7-.08 4-.22 1.6.16 3.3.25 5.1.26 3.7 0 7.1-.33 9.9-.92 4 .62 9.1 1 14.5 1.02 13.5.06 24.4-2.07 24.5-4.76 0-2.7-11-4.93-24.5-4.98zM687 425.13h-.04c-1.2 0-2.24.47-2.92 1.2-.82-.32-1.72-.5-2.67-.5-1.2 0-2.33.3-3.3.78-.56.1-1.07.2-1.38.6.1-1.3-1.9-2.8-3.3-2.6.8-1.3.4-2.9-.5-4-.7-.9-2.3-2.3-3.6-1 .8-1.5 2.5-3.4 1-5.2-.3-.3-.6-.5-1-.6-.6-.8-1.6-1.4-2.7-1.4-.3 0-.5 0-.7.1.1-.6 0-1.3-.2-2-.5-1.4-2.1-2.8-3.8-3-2.5-.4-3.8 1.4-4 3.2-.1.7 0 1.8.2 2.5-1.3.3-2.2 1.2-2.2 2.4 0 .3 0 .6.2.9-1.2 1.1-1.9 2.6-1.9 4.3 0 .8.1 1.5.4 2.2-.7.2-1.2.7-1.5 1.3-.3-.8-.9-1.5-1.7-2-1.3-.8-2.8-.9-4.3-.7-.5-1-1.6-1.7-2.9-1.7-1.4 0-2.6.9-3 2-1-.6-2.6-1-3.3-.5-.3-1.3-.3-2.7-1.5-3.8-.4-.3-.8-.4-1.2-.4-.4-1-1.3-1.7-2.4-1.9v-.4c0-1.1-.9-2-2-2h-.2c-.2-.3-.5-.6-.9-1-1.4-1.3-3.7-1.5-5.7-1.3-2.1.2-4.8 2-5.2 3.8-.4 1.7.5 3 1.9 4-1.2.4-2.1 1.5-2.1 2.7 0 .3 0 .5.1.7h-.5c-1.1 0-2 1-2 2.2v.2c-.6.3-1.2.6-1.7 1.3-1.2 1.4-1.9 3.2-1.7 4.9.2 1.2.8 2.3 1.8 3.1-.3.4-.4.8-.4 1.2 0 1.3 1.3 2.4 3 2.4h.1c0 1 .6 1.9 1.6 2.3-1.8.9-3.8 2.5-3.1 4.4.3.8 1.2 1.1 2.2 1.2-.1.2-.1.4-.1.5 0 1.3 1.5 2.4 3.4 2.6.8.9 1.9 1.6 3.2 1.8.5.1 1.1.1 1.7 0 .3 1.2 1.6 2.1 3.1 2.1 1.4 0 2.5-.8 2.9-1.9.3.5.7.8 1.4 1.1 1.3.5 3.4-.2 4.2-1.2.7.3 1.8.2 2.7-.1.2 0 .5.1.8.1 1.9 0 3.5-1.3 3.5-2.8v-.4l.5-.2c.4.2 1 .3 1.5.3.6 0 1.2-.2 1.6-.4.9.7 2.1 1.1 3.5 1.1 2.5 0 4.6-1.4 4.6-3.1v-.2c1.3-.5 2.3-1.9 2.3-3.4 0-.9-.4-1.8-.9-2.4-.1-.22-.2-.5-.2-.72.4-.2.7-.3 1.1-.5.3.4.5 1.2 1 1.6 1 .7 2.4.8 3.7.9-.6.7-.4 3.1.3 3.8.6.6 1.4.7 2.3.6.3 0 .9-.3 1.2-.2.6.1.3.2.6.4 1.5.8 3 1.6 5 1.4 2.1-.2 3.5-.8 5-2 1 .6 2.1 1.4 3.5 1.4 1.7-.1 3.1-.8 4.4-1.74l.1.1V426z"/><path fill="#FFF" d="M676.42 427.4l.06.05-.06.18v-.25z"/><linearGradient id="B" x1="269.25" x2="269.25" y1="431.96" y2="387.47" gradientUnits="userSpaceOnUse" gradientTransform="matrix(-1 0 0 1 802.127 0)"><stop offset="0" stop-color="#F4F9F2"/><stop offset=".09" stop-color="#F6FAF5"/><stop offset=".55" stop-color="#FFF"/></linearGradient><path fill="url(#B)" d="M519.22 396.68c-3.05-2.92-2.75-5.94 1.43-8.2 4.33-2.32 9.55-.47 10.5 3.85.34-.68 1.4-1.4 2.5-1.43 1.9-.02 2.2 1.04 3.17 1.82.88.7.5.38 1.65.72.65.2 1.1 0 1.74.36 1.3.74.8 1.62 1 2.83 1.6 0 3.6-1.17 5.3-1.3 2.6-.24 4.7.1 6.9 1.07 2.3.97 4.3 2.1 4.9 4.24.7 2.32 0 3.38-1.3 5.32 2.1-.15 2.8 2.13 1.8 3.24 2 .28 4 .18 4.4 2.17 1 .25 2.7-.3 3.9-.3 1.6 0 3 .16 4.3.8 2.9 1.4 4 4.05.7 5.42 1.2.5 2.6 0 3.7.7 1.4.8.9 1.8 1.1 3.1 3.3.3 6.9-.2 9 2.6 2.7 3.3-3.4 4.1-6 4.3-1.7.1-3.4.4-5.2.2-.8-.1-1.7-.3-2.6-.4-.7-.1-2.4-.8-3.1-.7-1.5.3-2 1.6-3.9 1.8-2.3.2-4-.5-5.3-2.1-2 1-4 .7-6 0-2.7-1-2.7-1.5-3.1-3.7-4.8.5-6.4-4.2-3.6-6.8-1.2-.2-2.4 0-3.6-.1-1.5-.2-3.4-1.1-4.9-.7 2.3 3.7 1.3 8.7-2.7 11.4-1.8 1.2-5 2.1-7.4 1.8-1.3-.1-2.3-.6-3.5-1.1-1.1-.5-2.2-1.9-3.4-2.1-.2 2.1-2.2 3.3-4.9 2.8-.8-.2-.8-.6-1.6-.6-.2 0-.8.5-1 .5-1 .3-1.7.4-2.9.5-.5 2.2-4.8 2.8-7.1 2.4-.8-.2-.8-.6-1.6-.6-.3 0-1 .5-1.4.7-1.1.3-2.6.3-3.9.3-2.5-.1-7.8-1.8-9.2-3.6-1.4-2 .7-4.3 2.2-5.7-1.5-.2-2.9.1-4.3-.4-2-.7-1.6-1.5-1.8-3-1.5.1-3.1-1.2-3.6-2.2-.7-1.5.4-2.4 1.8-3.4 2.9-2.1 7.9-2.2 11.3-1-4.2-4.7 4.5-6.1 8.4-4.7.6-1.3-1.1-2 .6-3.1.9-.6 3-.8 4-.3-.8-2.4-2.2-4.1.1-6.2 1.9-1.9 5.6-1.5 7.7-.2.3-1.3 2.7-2.3 4.1-2.1h-.1l1.8.3z"/><path fill="#FFF" d="M328.3 312.47l-4.84-1.37c2.27-3.55-2.9-5.83-4.37-3.1.6-1.67.8-2.87-1.1-3.35-1.8-.43-3.2.4-3.7 2.55-.8-1.3-3.2-2.64-4.1-1.04-.6-1.34-2.2-1.24-3.2-1.24-1.1 0-1.4.18-1.9.94.5-1.15.8-2.9.5-4.05-.4-1.3-2.1-1.8-3-1.1.4-10.6-13.9-9.8-13.7.7-.8-1-1.5-2.2-2.7-2.3-1.5-.1-2 1.7-2.7 3-.7-1.3-1.6-.9-2.1 0v-.3c-.2-.3-.5-.6-.8-.9 0-1.4.2-2.9-.2-4.1-.8-2-1.9-2.9-3.5-3.3-1.7-.4-3.5-.7-5.1.4-1.5 1-1.9 2.6-2.1 4.3l-1 .3c-1.2-.9-2.4-.6-3.1 1.3h-.1c0-.9-.5-2.1-1.1-2.3-1.2-.5-2.3 1.2-3 2-.8-.6-1.1-1.8-2.2-2.1-.9-.3-2.2 0-3 .4-1.3.9-2.3 2.2-2.4 3.9-.1-.9.2-1.8-.6-2.6-.9-.8-2.6-1.5-4-1.8-1.6-.4-3.1.2-3.7 1.4-.4.8-.3 1.9-.3 2.8h-.1c-.7-.1-1.9-.1-2.5.4-.4.3-.3.8-.3 1.3-.7.1-1.4.3-2 .6h-.5c-2.2 0-4 1.5-4 3.4 0 .4.1.8.2 1.1-.1.4-.2.8-.2 1.3-.1-.8-.3-1.7-.8-2.4.5-1 .7-2.1.7-3.4 0-3.3-2-6-4.5-6-1.4 0-2.5.8-3.4 2.1-1.5-1.3-3.5-2.1-5.7-2.1-4.5 0-8.1 3.3-8.1 7.3v.1c-.3 0-.6-.1-.9-.1-2.3 0-4.2 1.9-4.2 4.2v.1c-2.7.9-4.7 2.9-4.7 5.4.1 3.2 3.4 5.7 7.5 5.7.6 0 1.1 0 1.6-.1-1.5 1.1.2 1.8 1.8 2.1.7.7 1.8 1.2 3 1.2.8 0 1.6-.2 2.2-.6h2.6c1.1.4 2.4.7 3.8.7 1.9 0 3.7-.5 5.2-1.3.1.1.2.1.3.2.6.4 1.1 1 1.9 1.3 1.7.7 4 1 6 .8 2-.2 3-1.8 4.7-2.1 1-.1 2.1 0 2.8-.6.9-.8 0-1.5.3-2.2 2 .6 3.7 1.8 5.6 2.4 1.3.4 5.5.7 5.9-.7 1.7-.2 2.9 1.3 4.8 1.2 1.2.8 2.8 1.4 4.7 1.4.7 0 1.4 0 2-.2v.1c0 1.3 1.5 2.4 3.3 2.3 1.1 0 2.05-.4 2.7-.9 1.24.6 2.8.9 4.5.9 4.03 0 7.32-2.2 7.32-4.9v-.2h.1v.3c0 1.4 2 2.5 4.4 2.5 2.4 0 4.4-1.1 4.4-2.5v-.2c5.7-.3 10-1.2 10-2.4 0-.3-.4-.6-1.1-.9.9-.5 1.7-1.5 2.5-1.8-.2 2.3 2.1 3 3.53 3.1 2.4.1 3.6-.7 5.6-2 1.6 2.4 5.4 2.7 7.6 1.6.9-.5 2.3-1.5 2.64-2.7.4-1.1-.3-2.8-1.3-2.8zm-38.4 1.27c0 .28.07.55.2.8-.13.35-.2.72-.2 1.1l.02.2h-.03v-.2c0-.68-.3-1.33-.6-1.93.3-.6.5-1.4.6-2.2.2-.1.4-.3.5-.3.3 0 .7.3 1.1.5-1 .5-1.6 1.2-1.6 2.1z"/></svg>