<?xml version="1.0" encoding="utf-8"?>
<!-- Generator: Adobe Illustrator 15.1.0, SVG Export Plug-In . SVG Version: 6.00 Build 0)  -->
<!DOCTYPE svg PUBLIC "-//W3C//DTD SVG 1.1//EN" "http://www.w3.org/Graphics/SVG/1.1/DTD/svg11.dtd">
<svg version="1.1" id="Layer_1" xmlns="http://www.w3.org/2000/svg" xmlns:xlink="http://www.w3.org/1999/xlink" x="0px" y="0px"
	 width="200px" height="100px" viewBox="0 0 200 100" enable-background="new 0 0 200 100" xml:space="preserve">
<path fill="#0F3A75" d="M196.184,20.793c-0.57-0.608-1.197-1.15-1.857-1.643c-0.404-0.587-0.842-1.155-1.336-1.684
	c-2.576-2.742-6.207-4.374-9.959-4.479l-87.208-2.463c-0.884-0.025-1.783-0.039-2.676-0.039c-11.216,0-23.089,1.992-35.287,5.918
	c-9.759,3.14-19.747,7.517-29.687,13.011C11.252,38.771,0.191,48.25,0.081,48.343L0,48.413l0.08,0.069
	c0.037,0.032,1.319,1.129,3.641,2.924c-0.209,0.175-0.319,0.27-0.319,0.27s45.475,39.22,95.678,37.802l86.796-2.453
	c4.004-0.109,7.768-1.916,10.357-4.971l0.408-0.479c2.17-2.553,3.357-5.787,3.357-9.141V30.453
	C200,26.862,198.635,23.412,196.184,20.793z"/>
</svg>
