<?xml version="1.0" encoding="utf-8"?>
<!-- Generator: Adobe Illustrator 15.1.0, SVG Export Plug-In . SVG Version: 6.00 Build 0)  -->
<!DOCTYPE svg PUBLIC "-//W3C//DTD SVG 1.1//EN" "http://www.w3.org/Graphics/SVG/1.1/DTD/svg11.dtd">
<svg version="1.1" id="Layer_1" xmlns="http://www.w3.org/2000/svg" xmlns:xlink="http://www.w3.org/1999/xlink" x="0px" y="0px"
	 width="300px" height="100px" viewBox="0 0 300 100" enable-background="new 0 0 300 100" xml:space="preserve">
<path fill="#0F3A75" d="M294.255,15.217c-0.207-0.175-0.434-0.33-0.648-0.497c-0.87-1.276-1.935-2.476-3.212-3.556
	c-3.869-3.268-9.326-5.216-14.979-5.343l-131.213-2.94c-1.327-0.028-2.68-0.043-4.019-0.043c-38.216,0-74.252,12.273-97.75,22.571
	C16.971,36.565,0.329,47.87,0.162,47.983L0,48.095l0.162,0.113c0.054,0.036,1.81,1.227,5,3.191
	c-0.634,0.416-0.973,0.646-0.973,0.646S72.61,98.809,148.147,97.117l130.601-2.926c6.02-0.135,11.682-2.287,15.582-5.928l0.613-0.57
	C298.207,84.65,300,80.788,300,76.796V26.728C300,22.452,297.945,18.335,294.255,15.217z"/>
</svg>
