<?xml version="1.0" encoding="utf-8"?>
<!-- Generator: Adobe Illustrator 15.1.0, SVG Export Plug-In . SVG Version: 6.00 Build 0)  -->
<!DOCTYPE svg PUBLIC "-//W3C//DTD SVG 1.1//EN" "http://www.w3.org/Graphics/SVG/1.1/DTD/svg11.dtd">
<svg version="1.1" id="Layer_1" xmlns="http://www.w3.org/2000/svg" x="0px" y="0px"
	 width="100px" height="500px" viewBox="0 -200 100 500" enable-background="new 0 -200 100 500" xml:space="preserve">
<g>
	<g>
		<g>
			<g opacity="0.5">
				<path fill="#1D1D1B" d="M93.465-97.31c0-9.523-4.581-17.246-10.233-17.246H67.9l-3.715-54.965
					c-1.104-16.34-9.942-28.183-19.64-26.318l-27.598,5.303c-9.699,1.86-16.726,16.752-15.619,33.091l29.153,430.931
					c1.104,16.34,9.939,28.18,19.636,26.32L77.718,300c9.242-1.777,16.047-15.402,15.703-30.828h0.044V-97.31z"/>
			</g>
			<g>
				
					<linearGradient id="SVGID_1_" gradientUnits="userSpaceOnUse" x1="519.0156" y1="-441.3179" x2="519.0156" y2="-349.0664" gradientTransform="matrix(0 1 1 0 446.5 -471)">
					<stop  offset="0" style="stop-color:#595959"/>
					<stop  offset="0.3135" style="stop-color:#656565"/>
					<stop  offset="0.8763" style="stop-color:#848484"/>
					<stop  offset="1" style="stop-color:#8C8C8C"/>
				</linearGradient>
				<path fill="url(#SVGID_1_)" d="M97.433-101.277c0-9.523-4.58-17.246-10.233-17.246H71.87l-3.718-54.964
					c-1.104-16.341-9.939-28.184-19.639-26.319l-27.598,5.303c-9.698,1.86-16.727,16.752-15.619,33.091l29.153,430.93
					c1.104,16.34,9.94,28.182,19.637,26.32l27.601,0.193c9.242-1.777,16.047-15.402,15.703-30.828h0.043V-101.277z"/>
			</g>
		</g>
		<g>
			<g opacity="0.5">
				<polygon fill="#1D1D1B" points="38.308,-144.457 35.021,-143.818 33.301,-168.838 36.586,-169.479 				"/>
				<polygon fill="#1D1D1B" points="40.589,-111.233 37.304,-110.591 35.584,-135.614 38.87,-136.254 				"/>
				<polygon fill="#1D1D1B" points="42.873,-78.006 39.587,-77.37 37.867,-102.391 41.152,-103.028 				"/>
				<polygon fill="#1D1D1B" points="45.157,-44.785 41.87,-44.142 40.15,-69.164 43.437,-69.806 				"/>
				<polygon fill="#1D1D1B" points="47.439,-11.557 44.154,-10.918 42.435,-35.938 45.72,-36.581 				"/>
				<polygon fill="#1D1D1B" points="49.724,21.665 46.437,22.309 44.718,-2.714 48.004,-3.354 				"/>
				<polygon fill="#1D1D1B" points="52.006,54.895 48.72,55.529 47,30.509 50.288,29.873 				"/>
				<polygon fill="#1D1D1B" points="54.291,88.115 51.004,88.758 49.286,63.736 52.57,63.096 				"/>
				<polygon fill="#1D1D1B" points="56.574,121.344 53.288,121.979 51.568,96.961 54.855,96.322 				"/>
				<polygon fill="#1D1D1B" points="58.857,154.568 55.57,155.205 53.851,130.186 57.138,129.545 				"/>
				<polygon fill="#1D1D1B" points="61.142,187.793 57.853,188.43 56.135,163.408 59.421,162.771 				"/>
			</g>
			<g>
				<g>
					<polygon fill="#FFFFFF" points="39.308,-145.457 36.021,-144.818 34.301,-169.838 37.586,-170.479 					"/>
					<polygon fill="#FFFFFF" points="41.589,-112.233 38.304,-111.591 36.584,-136.614 39.87,-137.254 					"/>
					<polygon fill="#FFFFFF" points="43.873,-79.006 40.587,-78.37 38.867,-103.391 42.152,-104.028 					"/>
					<polygon fill="#FFFFFF" points="46.157,-45.785 42.87,-45.142 41.15,-70.164 44.437,-70.806 					"/>
					<polygon fill="#FFFFFF" points="48.439,-12.557 45.154,-11.918 43.435,-36.938 46.72,-37.581 					"/>
					<polygon fill="#FFFFFF" points="50.724,20.665 47.437,21.309 45.718,-3.714 49.004,-4.354 					"/>
					<polygon fill="#FFFFFF" points="53.006,53.895 49.721,54.529 48,29.509 51.288,28.873 					"/>
					<polygon fill="#FFFFFF" points="55.291,87.115 52.004,87.758 50.286,62.736 53.57,62.096 					"/>
					<polygon fill="#FFFFFF" points="57.574,120.344 54.288,120.979 52.568,95.961 55.855,95.322 					"/>
					<polygon fill="#FFFFFF" points="59.857,153.568 56.57,154.205 54.851,129.186 58.138,128.545 					"/>
					<polygon fill="#FFFFFF" points="62.142,186.793 58.853,187.43 57.135,162.408 60.421,161.771 					"/>
				</g>
			</g>
		</g>
		<g>
			<g opacity="0.5">
				<path fill="#1D1D1B" d="M93.25,43.646l-0.161-5.805c-0.221-8.021-8.325-14.302-18.11-14.032
					c-9.781,0.271-17.529,6.99-17.31,15.011l0.16,5.803c1.878,2.477,3.192,25.3,2.325,28.46c-0.834,3.041-0.483,7.117,0.845,9.486
					c1.163,2.088,2.665,3.34,4.267,3.297l1.01-0.029l0.508,18.355c0.183,6.611,2.846,11.949,5.924,11.865l9.632-0.268
					c3.077-0.086,5.442-5.562,5.261-12.172l-0.508-18.354l1.012-0.029c1.604-0.045,3.03-1.379,4.082-3.529
					c1.188-2.436,1.317-6.523,0.313-9.52C91.458,69.084,91.51,46.221,93.25,43.646z"/>
			</g>
			<g>
				<path fill="#6F6F73" d="M95.25,41.646l-0.161-5.805c-0.221-8.021-8.325-14.302-18.11-14.032
					c-9.781,0.271-17.529,6.99-17.31,15.011l0.16,5.803c1.878,2.477,3.192,25.3,2.325,28.46c-0.834,3.041-0.483,7.117,0.845,9.486
					c1.163,2.088,2.665,3.34,4.267,3.297l1.01-0.029l0.508,18.355c0.183,6.611,2.846,11.949,5.924,11.865l9.632-0.268
					c3.077-0.086,5.442-5.562,5.261-12.172l-0.508-18.354l1.012-0.029c1.604-0.045,3.03-1.379,4.082-3.529
					c1.188-2.436,1.317-6.523,0.313-9.52C93.458,67.084,93.51,44.221,95.25,41.646z"/>
			</g>
		</g>
		<g>
			<g>
				<g opacity="0.5">
					<path fill="#1D1D1B" d="M66.193,211.191c0.046-0.072,0.086-0.148,0.127-0.227c0.148,0.852,0.421,1.641,0.922,1.641
						c0.543,0,0.816-0.92,0.956-1.85c0.073,0.152,0.149,0.301,0.235,0.436c1.012,1.576,4.453,1.455,6.731,1.369
						c0.448-0.014,0.851-0.029,1.185-0.029c1.926,0,2.789-1.066,2.789-2.131c0-1.07-0.912-2.221-2.607-2.246
						c-3.312-0.051-6.286-1.371-7.799-2.176l1.162-10.611h0.021v-0.18c6.317-0.863,20.911-3.34,20.911-7.762
						c0-2.609-3.756-4.73-8.373-4.73h-3.855v-1.162c0-0.316-0.162-0.584-0.398-0.766c0.117,0.008,0.215,0.01,0.248,0.01
						c0.746,0,1.615-0.16,1.615-0.615c0-0.6-1.448-0.617-1.615-0.617c-0.094,0-0.604,0.012-1.026,0.125v-0.125h-0.758v0.127
						c-0.424-0.115-0.938-0.127-1.032-0.127c-0.166,0-1.615,0.02-1.615,0.617c0,0.455,0.868,0.615,1.615,0.615
						c0.08,0,0.163-0.004,0.246-0.008c-0.234,0.18-0.396,0.449-0.396,0.764v1.162h-5.564v-4.262c0-3.609-1.174-6.436-2.673-6.436
						c-1.498,0-2.673,2.824-2.673,6.436v4.262h-5.564v-1.668c0-0.314-0.16-0.584-0.396-0.76c0.117,0.002,0.213,0.006,0.246,0.006
						c0.166,0,1.615-0.018,1.615-0.615c0-0.455-0.869-0.615-1.615-0.615c-0.095,0-0.604,0.01-1.027,0.123v-0.123h-0.762v0.121
						c-0.303-0.086-0.678-0.121-1.027-0.121c-0.748,0-1.616,0.16-1.616,0.615c0,0.6,1.45,0.615,1.616,0.615
						c0.033,0,0.129-0.004,0.245-0.006c-0.234,0.176-0.396,0.443-0.396,0.76v1.668h-4.216c-4.618,0-8.375,2.121-8.375,4.73
						c0,4.568,15.128,7.014,21.271,7.816v0.123h0.021l1.17,10.682c-1.55,0.812-4.445,2.059-7.666,2.107
						c-1.691,0.025-2.607,1.176-2.607,2.246c0,0.574,0.252,1.104,0.703,1.482c0.498,0.426,1.225,0.646,2.094,0.646
						c0.328,0,0.732,0.016,1.18,0.029C61.738,212.646,65.179,212.77,66.193,211.191z"/>
				</g>
				<g>
					<path fill="#BFBFBF" d="M68.193,209.191c0.046-0.072,0.086-0.148,0.127-0.227c0.148,0.852,0.421,1.641,0.922,1.641
						c0.543,0,0.816-0.92,0.956-1.85c0.073,0.152,0.149,0.301,0.235,0.436c1.012,1.576,4.453,1.455,6.731,1.369
						c0.448-0.014,0.851-0.029,1.185-0.029c1.926,0,2.789-1.066,2.789-2.131c0-1.07-0.912-2.221-2.607-2.246
						c-3.312-0.051-6.286-1.371-7.799-2.176l1.162-10.611h0.021v-0.18c6.317-0.863,20.911-3.34,20.911-7.762
						c0-2.609-3.756-4.73-8.373-4.73h-3.855v-1.162c0-0.316-0.162-0.584-0.398-0.766c0.117,0.008,0.215,0.01,0.248,0.01
						c0.746,0,1.615-0.16,1.615-0.615c0-0.6-1.448-0.617-1.615-0.617c-0.094,0-0.604,0.012-1.026,0.125v-0.125h-0.758v0.127
						c-0.424-0.115-0.938-0.127-1.032-0.127c-0.166,0-1.615,0.02-1.615,0.617c0,0.455,0.868,0.615,1.615,0.615
						c0.08,0,0.163-0.004,0.246-0.008c-0.234,0.18-0.396,0.449-0.396,0.764v1.162h-5.564v-4.262c0-3.609-1.174-6.436-2.673-6.436
						c-1.498,0-2.673,2.824-2.673,6.436v4.262h-5.564v-1.668c0-0.314-0.16-0.584-0.396-0.76c0.117,0.002,0.213,0.006,0.246,0.006
						c0.166,0,1.615-0.018,1.615-0.615c0-0.455-0.869-0.615-1.615-0.615c-0.095,0-0.604,0.01-1.027,0.123v-0.123h-0.762v0.121
						c-0.303-0.086-0.678-0.121-1.027-0.121c-0.748,0-1.616,0.16-1.616,0.615c0,0.6,1.45,0.615,1.616,0.615
						c0.033,0,0.129-0.004,0.245-0.006c-0.234,0.176-0.396,0.443-0.396,0.76v1.668h-4.216c-4.618,0-8.375,2.121-8.375,4.73
						c0,4.568,15.128,7.014,21.271,7.816v0.123h0.021l1.17,10.682c-1.55,0.812-4.445,2.059-7.666,2.107
						c-1.691,0.025-2.607,1.176-2.607,2.246c0,0.574,0.252,1.104,0.703,1.482c0.498,0.426,1.225,0.646,2.094,0.646
						c0.328,0,0.732,0.016,1.18,0.029C63.738,210.646,67.179,210.77,68.193,209.191z"/>
				</g>
			</g>
			<g>
				<g opacity="0.5">
					<path fill="#1D1D1B" d="M29.834,36.651c0.326-0.042,0.726-0.087,1.165-0.13c2.271-0.238,5.697-0.593,6.48-2.3
						c0.035-0.075,0.061-0.168,0.09-0.248c0.266,0.82,0.644,1.567,1.14,1.506c0.558-0.07,0.688-1.083,0.697-1.967
						c0.095,0.14,0.19,0.273,0.295,0.396c1.223,1.424,4.608,0.821,6.853,0.424c0.441-0.079,0.84-0.148,1.17-0.195
						c1.836-0.256,2.487-1.362,2.487-2.229c0-0.579-0.262-1.14-0.72-1.542c-0.555-0.488-1.332-0.698-2.195-0.591
						c-3.287,0.414-6.418-0.482-8.025-1.068L38.945,18.04l0.021-0.004l-0.024-0.179c6.141-1.732,20.272-6.212,19.625-10.597
						c-0.361-2.583-4.379-4.162-8.947-3.521l-3.82,0.537l-0.16-1.149c-0.035-0.256-0.173-0.484-0.379-0.644
						c-0.037-0.029-0.084-0.036-0.123-0.06c0.084-0.008,0.168-0.012,0.247-0.023c0.255-0.037,1.519-0.24,1.519-0.829
						c0-0.002,0-0.002,0-0.002c-0.012-0.066-0.045-0.165-0.152-0.246c-0.294-0.223-0.986-0.221-1.536-0.142
						c-0.146,0.021-0.618,0.101-0.999,0.264L44.197,1.32l-0.752,0.112l0.018,0.124c-0.318-0.043-0.699-0.031-1.036,0.018
						c-0.254,0.034-1.524,0.242-1.524,0.786l0.007,0.047c0.065,0.451,0.95,0.49,1.688,0.384c0.047-0.006,0.131-0.021,0.229-0.039
						c-0.172,0.177-0.282,0.413-0.282,0.675c0,0.042,0.003,0.087,0.013,0.133l0.16,1.149l-5.512,0.775l-0.594-4.219
						c-0.362-2.6-1.315-4.82-2.428-5.657c-0.373-0.281-0.748-0.397-1.115-0.344c-1.154,0.161-1.903,1.98-1.903,4.635
						c0,0.685,0.052,1.396,0.151,2.112l0.594,4.217L26.398,7l-0.231-1.648c-0.035-0.256-0.171-0.484-0.379-0.644
						c-0.036-0.027-0.081-0.035-0.119-0.057c0.117-0.011,0.212-0.022,0.245-0.028c0.253-0.035,1.518-0.24,1.518-0.833
						c0-0.002,0-0.002,0-0.002c-0.086-0.592-1.525-0.407-1.688-0.382c-0.091,0.012-0.595,0.089-1,0.262l-0.017-0.12l-0.752,0.103
						l0.019,0.132c-0.318-0.045-0.701-0.031-1.038,0.017c-0.155,0.018-1.52,0.224-1.52,0.787l0.002,0.043
						c0.011,0.065,0.043,0.16,0.152,0.246c0.291,0.221,0.982,0.219,1.537,0.141c0.045-0.005,0.128-0.019,0.225-0.038
						c-0.17,0.178-0.278,0.412-0.278,0.674c0,0.043,0.002,0.088,0.01,0.134l0.231,1.649l-4.178,0.587
						c-4.365,0.614-7.656,2.963-7.656,5.466c0,0.128,0.009,0.256,0.026,0.386c0.636,4.522,15.952,4.838,22.149,4.778l0.016,0.126
						l0.021-0.004l2.646,10.416c-1.421,1.016-4.114,2.655-7.297,3.153c-1.569,0.242-2.286,1.367-2.286,2.31
						c0,0.567,0.234,1.085,0.662,1.459C27.812,36.458,28.554,36.833,29.834,36.651z"/>
				</g>
				<g>
					<path fill="#BFBFBF" d="M31.834,34.651c0.326-0.042,0.726-0.087,1.165-0.13c2.271-0.238,5.697-0.593,6.48-2.3
						c0.035-0.075,0.061-0.168,0.09-0.248c0.266,0.82,0.644,1.567,1.14,1.506c0.558-0.07,0.688-1.083,0.697-1.967
						c0.095,0.14,0.19,0.273,0.295,0.396c1.223,1.424,4.608,0.821,6.853,0.424c0.441-0.079,0.84-0.148,1.169-0.195
						c1.836-0.256,2.488-1.362,2.488-2.229c0-0.579-0.262-1.14-0.72-1.542c-0.555-0.488-1.332-0.698-2.195-0.591
						c-3.287,0.414-6.418-0.482-8.025-1.068L40.945,16.04l0.021-0.004l-0.024-0.179c6.141-1.732,20.272-6.212,19.625-10.597
						c-0.361-2.583-4.379-4.162-8.947-3.521l-3.82,0.537l-0.16-1.149c-0.035-0.256-0.173-0.484-0.379-0.644
						c-0.037-0.029-0.084-0.036-0.123-0.06c0.084-0.008,0.168-0.012,0.247-0.023c0.255-0.037,1.519-0.24,1.519-0.829
						c0-0.002,0-0.002,0-0.002c-0.012-0.066-0.045-0.165-0.152-0.246c-0.294-0.223-0.986-0.221-1.536-0.142
						c-0.146,0.021-0.618,0.101-0.999,0.264L46.197-0.68l-0.752,0.112l0.018,0.124c-0.318-0.043-0.699-0.031-1.036,0.018
						c-0.254,0.034-1.524,0.242-1.524,0.786l0.007,0.047c0.065,0.451,0.95,0.49,1.688,0.384c0.047-0.006,0.131-0.021,0.229-0.039
						c-0.172,0.177-0.282,0.413-0.282,0.675c0,0.042,0.003,0.087,0.013,0.133l0.16,1.149l-5.512,0.775l-0.594-4.219
						c-0.362-2.6-1.315-4.82-2.428-5.657c-0.373-0.281-0.748-0.397-1.115-0.344c-1.154,0.161-1.903,1.98-1.903,4.635
						c0,0.685,0.052,1.396,0.151,2.112l0.594,4.217L28.398,5l-0.231-1.648c-0.035-0.256-0.171-0.484-0.379-0.644
						c-0.036-0.027-0.081-0.035-0.119-0.057c0.117-0.011,0.212-0.022,0.245-0.028c0.253-0.035,1.518-0.24,1.518-0.833
						c0-0.002,0-0.002,0-0.002c-0.086-0.592-1.525-0.407-1.688-0.382c-0.091,0.012-0.595,0.089-1,0.262l-0.017-0.12l-0.752,0.103
						l0.019,0.132c-0.318-0.045-0.701-0.031-1.038,0.017c-0.155,0.018-1.52,0.224-1.52,0.787l0.002,0.043
						c0.011,0.065,0.043,0.16,0.152,0.246c0.291,0.221,0.982,0.219,1.537,0.141c0.045-0.005,0.128-0.019,0.225-0.038
						c-0.17,0.178-0.278,0.412-0.278,0.674c0,0.043,0.002,0.088,0.01,0.134l0.231,1.649l-4.178,0.587
						c-4.365,0.614-7.656,2.963-7.656,5.466c0,0.128,0.009,0.256,0.026,0.386c0.636,4.522,15.952,4.838,22.149,4.778l0.016,0.126
						l0.021-0.004l2.646,10.416c-1.421,1.016-4.114,2.655-7.297,3.153c-1.569,0.242-2.286,1.367-2.286,2.31
						c0,0.567,0.234,1.085,0.662,1.459C29.812,34.458,30.554,34.833,31.834,34.651z"/>
				</g>
			</g>
			<g>
				<g opacity="0.5">
					<path fill="#1D1D1B" d="M80.831-48.38c0.267-0.193,0.601-0.421,0.968-0.668c1.846-1.248,4.631-3.134,4.631-4.971
						c0-0.034,0-0.073-0.004-0.112c-0.005-0.083-0.02-0.168-0.029-0.254c0.566,0.545,1.195,0.998,1.609,0.835
						c0.117-0.044,0.312-0.178,0.312-0.554c0-0.362-0.188-0.903-0.531-1.562c0.15,0.081,0.301,0.154,0.451,0.213
						c1.752,0.68,4.457-1.453,6.251-2.862c0.349-0.274,0.665-0.521,0.932-0.719c0.881-0.643,1.365-1.438,1.365-2.235
						c0-0.729-0.413-1.394-1.081-1.738c-0.814-0.421-1.831-0.299-2.721,0.327c-2.703,1.915-5.885,2.603-7.578,2.843l-5.319-9.254
						l0.019-0.012L80-69.25c4.091-3.941,12.734-12.79,12.734-17.163c0-0.566-0.144-1.049-0.428-1.438
						c-0.76-1.04-2.185-1.485-4.011-1.255c-1.784,0.225-3.752,1.065-5.543,2.373l-3.112,2.273l-0.686-0.935
						c-0.188-0.26-0.479-0.382-0.773-0.386c0.068-0.046,0.144-0.091,0.207-0.139c0.559-0.405,1.204-1.091,0.945-1.451
						c-0.352-0.483-1.537,0.36-1.674,0.457c-0.266,0.193-0.553,0.451-0.756,0.705l-0.071-0.101l-0.612,0.447l0.073,0.103
						c-0.411,0.157-0.828,0.452-0.903,0.508c-0.49,0.354-1.01,0.866-1.01,1.242c0,0.077,0.021,0.147,0.064,0.209
						c0.355,0.482,1.539-0.36,1.673-0.459c0.058-0.043,0.116-0.089,0.173-0.134c-0.023,0.083-0.039,0.171-0.039,0.26
						c0,0.205,0.064,0.405,0.188,0.575l0.686,0.937l-4.494,3.28l-2.512-3.441c-1.549-2.12-3.438-3.627-4.812-3.843
						c-0.459-0.069-0.844,0.004-1.144,0.224c-0.386,0.282-0.59,0.788-0.593,1.465c0,1.395,0.854,3.429,2.231,5.312l2.511,3.438
						l-4.496,3.28l-0.981-1.345c-0.187-0.258-0.478-0.378-0.771-0.384c0.068-0.046,0.143-0.091,0.207-0.14
						c0.463-0.337,1.008-0.868,1.008-1.238c0-0.083-0.024-0.152-0.068-0.211c-0.35-0.484-1.534,0.356-1.67,0.455
						c-0.275,0.204-0.561,0.456-0.758,0.706l-0.07-0.098l-0.613,0.446l0.074,0.103c-0.41,0.157-0.83,0.449-0.906,0.506
						c-0.466,0.337-1.01,0.87-1.01,1.24c0,0.081,0.024,0.152,0.067,0.211c0.356,0.48,1.536-0.358,1.671-0.457
						c0.059-0.043,0.117-0.088,0.174-0.134c-0.021,0.083-0.037,0.17-0.037,0.26c0,0.207,0.065,0.406,0.188,0.571l0.982,1.345
						l-3.408,2.488c-2.75,2.009-4.529,4.724-4.529,6.915c0,0.713,0.189,1.333,0.562,1.845c2.694,3.691,16.35-3.256,21.784-6.231
						l0.072,0.101l0.019-0.014l7.244,7.938c-0.773,1.565-2.378,4.284-4.945,6.22c-0.759,0.569-1.172,1.323-1.172,2.126
						c0,0.778,0.407,1.469,1.067,1.804C78.798-47.467,79.833-47.651,80.831-48.38z"/>
				</g>
				<g>
					<path fill="#BFBFBF" d="M82.831-50.38c0.267-0.193,0.601-0.421,0.968-0.668c1.846-1.248,4.631-3.134,4.631-4.971
						c0-0.034,0-0.073-0.004-0.112c-0.005-0.083-0.02-0.168-0.029-0.254c0.566,0.545,1.195,0.998,1.609,0.835
						c0.117-0.044,0.312-0.178,0.312-0.554c0-0.362-0.188-0.903-0.531-1.562c0.15,0.081,0.301,0.154,0.451,0.213
						c1.752,0.68,4.457-1.453,6.251-2.862c0.349-0.274,0.665-0.521,0.932-0.719c0.881-0.643,1.365-1.438,1.365-2.235
						c0-0.729-0.413-1.394-1.081-1.738c-0.814-0.421-1.831-0.299-2.721,0.327c-2.703,1.915-5.885,2.603-7.578,2.843l-5.319-9.254
						l0.019-0.012L82-71.25c4.091-3.941,12.734-12.79,12.734-17.163c0-0.566-0.144-1.049-0.428-1.438
						c-0.76-1.04-2.185-1.485-4.011-1.255c-1.784,0.225-3.752,1.065-5.543,2.373l-3.112,2.273l-0.686-0.935
						c-0.188-0.26-0.479-0.382-0.773-0.386c0.068-0.046,0.144-0.091,0.207-0.139c0.559-0.405,1.204-1.091,0.945-1.451
						c-0.352-0.483-1.537,0.36-1.674,0.457c-0.266,0.193-0.553,0.451-0.756,0.705l-0.071-0.101l-0.612,0.447l0.073,0.103
						c-0.411,0.157-0.828,0.452-0.903,0.508c-0.49,0.354-1.01,0.866-1.01,1.242c0,0.077,0.021,0.147,0.064,0.209
						c0.355,0.482,1.539-0.36,1.673-0.459c0.058-0.043,0.116-0.089,0.173-0.134c-0.023,0.083-0.039,0.171-0.039,0.26
						c0,0.205,0.064,0.405,0.188,0.575l0.686,0.937l-4.494,3.28l-2.512-3.441c-1.549-2.12-3.438-3.627-4.812-3.843
						c-0.459-0.069-0.844,0.004-1.144,0.224c-0.386,0.282-0.59,0.788-0.593,1.465c0,1.395,0.854,3.429,2.231,5.312l2.511,3.438
						l-4.496,3.28l-0.981-1.345c-0.187-0.258-0.478-0.378-0.771-0.384c0.068-0.046,0.143-0.091,0.207-0.14
						c0.463-0.337,1.008-0.868,1.008-1.238c0-0.083-0.024-0.152-0.068-0.211c-0.35-0.484-1.534,0.356-1.67,0.455
						c-0.275,0.204-0.561,0.456-0.758,0.706l-0.07-0.098l-0.613,0.446l0.074,0.103c-0.41,0.157-0.83,0.449-0.906,0.506
						c-0.466,0.337-1.01,0.87-1.01,1.24c0,0.081,0.024,0.152,0.067,0.211c0.356,0.48,1.536-0.358,1.671-0.457
						c0.059-0.043,0.117-0.088,0.174-0.134c-0.021,0.083-0.037,0.17-0.037,0.26c0,0.207,0.065,0.406,0.188,0.571l0.982,1.345
						l-3.408,2.488c-2.75,2.009-4.529,4.724-4.529,6.915c0,0.713,0.189,1.333,0.562,1.845c2.694,3.691,16.35-3.256,21.784-6.231
						l0.072,0.101l0.019-0.014l7.244,7.938c-0.773,1.565-2.378,4.284-4.945,6.22c-0.759,0.569-1.172,1.323-1.172,2.126
						c0,0.778,0.407,1.469,1.067,1.804C80.798-49.467,81.833-49.651,82.831-50.38z"/>
				</g>
			</g>
			<g>
				<g opacity="0.5">
					<path fill="#1D1D1B" d="M75.744-0.629c0.265-0.194,0.6-0.421,0.967-0.669c1.846-1.248,4.631-3.133,4.631-4.97
						c0-0.035,0-0.073-0.004-0.11c-0.005-0.085-0.02-0.173-0.029-0.258c0.565,0.545,1.195,0.998,1.613,0.837
						c0.114-0.046,0.307-0.176,0.307-0.554c0-0.364-0.188-0.905-0.53-1.566C82.849-7.837,83-7.763,83.15-7.704
						c1.75,0.678,4.459-1.449,6.248-2.86c0.353-0.277,0.668-0.523,0.936-0.721c0.881-0.644,1.365-1.438,1.365-2.236
						c0-0.729-0.414-1.393-1.081-1.735c-0.815-0.423-1.831-0.301-2.72,0.329c-2.705,1.912-5.888,2.599-7.582,2.839L75-21.342
						l0.018-0.013L74.913-21.5c4.091-3.941,12.735-12.788,12.735-17.166c0-0.563-0.146-1.046-0.428-1.436
						c-1.541-2.103-5.824-1.604-9.555,1.118l-3.114,2.272l-0.684-0.938c-0.188-0.256-0.479-0.378-0.776-0.382
						c0.071-0.044,0.146-0.091,0.209-0.14c0.59-0.424,1.204-1.077,0.946-1.451c-0.356-0.48-1.54,0.362-1.674,0.461
						c-0.275,0.2-0.56,0.454-0.757,0.702l-0.072-0.097l-0.611,0.445l0.073,0.103c-0.41,0.157-0.828,0.449-0.903,0.506
						c-0.466,0.337-1.01,0.866-1.01,1.242c0,0.077,0.021,0.148,0.064,0.211c0.352,0.48,1.537-0.36,1.672-0.459
						c0.059-0.041,0.115-0.088,0.173-0.134c-0.022,0.083-0.038,0.17-0.038,0.26c0,0.207,0.064,0.404,0.188,0.575l0.685,0.934
						l-4.494,3.28l-2.511-3.435c-0.994-1.364-2.146-2.496-3.238-3.189c-1.146-0.721-2.111-0.88-2.72-0.437
						c-0.384,0.285-0.589,0.791-0.591,1.467c0,1.396,0.854,3.428,2.231,5.312l2.509,3.438l-4.494,3.282l-0.981-1.343
						c-0.187-0.258-0.476-0.38-0.771-0.388c0.069-0.045,0.144-0.091,0.205-0.136c0.488-0.358,1.01-0.872,1.01-1.244
						c0-0.079-0.024-0.149-0.065-0.207c-0.038-0.055-0.115-0.122-0.248-0.144c-0.362-0.056-0.974,0.27-1.425,0.601
						c-0.276,0.2-0.561,0.451-0.758,0.701l-0.07-0.097l-0.613,0.446l0.074,0.103c-0.411,0.154-0.829,0.449-0.906,0.506
						c-0.488,0.356-1.008,0.871-1.008,1.241c0,0.08,0.021,0.149,0.064,0.21c0.354,0.482,1.535-0.358,1.668-0.458
						c0.06-0.042,0.119-0.089,0.18-0.137c-0.023,0.085-0.04,0.172-0.04,0.263c0,0.208,0.065,0.405,0.188,0.576l0.98,1.343
						l-3.406,2.487c-2.753,2.008-4.531,4.723-4.531,6.916c0,0.711,0.189,1.333,0.562,1.844c2.695,3.689,16.348-3.255,21.783-6.23
						l0.074,0.101l0.019-0.014l7.244,7.937c-0.772,1.567-2.377,4.284-4.946,6.218c-0.756,0.569-1.172,1.325-1.172,2.127v0.002
						c0,0.777,0.407,1.469,1.067,1.805C73.71,0.283,74.747,0.102,75.744-0.629z"/>
				</g>
				<g>
					<path fill="#BFBFBF" d="M77.744-2.629c0.265-0.194,0.6-0.421,0.967-0.669c1.846-1.248,4.631-3.133,4.631-4.97
						c0-0.035,0-0.073-0.004-0.11c-0.005-0.085-0.02-0.173-0.029-0.258c0.565,0.545,1.195,0.998,1.613,0.837
						c0.114-0.046,0.307-0.176,0.307-0.554c0-0.364-0.188-0.905-0.53-1.566C84.849-9.837,85-9.763,85.15-9.704
						c1.75,0.678,4.459-1.449,6.248-2.86c0.353-0.277,0.668-0.523,0.936-0.721c0.881-0.644,1.365-1.438,1.365-2.236
						c0-0.729-0.414-1.393-1.081-1.735c-0.815-0.423-1.831-0.301-2.72,0.329c-2.705,1.912-5.888,2.599-7.582,2.839L77-23.342
						l0.018-0.013L76.913-23.5c4.091-3.941,12.735-12.788,12.735-17.166c0-0.563-0.146-1.046-0.428-1.436
						c-1.541-2.103-5.824-1.604-9.555,1.118l-3.114,2.272l-0.684-0.938c-0.188-0.256-0.479-0.378-0.776-0.382
						c0.071-0.044,0.146-0.091,0.209-0.14c0.59-0.424,1.204-1.077,0.946-1.451c-0.356-0.48-1.54,0.362-1.674,0.461
						c-0.275,0.2-0.56,0.454-0.757,0.702l-0.072-0.097l-0.611,0.445l0.073,0.103c-0.41,0.157-0.828,0.449-0.903,0.506
						c-0.466,0.337-1.01,0.866-1.01,1.242c0,0.077,0.021,0.148,0.064,0.211c0.352,0.48,1.537-0.36,1.672-0.459
						c0.059-0.041,0.115-0.088,0.173-0.134c-0.022,0.083-0.038,0.17-0.038,0.26c0,0.207,0.064,0.404,0.188,0.575l0.685,0.934
						l-4.494,3.28l-2.511-3.435c-0.994-1.364-2.146-2.496-3.238-3.189c-1.146-0.721-2.111-0.88-2.72-0.437
						c-0.384,0.285-0.589,0.791-0.591,1.467c0,1.396,0.854,3.428,2.231,5.312l2.509,3.438l-4.494,3.282l-0.981-1.343
						c-0.187-0.258-0.476-0.38-0.771-0.388c0.069-0.045,0.144-0.091,0.205-0.136c0.488-0.358,1.01-0.872,1.01-1.244
						c0-0.079-0.024-0.149-0.065-0.207c-0.038-0.055-0.115-0.122-0.248-0.144c-0.362-0.056-0.974,0.27-1.425,0.601
						c-0.276,0.2-0.561,0.451-0.758,0.701l-0.07-0.097l-0.613,0.446l0.074,0.103c-0.411,0.154-0.829,0.449-0.906,0.506
						c-0.488,0.356-1.008,0.871-1.008,1.241c0,0.08,0.021,0.149,0.064,0.21c0.354,0.482,1.535-0.358,1.668-0.458
						c0.06-0.042,0.119-0.089,0.18-0.137c-0.023,0.085-0.04,0.172-0.04,0.263c0,0.208,0.065,0.405,0.188,0.576l0.98,1.343
						l-3.406,2.487c-2.754,2.008-4.532,4.723-4.532,6.916c0,0.711,0.19,1.333,0.563,1.844c2.695,3.689,16.348-3.255,21.783-6.23
						l0.074,0.101l0.019-0.014l7.244,7.937c-0.772,1.567-2.377,4.284-4.946,6.218c-0.756,0.569-1.172,1.325-1.172,2.127v0.002
						c0,0.777,0.407,1.469,1.067,1.805C75.71-1.717,76.747-1.898,77.744-2.629z"/>
				</g>
			</g>
			<g>
				<g opacity="0.5">
					<path fill="#1D1D1B" d="M66.193,258.684c0.046-0.07,0.086-0.148,0.127-0.225c0.148,0.852,0.421,1.637,0.922,1.637
						c0.543,0,0.816-0.92,0.956-1.846c0.073,0.152,0.149,0.301,0.235,0.434c1.012,1.578,4.453,1.455,6.731,1.371
						c0.448-0.014,0.851-0.031,1.185-0.031c1.926,0,2.789-1.066,2.789-2.131c0-1.066-0.912-2.219-2.607-2.244
						c-3.312-0.053-6.286-1.371-7.799-2.176l1.162-10.611h0.021v-0.18c6.317-0.865,20.911-3.346,20.911-7.762
						c0-2.611-3.756-4.734-8.373-4.734h-3.855v-1.16c0-0.314-0.16-0.584-0.396-0.762c0.116,0.004,0.211,0.008,0.243,0.008
						c0.168,0,1.617-0.018,1.617-0.615c0-0.602-1.449-0.617-1.617-0.617c-0.094,0-0.604,0.01-1.025,0.125v-0.125h-0.758v0.127
						c-0.424-0.117-0.938-0.127-1.032-0.127c-0.166,0-1.616,0.016-1.616,0.617c0,0.598,1.45,0.615,1.616,0.615
						c0.033,0,0.129-0.004,0.246-0.008c-0.233,0.178-0.396,0.445-0.396,0.762v1.16h-5.565v-4.26c0-3.607-1.174-6.434-2.673-6.434
						c-1.498,0-2.674,2.824-2.674,6.434v4.26h-5.563v-1.664c0-0.316-0.161-0.586-0.396-0.764c0.117,0.006,0.213,0.008,0.246,0.008
						c0.166,0,1.615-0.016,1.615-0.613c0-0.459-0.869-0.621-1.615-0.621c-0.095,0-0.604,0.01-1.027,0.127v-0.127h-0.762v0.123
						c-0.303-0.084-0.678-0.123-1.027-0.123c-0.748,0-1.616,0.162-1.616,0.621c0,0.598,1.45,0.613,1.616,0.613
						c0.033,0,0.129-0.002,0.246-0.008c-0.235,0.178-0.396,0.445-0.396,0.764v1.664h-4.215c-4.619,0-8.375,2.123-8.375,4.734
						c0,4.568,15.128,7.014,21.271,7.816v0.123h0.021l1.17,10.682c-1.55,0.809-4.446,2.057-7.665,2.107
						c-1.693,0.023-2.607,1.174-2.607,2.244c0,0.574,0.251,1.102,0.703,1.484c0.498,0.422,1.224,0.646,2.093,0.646
						c0.329,0,0.731,0.018,1.18,0.029C61.738,260.139,65.179,260.262,66.193,258.684z"/>
				</g>
				<g>
					<path fill="#BFBFBF" d="M68.193,256.684c0.046-0.07,0.086-0.148,0.127-0.225c0.148,0.852,0.421,1.637,0.922,1.637
						c0.543,0,0.816-0.92,0.956-1.846c0.073,0.152,0.149,0.301,0.235,0.434c1.012,1.578,4.453,1.455,6.731,1.371
						c0.448-0.014,0.851-0.031,1.185-0.031c1.926,0,2.789-1.066,2.789-2.131c0-1.066-0.912-2.219-2.607-2.244
						c-3.312-0.053-6.286-1.371-7.799-2.176l1.162-10.611h0.021v-0.18c6.317-0.865,20.911-3.346,20.911-7.762
						c0-2.611-3.756-4.734-8.373-4.734h-3.855v-1.16c0-0.314-0.16-0.584-0.396-0.762c0.116,0.004,0.211,0.008,0.243,0.008
						c0.168,0,1.617-0.018,1.617-0.615c0-0.602-1.449-0.617-1.617-0.617c-0.094,0-0.604,0.01-1.025,0.125v-0.125h-0.758v0.127
						c-0.424-0.117-0.938-0.127-1.032-0.127c-0.166,0-1.616,0.016-1.616,0.617c0,0.598,1.45,0.615,1.616,0.615
						c0.033,0,0.129-0.004,0.246-0.008c-0.233,0.178-0.396,0.445-0.396,0.762v1.16h-5.565v-4.26c0-3.607-1.174-6.434-2.673-6.434
						c-1.498,0-2.674,2.824-2.674,6.434v4.26h-5.563v-1.664c0-0.316-0.161-0.586-0.396-0.764c0.117,0.006,0.213,0.008,0.246,0.008
						c0.166,0,1.615-0.016,1.615-0.613c0-0.459-0.869-0.621-1.615-0.621c-0.095,0-0.604,0.01-1.027,0.127v-0.127h-0.762v0.123
						c-0.303-0.084-0.678-0.123-1.027-0.123c-0.748,0-1.616,0.162-1.616,0.621c0,0.598,1.45,0.613,1.616,0.613
						c0.033,0,0.129-0.002,0.246-0.008c-0.235,0.178-0.396,0.445-0.396,0.764v1.664h-4.215c-4.619,0-8.375,2.123-8.375,4.734
						c0,4.568,15.128,7.014,21.271,7.816v0.123h0.021l1.17,10.682c-1.55,0.809-4.446,2.057-7.665,2.107
						c-1.693,0.023-2.607,1.174-2.607,2.244c0,0.574,0.251,1.102,0.703,1.484c0.498,0.422,1.224,0.646,2.093,0.646
						c0.329,0,0.731,0.018,1.18,0.029C63.738,258.139,67.179,258.262,68.193,256.684z"/>
				</g>
			</g>
		</g>
	</g>
	<g>
		<path fill="#434344" d="M77.136,107.203c-0.017-1.055,0.826-1.924,1.883-1.939c1.055-0.016,1.922,0.826,1.938,1.883
			c0.019,1.055-0.824,1.926-1.879,1.941C78.021,109.104,77.152,108.26,77.136,107.203z"/>
	</g>
	<g>
		<path fill="#434344" d="M77.15,99.283c-0.012-1.055,0.828-1.924,1.884-1.939c1.058-0.016,1.926,0.824,1.942,1.881
			c0.016,1.055-0.828,1.922-1.884,1.941C78.039,101.186,77.17,100.342,77.15,99.283z"/>
	</g>
	<g>
		<path fill="#434344" d="M76.625,89.727c-0.021-1.32,1.033-2.406,2.353-2.43c1.317-0.021,2.406,1.033,2.43,2.352
			c0.019,1.318-1.033,2.408-2.354,2.43C77.732,92.098,76.648,91.045,76.625,89.727z"/>
	</g>
	<g>
		
			<linearGradient id="SVGID_2_" gradientUnits="userSpaceOnUse" x1="96.7725" y1="4513.6328" x2="100.9072" y2="4513.6328" gradientTransform="matrix(0.9999 -0.0157 -0.0157 -0.9999 43.689 4553.689)">
			<stop  offset="0" style="stop-color:#808185"/>
			<stop  offset="1" style="stop-color:#FFFFFF"/>
		</linearGradient>
		<path fill="url(#SVGID_2_)" d="M70.538,41.154l2.303-0.038c0.503-0.005,0.907-0.423,0.901-0.928l-0.041-2.528
			c-0.01-0.503-0.426-0.907-0.93-0.901l-2.303,0.038c-0.503,0.006-0.906,0.424-0.9,0.929l0.041,2.528
			C69.618,40.759,70.035,41.161,70.538,41.154z"/>
		
			<linearGradient id="SVGID_3_" gradientUnits="userSpaceOnUse" x1="97.1938" y1="4513.6309" x2="100.4873" y2="4513.6309" gradientTransform="matrix(0.9999 -0.0157 -0.0157 -0.9999 43.689 4553.689)">
			<stop  offset="0" style="stop-color:#BBBDBF"/>
			<stop  offset="1" style="stop-color:#FFFFFF"/>
		</linearGradient>
		<path fill="url(#SVGID_3_)" d="M70.763,40.71l1.838-0.031c0.398-0.008,0.724-0.337,0.715-0.738l-0.029-2.017
			c-0.006-0.401-0.342-0.726-0.739-0.72l-1.838,0.029c-0.401,0.006-0.724,0.339-0.715,0.739l0.03,2.02
			C70.029,40.392,70.361,40.716,70.763,40.71z"/>
	</g>
	<g>
		
			<linearGradient id="SVGID_4_" gradientUnits="userSpaceOnUse" x1="106.5908" y1="4513.7559" x2="110.7241" y2="4513.7559" gradientTransform="matrix(0.9999 -0.0157 -0.0157 -0.9999 43.689 4553.689)">
			<stop  offset="0" style="stop-color:#808185"/>
			<stop  offset="1" style="stop-color:#FFFFFF"/>
		</linearGradient>
		<path fill="url(#SVGID_4_)" d="M80.353,40.875l2.301-0.036c0.507-0.009,0.908-0.426,0.902-0.926l-0.041-2.533
			c-0.009-0.5-0.427-0.906-0.929-0.898l-2.304,0.035c-0.502,0.009-0.906,0.427-0.898,0.929l0.039,2.531
			C79.431,40.479,79.849,40.887,80.353,40.875z"/>
		
			<linearGradient id="SVGID_5_" gradientUnits="userSpaceOnUse" x1="107.0103" y1="4513.7559" x2="110.3042" y2="4513.7559" gradientTransform="matrix(0.9999 -0.0157 -0.0157 -0.9999 43.689 4553.689)">
			<stop  offset="0" style="stop-color:#BBBDBF"/>
			<stop  offset="1" style="stop-color:#FFFFFF"/>
		</linearGradient>
		<path fill="url(#SVGID_5_)" d="M80.578,40.431l1.838-0.027c0.398-0.006,0.723-0.341,0.717-0.742l-0.033-2.017
			c-0.004-0.401-0.34-0.725-0.738-0.715l-1.838,0.027c-0.397,0.006-0.723,0.339-0.715,0.737l0.03,2.021
			C79.843,40.117,80.179,40.437,80.578,40.431z"/>
	</g>
	<g>
		
			<linearGradient id="SVGID_6_" gradientUnits="userSpaceOnUse" x1="97.5952" y1="4502.5811" x2="101.73" y2="4502.5811" gradientTransform="matrix(0.9999 -0.0157 -0.0157 -0.9999 43.689 4553.689)">
			<stop  offset="0" style="stop-color:#808185"/>
			<stop  offset="1" style="stop-color:#FFFFFF"/>
		</linearGradient>
		<path fill="url(#SVGID_6_)" d="M71.534,52.191l2.303-0.037c0.503-0.006,0.907-0.424,0.901-0.928l-0.041-2.529
			c-0.01-0.503-0.426-0.907-0.93-0.901l-2.303,0.038c-0.503,0.006-0.906,0.424-0.9,0.929l0.041,2.527
			C70.614,51.797,71.031,52.197,71.534,52.191z"/>
		
			<linearGradient id="SVGID_7_" gradientUnits="userSpaceOnUse" x1="98.0166" y1="4502.5801" x2="101.3101" y2="4502.5801" gradientTransform="matrix(0.9999 -0.0157 -0.0157 -0.9999 43.689 4553.689)">
			<stop  offset="0" style="stop-color:#BBBDBF"/>
			<stop  offset="1" style="stop-color:#FFFFFF"/>
		</linearGradient>
		<path fill="url(#SVGID_7_)" d="M71.759,51.748l1.838-0.031c0.398-0.008,0.723-0.338,0.715-0.738l-0.029-2.017
			c-0.006-0.401-0.342-0.726-0.739-0.72l-1.838,0.029c-0.401,0.006-0.724,0.339-0.715,0.739l0.03,2.02
			C71.025,51.43,71.357,51.754,71.759,51.748z"/>
	</g>
	<g>
		
			<linearGradient id="SVGID_8_" gradientUnits="userSpaceOnUse" x1="107.4136" y1="4502.7051" x2="111.5469" y2="4502.7051" gradientTransform="matrix(0.9999 -0.0157 -0.0157 -0.9999 43.689 4553.689)">
			<stop  offset="0" style="stop-color:#808185"/>
			<stop  offset="1" style="stop-color:#FFFFFF"/>
		</linearGradient>
		<path fill="url(#SVGID_8_)" d="M81.349,51.912l2.301-0.035c0.507-0.01,0.908-0.426,0.902-0.926l-0.041-2.534
			c-0.009-0.5-0.427-0.906-0.929-0.898l-2.304,0.035c-0.502,0.009-0.906,0.427-0.898,0.929l0.039,2.532
			C80.427,51.518,80.845,51.924,81.349,51.912z"/>
		
			<linearGradient id="SVGID_9_" gradientUnits="userSpaceOnUse" x1="107.833" y1="4502.7031" x2="111.1274" y2="4502.7031" gradientTransform="matrix(0.9999 -0.0157 -0.0157 -0.9999 43.689 4553.689)">
			<stop  offset="0" style="stop-color:#BBBDBF"/>
			<stop  offset="1" style="stop-color:#FFFFFF"/>
		</linearGradient>
		<path fill="url(#SVGID_9_)" d="M81.574,51.467l1.838-0.025c0.398-0.006,0.723-0.342,0.717-0.742l-0.033-2.018
			c-0.005-0.401-0.34-0.725-0.738-0.715l-1.838,0.027c-0.397,0.006-0.723,0.339-0.715,0.737l0.03,2.021
			C80.839,51.154,81.174,51.475,81.574,51.467z"/>
	</g>
	<g>
		<g>
			<g opacity="0.5">
				
					<rect x="74.272" y="61.716" transform="matrix(0.0159 0.9999 -0.9999 0.0159 143.9202 -11.784)" fill="#1D1D1B" width="7.351" height="11.017"/>
			</g>
			<g>
				<g>
					
						<rect x="75.272" y="60.716" transform="matrix(0.0159 0.9999 -0.9999 0.0159 143.9044 -13.7679)" fill="#808185" width="7.351" height="11.017"/>
				</g>
			</g>
		</g>
		<g>
			<g opacity="0.5">
				<path fill="#1D1D1B" d="M75.74,77.561c-0.354,0.004-0.646-0.336-0.653-0.766l-0.032-2.291c-0.009-0.424,0.273-0.773,0.625-0.779
					l3.992-0.061c0.354-0.006,0.648,0.334,0.654,0.758l0.035,2.291c0.009,0.43-0.273,0.773-0.629,0.779"/>
			</g>
			<g>
				<path fill="#808185" d="M76.74,76.561c-0.354,0.004-0.646-0.336-0.653-0.766l-0.032-2.291c-0.009-0.424,0.273-0.773,0.625-0.779
					l3.992-0.061c0.354-0.006,0.648,0.334,0.654,0.758l0.035,2.291c0.009,0.43-0.273,0.773-0.629,0.779"/>
			</g>
		</g>
		<g>
			<g>
				
					<rect x="78.129" y="72.895" transform="matrix(0.9999 -0.0164 0.0164 0.9999 -1.1867 1.3002)" fill="#221E20" width="1.192" height="0.297"/>
			</g>
		</g>
		<path fill="#221E20" d="M77.158,76.289l0.376-0.004c0.104-0.004,0.19,0.098,0.192,0.219l0,0c0.002,0.127-0.08,0.23-0.185,0.23
			l-0.376,0.008c-0.104,0.004-0.191-0.1-0.191-0.223l0,0C76.97,76.395,77.054,76.289,77.158,76.289z"/>
		<path fill="#221E20" d="M79.998,76.258l0.376-0.004c0.104-0.004,0.19,0.1,0.192,0.219l0,0c0.002,0.127-0.08,0.23-0.185,0.23
			l-0.376,0.008c-0.104,0.004-0.191-0.1-0.191-0.223l0,0C79.81,76.363,79.894,76.258,79.998,76.258z"/>
	</g>
</g>
</svg>
