<?xml version="1.0" encoding="utf-8"?>
<!-- Generator: Adobe Illustrator 15.1.0, SVG Export Plug-In . SVG Version: 6.00 Build 0)  -->
<!DOCTYPE svg PUBLIC "-//W3C//DTD SVG 1.1//EN" "http://www.w3.org/Graphics/SVG/1.1/DTD/svg11.dtd">
<svg version="1.1" id="Layer_1" xmlns="http://www.w3.org/2000/svg" x="0px" y="0px"
	 width="400px" height="100px" viewBox="0 0 400 100" enable-background="new 0 0 400 100" xml:space="preserve">
<path fill="#0F3A75" d="M387.956,23.891c-7.738-10.006-20.087-16.495-33.974-16.495c-1.252,0-184.27-6.244-186.128-6.306
	c0,0-31.575-0.097-34.329-0.097C60.812,0.993,0.942,47.451,0.348,47.917L0,48.192l0.347,0.274c0.095,0.074,1.7,1.319,4.615,3.354
	c-0.285,0.218-0.436,0.336-0.436,0.336s59.529,46.852,132.963,46.852h34.329c0,0,185.446-5.998,186.127-5.998
	C381.172,93.01,400,74.811,400,52.355C400,41.27,395.402,31.225,387.956,23.891z"/>
</svg>
