<?xml version="1.0" encoding="utf-8"?>
<!-- Generator: Adobe Illustrator 15.1.0, SVG Export Plug-In . SVG Version: 6.00 Build 0)  -->
<!DOCTYPE svg PUBLIC "-//W3C//DTD SVG 1.1//EN" "http://www.w3.org/Graphics/SVG/1.1/DTD/svg11.dtd">
<svg version="1.1" id="Layer_1" xmlns="http://www.w3.org/2000/svg" x="0px" y="0px"
	 width="100px" height="400px" viewBox="0 -150 100 400" enable-background="new 0 -150 100 400" xml:space="preserve">
<g>
	<g>
		<g>
			<g>
				<path fill="#010202" d="M51.809-149.438c0,0-46.852,59.528-46.852,132.963v34.329c0,0,5.996,185.446,5.996,186.128
					c0,23.227,18.201,42.055,40.654,42.055c22.447,0,40.648-18.828,40.648-42.055c0-1.271,6.307-186.128,6.307-186.128
					s0.098-31.575,0.098-34.329C98.661-89.908,51.809-149.438,51.809-149.438z"/>
			</g>
		</g>
		<g>
			<g>
				<g>
					<g opacity="0.5">
						<path d="M47.844-145.474c0,0-46.852,59.529-46.852,132.963v34.329c0,0,5.998,185.445,5.998,186.127
							C6.991,231.172,25.19,250,47.645,250c22.447,0,40.648-18.828,40.648-42.055c0-1.271,6.307-186.127,6.307-186.127
							s0.098-31.575,0.098-34.329C94.696-85.943,47.844-145.474,47.844-145.474z"/>
					</g>
					<g>
						
							<linearGradient id="SVGID_1_" gradientUnits="userSpaceOnUse" x1="-98.6987" y1="-75.3936" x2="-4.9956" y2="-75.3936" gradientTransform="matrix(1 0 0 -1 103.6562 -27.0938)">
							<stop  offset="0" style="stop-color:#707070"/>
							<stop  offset="1" style="stop-color:#FFFFFF"/>
						</linearGradient>
						<path fill="url(#SVGID_1_)" d="M51.809-149.438c0,0-46.852,59.528-46.852,132.963v34.329c0,0,5.996,185.446,5.996,186.128
							c0,23.227,18.201,42.055,40.654,42.055c22.447,0,40.648-18.828,40.648-42.055c0-1.271,6.307-186.128,6.307-186.128
							s0.098-31.575,0.098-34.329C98.661-89.908,51.809-149.438,51.809-149.438z"/>
					</g>
				</g>
				<path fill="#A7A9AC" d="M4.61,17.86v-34.335c0-72.714,46.457-132.583,46.925-133.178L51.809-150l0.274,0.349
					c0.466,0.594,46.924,60.464,46.924,133.177c0,2.754-0.097,34.329-0.097,34.329c-0.062,1.858-6.307,184.876-6.307,186.128
					c0,23.379-18.392,42.4-40.996,42.4c-22.61,0-41.002-19.021-41.002-42.4C10.593,203.018,4.669,19.716,4.61,17.866V17.86
					L4.61,17.86z M51.809-148.868C47.963-143.806,5.305-86.027,5.305-16.474v34.324c0.246,7.651,5.996,185.454,5.996,186.132
					c0,22.998,18.08,41.705,40.307,41.705c22.223,0,40.302-18.707,40.302-41.705c0-1.264,6.048-178.591,6.306-186.139l0,0
					c0-0.052,0.1-31.567,0.1-34.317C98.313-86.027,55.655-143.806,51.809-148.868z"/>
			</g>
			<g>
				
					<linearGradient id="SVGID_2_" gradientUnits="userSpaceOnUse" x1="-93.1479" y1="-75.3945" x2="-10.5405" y2="-75.3945" gradientTransform="matrix(1 0 0 -1 103.6562 -27.0938)">
					<stop  offset="0" style="stop-color:#FFFFFF"/>
					<stop  offset="1" style="stop-color:#707070"/>
				</linearGradient>
				<path fill="url(#SVGID_2_)" d="M51.809-126.018c0,0-41.301,52.479-41.301,117.212v30.264c0,0,5.285,163.487,5.285,164.089
					c0,20.477,16.045,37.072,35.836,37.072c19.792,0,35.837-16.598,35.837-37.072c0-1.121,5.562-164.089,5.562-164.089
					s0.088-27.834,0.088-30.264C93.116-73.537,51.809-126.018,51.809-126.018z"/>
				<path fill="#A7A9AC" d="M10.463,21.458V-8.806c0-14.77,2.17-30.124,6.457-45.636c3.424-12.408,8.201-24.947,14.197-37.267
					c10.211-20.97,20.552-34.206,20.656-34.336l0.035-0.044l0.034,0.044c0.104,0.13,10.447,13.366,20.659,34.337
					c5.996,12.318,10.771,24.857,14.2,37.267c4.286,15.512,6.456,30.866,6.456,45.636c0,2.402-0.085,29.987-0.088,30.264
					c-0.055,1.632-5.562,162.98-5.562,164.088c0,9.916-3.731,19.236-10.507,26.246c-6.777,7.012-15.79,10.869-25.373,10.869
					c-9.584,0-18.594-3.857-25.374-10.869c-6.774-7.01-10.508-16.33-10.508-26.246c0-0.592-5.231-162.449-5.285-164.085
					L10.463,21.458L10.463,21.458z M51.809-125.943c-0.672,0.86-10.703,13.924-20.611,34.277
					C21.78-72.315,10.551-42.233,10.551-8.806v30.264c0.057,1.714,5.285,163.493,5.285,164.089
					c0,20.416,16.057,37.027,35.793,37.027c19.735,0,35.792-16.611,35.792-37.027c0-1.111,5.506-162.459,5.562-164.092
					c0-0.275,0.088-27.857,0.088-30.261c0-33.429-11.229-63.511-20.647-82.86C62.514-112.021,52.479-125.083,51.809-125.943z"/>
			</g>
			<path fill="#595A5C" d="M48.79-89.762c-0.033,1.585,1.189,2.9,2.721,2.934c1.536,0.029,2.809-1.23,2.834-2.818
				c0.027-1.211-0.679-2.262-1.693-2.706l0.056-2.751l2.899,0.062c0.151,0.613,0.689,1.075,1.336,1.089
				c0.781,0.014,1.429-0.628,1.438-1.437c0.021-0.812-0.604-1.479-1.385-1.494c-0.646-0.011-1.201,0.427-1.379,1.035l-2.896-0.057
				l0.201-10.311c0.532,0.064,1.092,0.179,1.705,0.337c1.391,0.377,3.062,1.01,5.426,1.901l-0.603,0.569
				c-0.229,0.218-0.169,0.631,0.112,0.743l2.842,1.173c0.277,0.115,0.564-0.153,0.517-0.487l-0.517-3.367
				c-0.055-0.331-0.401-0.476-0.631-0.259l-0.553,0.521c-2.082-2.733-4.867-4.322-7.779-4.755l-0.992-1.877
				c-0.201-0.365-0.7-0.377-0.913-0.018l-1.08,1.851c-2.856,0.349-5.634,1.804-7.772,4.378l-0.615-0.662
				c-0.217-0.228-0.57-0.11-0.639,0.217l-0.724,3.324c-0.07,0.326,0.194,0.617,0.481,0.521l2.912-0.97
				c0.281-0.096,0.369-0.503,0.158-0.735l-0.475-0.505c3.348-1.113,5.334-1.767,7.072-1.94L50.657-95.95l-2.842-0.06l-0.012,0.401
				l-0.004,0.401l2.84,0.059l-0.054,2.75C49.555-91.988,48.811-90.973,48.79-89.762z M53.34-89.67
				c-0.017,1.017-0.824,1.819-1.811,1.799c-0.977-0.017-1.753-0.857-1.736-1.872c0.017-1.012,0.831-1.821,1.809-1.8
				C52.585-91.521,53.362-90.685,53.34-89.67z M47.805-95.605c-0.01,0.81-0.662,1.448-1.438,1.434
				c-0.781-0.016-1.4-0.684-1.392-1.494c0.019-0.808,0.664-1.449,1.445-1.433C47.204-97.083,47.823-96.416,47.805-95.605z"/>
			<g>
				<path fill="#595A5C" d="M37.036-82.918l-0.955,0.993l0.863,0.896l-3.229,3.34l-0.866-0.896l-0.957,0.993
					c-0.781,0.805-0.435,2.475,0.766,3.716c1.195,1.238,2.814,1.598,3.592,0.792l0.961-0.992l-0.869-0.896l3.232-3.34l0.863,0.896
					l0.961-0.994c0.774-0.804,0.428-2.477-0.767-3.716C39.43-83.363,37.811-83.722,37.036-82.918z"/>
				<path fill="#595A5C" d="M71.731-77.591l-0.961-0.993l-0.869,0.896l-3.227-3.34l0.869-0.896l-0.961-0.993
					c-0.777-0.804-2.396-0.445-3.598,0.792c-1.193,1.239-1.541,2.912-0.76,3.716l0.957,0.994l0.867-0.896l3.227,3.34l-0.868,0.896
					l0.967,0.992c0.771,0.806,2.39,0.446,3.59-0.792C72.161-75.116,72.507-76.786,71.731-77.591z"/>
			</g>
			<g>
				<g>
					<path fill="#A7A9AC" d="M64.791,204.086H39.942c-8.733,0-15.871-7.391-15.871-16.422V-50.517
						c0-9.03,7.138-16.423,15.871-16.423h24.849c8.729,0,15.87,7.393,15.87,16.423v238.181
						C80.661,196.695,73.518,204.086,64.791,204.086z"/>
					<path fill="#A7A9AC" d="M24.018,187.664V-50.517c0-9.085,7.144-16.476,15.924-16.476h24.849c8.78,0,15.923,7.391,15.923,16.476
						v238.181c0,9.086-7.143,16.475-15.923,16.475H39.942C31.161,204.139,24.018,196.75,24.018,187.664z M80.61-50.517
						c0-9.027-7.098-16.371-15.819-16.371H39.942c-8.723,0-15.817,7.344-15.817,16.371v238.181c0,9.027,7.097,16.371,15.817,16.371
						h24.849c8.724,0,15.819-7.344,15.819-16.371V-50.517z"/>
				</g>
			</g>
			<g>
				<g>
					<g>
						<g>
							<g>
								<g opacity="0.5">
									<rect x="51.651" y="197.652" width="1.781" height="22.66"/>
								</g>
								<g>
									
										<linearGradient id="SVGID_3_" gradientUnits="userSpaceOnUse" x1="-1180.2749" y1="-3657.3853" x2="-1178.4937" y2="-3657.3853" gradientTransform="matrix(-1 0 0 1 -1124.8428 3864.3677)">
										<stop  offset="0" style="stop-color:#707070"/>
										<stop  offset="1" style="stop-color:#F1F2F2"/>
									</linearGradient>
									<rect x="53.651" y="195.652" fill="url(#SVGID_3_)" width="1.781" height="22.66"/>
								</g>
							</g>
							<path fill="#939599" d="M53.61,218.355v-22.744h1.863v22.744H53.61z M53.692,195.693v22.578h1.699v-22.578H53.692z"/>
						</g>
						<g>
							<g>
								<g opacity="0.5">
									<rect x="46.518" y="197.652" width="1.787" height="22.66"/>
								</g>
								<g>
									
										<linearGradient id="SVGID_4_" gradientUnits="userSpaceOnUse" x1="-1175.1475" y1="-3657.3853" x2="-1173.3608" y2="-3657.3853" gradientTransform="matrix(-1 0 0 1 -1124.8428 3864.3677)">
										<stop  offset="0" style="stop-color:#707070"/>
										<stop  offset="1" style="stop-color:#F1F2F2"/>
									</linearGradient>
									<rect x="48.518" y="195.652" fill="url(#SVGID_4_)" width="1.787" height="22.66"/>
								</g>
							</g>
							<path fill="#939599" d="M48.477,218.355v-22.744h1.87v22.744H48.477z M48.559,195.693v22.578h1.706v-22.578H48.559z"/>
						</g>
						<g>
							<g>
								<g opacity="0.5">
									<path d="M44.395,179.072h11.162c2.203,0,4.012,1.871,4.012,4.156v12.119c0,2.285-1.809,4.154-4.012,4.154H44.395
										c-2.213,0-4.017-1.869-4.017-4.154v-12.119C40.379,180.943,42.182,179.072,44.395,179.072z"/>
								</g>
								<g>
									
										<linearGradient id="SVGID_5_" gradientUnits="userSpaceOnUse" x1="-1186.4116" y1="-3677.0806" x2="-1167.2212" y2="-3677.0806" gradientTransform="matrix(-1 0 0 1 -1124.8428 3864.3677)">
										<stop  offset="0" style="stop-color:#707070"/>
										<stop  offset="1" style="stop-color:#BCBEC0"/>
									</linearGradient>
									<path fill="url(#SVGID_5_)" d="M46.395,177.072h11.162c2.203,0,4.012,1.871,4.012,4.156v12.119
										c0,2.285-1.809,4.154-4.012,4.154H46.395c-2.213,0-4.017-1.869-4.017-4.154v-12.119
										C42.379,178.943,44.182,177.072,46.395,177.072z"/>
								</g>
							</g>
							<path fill="#939599" d="M42.34,193.348V181.23c0-2.312,1.818-4.197,4.055-4.197h11.162c2.233,0,4.053,1.885,4.053,4.197
								v12.117c0,2.314-1.818,4.197-4.053,4.197H46.395C44.159,197.545,42.34,195.662,42.34,193.348z M61.528,181.229
								c0-2.268-1.78-4.115-3.971-4.115H46.395c-2.193,0-3.976,1.848-3.976,4.115v12.119c0,2.271,1.781,4.113,3.976,4.113h11.162
								c2.189,0,3.971-1.844,3.971-4.113V181.229z"/>
						</g>
						<g>
							
								<linearGradient id="SVGID_6_" gradientUnits="userSpaceOnUse" x1="-1185.1519" y1="-3677.0796" x2="-1168.478" y2="-3677.0796" gradientTransform="matrix(-1 0 0 1 -1124.8428 3864.3677)">
								<stop  offset="0" style="stop-color:#BCBEC0"/>
								<stop  offset="1" style="stop-color:#707070"/>
							</linearGradient>
							<path fill="url(#SVGID_6_)" d="M47.127,178.412h9.693c1.925,0,3.488,1.627,3.488,3.611v10.529
								c0,1.984-1.563,3.611-3.488,3.611h-9.693c-1.918,0-3.492-1.627-3.492-3.611v-10.529
								C43.635,180.039,45.209,178.412,47.127,178.412z"/>
							<path fill="#939599" d="M43.594,192.553v-10.529c0-2.012,1.586-3.652,3.533-3.652h9.693c1.945,0,3.527,1.643,3.527,3.652
								v10.529c0,2.014-1.582,3.652-3.527,3.652h-9.693C45.18,196.205,43.594,194.564,43.594,192.553z M60.268,182.023
								c0-1.971-1.545-3.572-3.447-3.572h-9.693c-1.904,0-3.453,1.604-3.453,3.572v10.529c0,1.967,1.549,3.57,3.453,3.57h9.693
								c1.902,0,3.447-1.604,3.447-3.57V182.023z"/>
						</g>
					</g>
				</g>
				<g>
					<g>
						<g>
							<path fill="#010202" d="M54.786,184.129h2.982c0.592,0,1.075,0.5,1.075,1.109v3.242c0,0.611-0.483,1.111-1.075,1.111h-2.982
								c-0.598,0-1.075-0.5-1.075-1.111v-3.242C53.709,184.629,54.188,184.129,54.786,184.129z"/>
						</g>
						<path fill="#595A5C" d="M54.786,184.129h2.982c0.592,0,1.075,0.5,1.075,1.109v3.242c0,0.611-0.483,1.111-1.075,1.111h-2.982
							c-0.598,0-1.075-0.5-1.075-1.111v-3.242C53.709,184.629,54.188,184.129,54.786,184.129z"/>
					</g>
					<g>
						<g>
							<path fill="#010202" d="M46.594,184.129h2.982c0.592,0,1.076,0.5,1.076,1.109v3.242c0,0.611-0.484,1.111-1.076,1.111h-2.982
								c-0.598,0-1.074-0.5-1.074-1.111v-3.242C45.52,184.629,45.997,184.129,46.594,184.129z"/>
						</g>
						<path fill="#595A5C" d="M46.594,184.129h2.982c0.592,0,1.076,0.5,1.076,1.109v3.242c0,0.611-0.484,1.111-1.076,1.111h-2.982
							c-0.598,0-1.074-0.5-1.074-1.111v-3.242C45.52,184.629,45.997,184.129,46.594,184.129z"/>
					</g>
				</g>
			</g>
			<g>
				<g>
					<path fill="#010202" d="M74.751,18.995c0-6.582,1.89-12.202,4.565-14.493v-5.273c0-7.278-11.727-13.179-26.193-13.179
						c-14.465,0-26.189,5.899-26.189,13.179v5.273c2.672,2.291,4.565,7.911,4.565,14.493c0,4.494-0.881,8.535-2.293,11.376
						c-1.356,2.737-0.998,6.453,0.854,8.631c1.641,1.922,3.803,3.097,6.176,3.097h1.494v16.667c0,5.996,3.721,10.906,8.271,10.906
						H60.25c4.552,0,8.272-4.91,8.272-10.906V42.099h1.494c2.373,0,4.528-1.175,6.168-3.097c1.858-2.178,2.217-5.894,0.858-8.631
						C75.63,27.53,74.751,23.489,74.751,18.995z"/>
				</g>
				<g>
					<g opacity="0.5">
						<path d="M72.751,20.995c0-6.582,1.89-12.202,4.565-14.493V1.229c0-7.278-11.727-13.179-26.193-13.179
							c-14.465,0-26.189,5.899-26.189,13.179v5.273c2.672,2.291,4.565,7.911,4.565,14.493c0,4.494-0.881,8.535-2.293,11.376
							c-1.356,2.737-0.998,6.453,0.854,8.631c1.641,1.922,3.803,3.097,6.176,3.097h1.494v16.667c0,5.996,3.721,10.906,8.271,10.906
							H58.25c4.552,0,8.272-4.91,8.272-10.906V44.099h1.494c2.373,0,4.528-1.175,6.168-3.097c1.858-2.178,2.217-5.894,0.858-8.631
							C73.63,29.53,72.751,25.489,72.751,20.995z"/>
					</g>
					<g>
						<path fill="#808386" d="M74.751,18.995c0-6.582,1.89-12.202,4.565-14.493v-5.273c0-7.278-11.727-13.179-26.193-13.179
							c-14.465,0-26.189,5.899-26.189,13.179v5.273c2.672,2.291,4.565,7.911,4.565,14.493c0,4.494-0.881,8.535-2.293,11.376
							c-1.356,2.737-0.998,6.453,0.854,8.631c1.641,1.922,3.803,3.097,6.176,3.097h1.494v16.667c0,5.996,3.721,10.906,8.271,10.906
							H60.25c4.552,0,8.272-4.91,8.272-10.906V42.099h1.494c2.373,0,4.528-1.175,6.168-3.097c1.858-2.178,2.217-5.894,0.858-8.631
							C75.63,27.53,74.751,23.489,74.751,18.995z"/>
					</g>
				</g>
			</g>
			<g>
				<g>
					<path fill="#010202" d="M53.096-63.061c-8.984,0-16.598,7.615-19.277,18.165l5.856,24.928h26.849l5.859-24.928
						C69.701-55.444,62.084-63.061,53.096-63.061z"/>
				</g>
				<g>
					<g opacity="0.5">
						<path d="M51.096-61.061c-8.984,0-16.598,7.615-19.277,18.165l5.856,24.928h26.849l5.859-24.928
							C67.701-53.444,60.084-61.061,51.096-61.061z"/>
					</g>
					<g>
						<path fill="#808386" d="M53.096-63.061c-8.984,0-16.598,7.615-19.277,18.165l5.856,24.928h26.849l5.859-24.928
							C69.701-55.444,62.084-63.061,53.096-63.061z"/>
					</g>
				</g>
			</g>
			<g>
				<g>
					<g>
						<g>
							<path fill="#010202" d="M59.071-28.587H47.909c-2.205,0-4.014-1.869-4.014-4.156v-12.116c0-2.286,1.809-4.154,4.014-4.154
								h11.162c2.205,0,4.015,1.868,4.015,4.154v12.116C63.084-30.456,61.276-28.587,59.071-28.587z"/>
							<g>
								<rect x="50.034" y="-69.826" fill="#010202" width="1.785" height="22.657"/>
								<rect x="55.167" y="-69.826" fill="#010202" width="1.781" height="22.657"/>
							</g>
						</g>
					</g>
					<g>
						<g>
							
								<linearGradient id="SVGID_7_" gradientUnits="userSpaceOnUse" x1="-53.6226" y1="31.4038" x2="-51.8374" y2="31.4038" gradientTransform="matrix(1 0 0 -1 103.6562 -27.0938)">
								<stop  offset="0" style="stop-color:#707070"/>
								<stop  offset="1" style="stop-color:#F1F2F2"/>
							</linearGradient>
							<rect x="50.034" y="-69.826" fill="url(#SVGID_7_)" width="1.785" height="22.657"/>
							<path fill="#939599" d="M49.993-47.128v-22.739h1.867v22.739H49.993z M50.074-69.784v22.575h1.704v-22.575H50.074z"/>
						</g>
						<g>
							
								<linearGradient id="SVGID_8_" gradientUnits="userSpaceOnUse" x1="-48.4897" y1="31.4038" x2="-46.7085" y2="31.4038" gradientTransform="matrix(1 0 0 -1 103.6562 -27.0938)">
								<stop  offset="0" style="stop-color:#707070"/>
								<stop  offset="1" style="stop-color:#F1F2F2"/>
							</linearGradient>
							<rect x="55.167" y="-69.826" fill="url(#SVGID_8_)" width="1.781" height="22.657"/>
							<path fill="#939599" d="M55.125-47.128v-22.739h1.863v22.739H55.125z M55.207-69.784v22.575h1.7v-22.575H55.207z"/>
						</g>
						<g>
							
								<linearGradient id="SVGID_9_" gradientUnits="userSpaceOnUse" x1="-59.7612" y1="11.7065" x2="-40.5708" y2="11.7065" gradientTransform="matrix(1 0 0 -1 103.6562 -27.0938)">
								<stop  offset="0" style="stop-color:#707070"/>
								<stop  offset="1" style="stop-color:#BCBEC0"/>
							</linearGradient>
							<path fill="url(#SVGID_9_)" d="M59.071-28.587H47.909c-2.205,0-4.014-1.869-4.014-4.156v-12.116
								c0-2.286,1.809-4.154,4.014-4.154h11.162c2.205,0,4.015,1.868,4.015,4.154v12.116C63.084-30.456,61.276-28.587,59.071-28.587
								z"/>
							<path fill="#939599" d="M43.854-32.743v-12.116c0-2.313,1.82-4.195,4.056-4.195h11.161c2.234,0,4.055,1.882,4.055,4.195
								v12.116c0,2.314-1.82,4.196-4.055,4.196H47.909C45.674-28.547,43.854-30.429,43.854-32.743z M63.043-44.859
								c0-2.271-1.781-4.114-3.975-4.114H47.908c-2.191,0-3.974,1.845-3.974,4.114v12.116c0,2.271,1.781,4.115,3.974,4.115h11.163
								c2.191,0,3.974-1.845,3.974-4.115L63.043-44.859L63.043-44.859z"/>
						</g>
						<g>
							
								<linearGradient id="SVGID_10_" gradientUnits="userSpaceOnUse" x1="-58.5073" y1="11.7085" x2="-41.8325" y2="11.7085" gradientTransform="matrix(1 0 0 -1 103.6562 -27.0938)">
								<stop  offset="0" style="stop-color:#BCBEC0"/>
								<stop  offset="1" style="stop-color:#707070"/>
							</linearGradient>
							<path fill="url(#SVGID_10_)" d="M58.337-29.927h-9.694c-1.925,0-3.494-1.624-3.494-3.608v-10.531
								c0-1.984,1.569-3.611,3.494-3.611h9.694c1.917,0,3.486,1.627,3.486,3.611v10.531C61.825-31.551,60.254-29.927,58.337-29.927z
								"/>
							<path fill="#939599" d="M45.11-33.535v-10.531c0-2.013,1.586-3.652,3.533-3.652h9.694c1.944,0,3.527,1.641,3.527,3.652
								v10.531c0,2.013-1.583,3.649-3.527,3.649h-9.694C46.696-29.886,45.11-31.522,45.11-33.535z M61.785-44.066
								c0-1.97-1.546-3.57-3.446-3.57h-9.695c-1.903,0-3.453,1.602-3.453,3.57v10.531c0,1.971,1.55,3.568,3.453,3.568h9.695
								c1.9,0,3.446-1.599,3.446-3.568V-44.066z"/>
						</g>
					</g>
				</g>
				<g>
					<g>
						<g>
							<path fill="#010202" d="M50.684-35.643h-2.986c-0.594,0-1.076-0.498-1.076-1.108v-3.242c0-0.613,0.482-1.112,1.076-1.112
								h2.986c0.586,0,1.069,0.499,1.069,1.112v3.242C51.753-36.141,51.27-35.643,50.684-35.643z"/>
						</g>
						<path fill="#595A5C" d="M50.684-35.643h-2.986c-0.594,0-1.076-0.498-1.076-1.108v-3.242c0-0.613,0.482-1.112,1.076-1.112
							h2.986c0.586,0,1.069,0.499,1.069,1.112v3.242C51.753-36.141,51.27-35.643,50.684-35.643z"/>
					</g>
					<g>
						<g>
							<path fill="#010202" d="M58.875-35.643h-2.986c-0.6,0-1.076-0.498-1.076-1.108v-3.242c0-0.613,0.478-1.112,1.076-1.112h2.986
								c0.586,0,1.07,0.499,1.07,1.112v3.242C59.946-36.141,59.46-35.643,58.875-35.643z"/>
						</g>
						<path fill="#595A5C" d="M58.875-35.643h-2.986c-0.6,0-1.076-0.498-1.076-1.108v-3.242c0-0.613,0.478-1.112,1.076-1.112h2.986
							c0.586,0,1.07,0.499,1.07,1.112v3.242C59.946-36.141,59.46-35.643,58.875-35.643z"/>
					</g>
				</g>
			</g>
			<g>
				<g>
					<g>
						<path fill="#231F20" d="M69.716,162.689H38.735c-2.754,0-4.98-4.881-4.98-10.902v-32.396c0-6.02,2.227-10.9,4.98-10.9h30.981
							c2.755,0,4.979,4.881,4.979,10.9v32.396C74.698,157.811,72.471,162.689,69.716,162.689z"/>
					</g>
				</g>
				<g>
					<g opacity="0.5">
						<path d="M67.716,164.689H36.735c-2.754,0-4.98-4.881-4.98-10.902v-32.396c0-6.02,2.227-10.9,4.98-10.9h30.981
							c2.755,0,4.979,4.881,4.979,10.9v32.396C72.698,159.811,70.471,164.689,67.716,164.689z"/>
					</g>
					<g>
						<path fill="#808386" d="M69.716,162.689H38.735c-2.754,0-4.98-4.881-4.98-10.902v-32.396c0-6.02,2.227-10.9,4.98-10.9h30.981
							c2.755,0,4.979,4.881,4.979,10.9v32.396C74.698,157.811,72.471,162.689,69.716,162.689z"/>
					</g>
				</g>
			</g>
		</g>
	</g>
	<g>
		<g>
			<g opacity="0.5">
				
					<rect x="78.997" y="60.136" transform="matrix(-0.7278 -0.6858 0.6858 -0.7278 89.1798 177.9422)" width="1.811" height="22.276"/>
			</g>
			<g>
				
					<linearGradient id="SVGID_11_" gradientUnits="userSpaceOnUse" x1="-965.3198" y1="-463.0801" x2="-963.5073" y2="-463.0801" gradientTransform="matrix(0.7276 0.686 0.686 -0.7276 1101.2703 393.91)">
					<stop  offset="0" style="stop-color:#707070"/>
					<stop  offset="1" style="stop-color:#F1F2F2"/>
				</linearGradient>
				<polygon fill="url(#SVGID_11_)" points="74.913,77.986 73.593,76.744 88.874,60.537 90.192,61.779 				"/>
			</g>
		</g>
		<g>
			<g opacity="0.5">
				
					<rect x="82.784" y="63.704" transform="matrix(-0.7275 -0.6861 0.6861 -0.7275 93.2281 186.7109)" width="1.819" height="22.273"/>
			</g>
			<g>
				
					<linearGradient id="SVGID_12_" gradientUnits="userSpaceOnUse" x1="-960.1006" y1="-463.0796" x2="-958.2822" y2="-463.0796" gradientTransform="matrix(0.7276 0.686 0.686 -0.7276 1101.2703 393.91)">
					<stop  offset="0" style="stop-color:#707070"/>
					<stop  offset="1" style="stop-color:#F1F2F2"/>
				</linearGradient>
				<polygon fill="url(#SVGID_12_)" points="78.712,81.57 77.391,80.324 92.669,64.117 93.993,65.361 				"/>
			</g>
		</g>
		<g>
			<g opacity="0.5">
				<path d="M65.75,98.342l-8.258-7.785c-1.632-1.541-1.708-4.139-0.165-5.773l8.17-8.668c1.543-1.637,4.141-1.713,5.773-0.172
					l8.256,7.783c1.635,1.541,1.711,4.139,0.17,5.775l-8.172,8.666C69.983,99.805,67.382,99.883,65.75,98.342z"/>
			</g>
			<g>
				
					<linearGradient id="SVGID_13_" gradientUnits="userSpaceOnUse" x1="-971.5542" y1="-482.4438" x2="-952.0396" y2="-482.4438" gradientTransform="matrix(0.7276 0.686 0.686 -0.7276 1101.2703 393.91)">
					<stop  offset="0" style="stop-color:#707070"/>
					<stop  offset="1" style="stop-color:#BCBEC0"/>
				</linearGradient>
				<path fill="url(#SVGID_13_)" d="M67.75,96.342l-8.258-7.785c-1.632-1.541-1.708-4.139-0.165-5.773l8.17-8.668
					c1.543-1.637,4.141-1.713,5.773-0.172l8.256,7.783c1.635,1.541,1.711,4.139,0.17,5.775l-8.172,8.666
					C71.983,97.805,69.382,97.883,67.75,96.342z"/>
			</g>
		</g>
		
			<linearGradient id="SVGID_14_" gradientUnits="userSpaceOnUse" x1="-970.2788" y1="-482.4419" x2="-953.3169" y2="-482.4419" gradientTransform="matrix(0.7276 0.686 0.686 -0.7276 1101.2703 393.91)">
			<stop  offset="0" style="stop-color:#BCBEC0"/>
			<stop  offset="1" style="stop-color:#707070"/>
		</linearGradient>
		<path fill="url(#SVGID_14_)" d="M68.114,94.873l-7.176-6.766c-1.422-1.34-1.486-3.598-0.148-5.02l7.104-7.531
			c1.336-1.42,3.594-1.486,5.017-0.145l7.175,6.762c1.42,1.34,1.486,3.598,0.146,5.018l-7.101,7.533
			C71.792,96.145,69.534,96.211,68.114,94.873z"/>
		<path fill="#595A5C" d="M66.298,85.441l-2.207-2.08c-0.438-0.412-0.461-1.107-0.045-1.547l2.187-2.318
			c0.414-0.439,1.106-0.457,1.545-0.045l2.209,2.082c0.438,0.412,0.462,1.107,0.048,1.545l-2.188,2.32
			C67.432,85.838,66.739,85.855,66.298,85.441z"/>
		<path fill="#595A5C" d="M72.36,91.158l-2.209-2.084c-0.438-0.412-0.459-1.107-0.045-1.547l2.187-2.318
			c0.414-0.439,1.108-0.457,1.545-0.045l2.21,2.084c0.438,0.412,0.459,1.104,0.046,1.543l-2.187,2.318
			C73.493,91.549,72.797,91.568,72.36,91.158z"/>
	</g>
	<g>
		<g>
			<g opacity="0.5">
				
					<rect x="21.435" y="67.101" transform="matrix(-0.6852 0.7283 -0.7283 -0.6852 94.6341 115.5774)" width="1.813" height="22.275"/>
			</g>
			<g>
				
					<linearGradient id="SVGID_15_" gradientUnits="userSpaceOnUse" x1="105.9849" y1="-782.0059" x2="107.7998" y2="-782.0059" gradientTransform="matrix(0.686 -0.7276 -0.7276 -0.686 -618.0002 -382.4089)">
					<stop  offset="0" style="stop-color:#707070"/>
					<stop  offset="1" style="stop-color:#F1F2F2"/>
				</linearGradient>
				<polygon fill="url(#SVGID_15_)" points="33.065,83.225 31.823,84.545 15.614,69.266 16.86,67.945 				"/>
			</g>
		</g>
		<g>
			<g opacity="0.5">
				
					<rect x="25.013" y="63.312" transform="matrix(-0.6858 0.7278 -0.7278 -0.6858 97.8803 106.6425)" width="1.817" height="22.273"/>
			</g>
			<g>
				
					<linearGradient id="SVGID_16_" gradientUnits="userSpaceOnUse" x1="111.2036" y1="-782.0063" x2="113.0215" y2="-782.0063" gradientTransform="matrix(0.686 -0.7276 -0.7276 -0.686 -618.0002 -382.4089)">
					<stop  offset="0" style="stop-color:#707070"/>
					<stop  offset="1" style="stop-color:#F1F2F2"/>
				</linearGradient>
				<polygon fill="url(#SVGID_16_)" points="36.649,79.426 35.403,80.746 19.196,65.469 20.442,64.146 				"/>
			</g>
		</g>
		<g>
			<g opacity="0.5">
				<path d="M49.42,92.389l-7.786,8.258c-1.541,1.633-4.139,1.709-5.774,0.166l-8.666-8.17c-1.637-1.543-1.713-4.141-0.174-5.771
					l7.785-8.26c1.541-1.635,4.139-1.711,5.772-0.168l8.667,8.17C50.882,88.156,50.959,90.754,49.42,92.389z"/>
			</g>
			<g>
				
					<linearGradient id="SVGID_17_" gradientUnits="userSpaceOnUse" x1="99.7456" y1="-801.3691" x2="119.2593" y2="-801.3691" gradientTransform="matrix(0.686 -0.7276 -0.7276 -0.686 -618.0002 -382.4089)">
					<stop  offset="0" style="stop-color:#707070"/>
					<stop  offset="1" style="stop-color:#BCBEC0"/>
				</linearGradient>
				<path fill="url(#SVGID_17_)" d="M51.42,90.389l-7.786,8.258c-1.541,1.633-4.139,1.709-5.774,0.166l-8.666-8.17
					c-1.637-1.543-1.713-4.141-0.174-5.771l7.785-8.26c1.541-1.635,4.139-1.711,5.772-0.168l8.667,8.17
					C52.882,86.156,52.959,88.754,51.42,90.389z"/>
			</g>
		</g>
		
			<linearGradient id="SVGID_18_" gradientUnits="userSpaceOnUse" x1="101.022" y1="-801.3687" x2="117.9849" y2="-801.3687" gradientTransform="matrix(0.686 -0.7276 -0.7276 -0.686 -618.0002 -382.4089)">
			<stop  offset="0" style="stop-color:#BCBEC0"/>
			<stop  offset="1" style="stop-color:#707070"/>
		</linearGradient>
		<path fill="url(#SVGID_18_)" d="M49.952,90.025l-6.764,7.176c-1.342,1.422-3.6,1.484-5.02,0.146l-7.533-7.102
			c-1.42-1.338-1.486-3.598-0.146-5.018l6.764-7.176c1.34-1.42,3.601-1.486,5.019-0.148l7.533,7.104
			C51.223,86.348,51.29,88.605,49.952,90.025z"/>
		<path fill="#595A5C" d="M40.522,91.838l-2.082,2.209c-0.412,0.438-1.107,0.459-1.545,0.045l-2.32-2.188
			c-0.439-0.412-0.459-1.105-0.045-1.547l2.082-2.207c0.412-0.438,1.106-0.461,1.545-0.049l2.32,2.189
			C40.917,90.705,40.934,91.4,40.522,91.838z"/>
		<path fill="#595A5C" d="M46.235,85.775l-2.082,2.211c-0.412,0.439-1.107,0.459-1.547,0.047l-2.32-2.188
			c-0.438-0.416-0.455-1.107-0.043-1.547l2.082-2.209c0.414-0.438,1.105-0.459,1.545-0.045l2.32,2.186
			C46.629,84.646,46.649,85.34,46.235,85.775z"/>
	</g>
</g>
</svg>
